<svg width="43" height="44" viewBox="0 0 43 44" fill="none" xmlns="http://www.w3.org/2000/svg">
<g clip-path="url(#clip0)">
<path d="M41.114 2.52961C38.5899 0.0439063 34.5162 0.0439063 31.992 2.52961C31.9249 2.59649 31.8718 2.67598 31.8359 2.76338C31.8045 2.84145 31.7878 2.9245 31.7864 3.00852C31.7844 3.01652 31.7827 3.02451 31.7814 3.03268C31.7815 3.12559 31.8 3.2176 31.8359 3.3034C31.8712 3.39053 31.9242 3.46958 31.9913 3.53575L35.54 7.05514L34.1679 8.41514C30.7305 5.264 26.2219 3.51337 21.541 3.51231C21.5288 3.50875 21.5195 3.50236 21.5073 3.50236C21.4952 3.50236 21.4858 3.50875 21.4737 3.50875C16.7921 3.51071 12.2833 5.26294 8.84673 8.41585L7.47471 7.05514L11.0233 3.53575C11.0905 3.46958 11.1434 3.39053 11.1788 3.3034C11.2146 3.2176 11.2332 3.12559 11.2333 3.03268C11.2333 3.02415 11.229 3.01705 11.2283 3.00852C11.2289 2.84456 11.1646 2.68682 11.0491 2.5694C11.0384 2.55732 11.0348 2.5424 11.0233 2.53103C8.50417 0.032271 4.41944 0.0319157 1.89991 2.53032C-0.619705 5.02872 -0.619973 9.07978 1.8992 11.5785C1.90923 11.5892 1.92356 11.592 1.9343 11.602C1.9927 11.6565 2.06004 11.7007 2.13348 11.7327C2.21166 11.7632 2.2946 11.7798 2.37851 11.7818C2.38711 11.7818 2.39571 11.7867 2.40502 11.7867C2.49834 11.7864 2.59076 11.7683 2.67728 11.7334C2.76495 11.6976 2.84457 11.6451 2.91156 11.5785L6.46163 8.05986L7.83366 9.42058C0.847431 16.9105 1.30624 28.599 8.85838 35.5276C9.504 36.1199 10.191 36.6661 10.9144 37.1621L5.95437 42.0805C5.66976 42.3531 5.66188 42.803 5.93682 43.0853C6.21167 43.3675 6.66528 43.3754 6.9499 43.1027C6.9559 43.097 6.96172 43.0911 6.96745 43.0853L12.1525 37.943C17.9327 41.2874 25.0805 41.2874 30.8608 37.943L36.0458 43.0853C36.3304 43.358 36.7839 43.3501 37.0589 43.0679C37.3271 42.7925 37.3271 42.3559 37.0589 42.0805L32.0988 37.1621C40.5616 31.356 42.6761 19.8455 36.8218 11.4525C36.3232 10.7378 35.7744 10.0587 35.1796 9.42058L36.553 8.05986L40.1017 11.5792C40.1687 11.6458 40.2483 11.6983 40.336 11.7341C40.4225 11.769 40.5149 11.7871 40.6082 11.7874C40.6175 11.7874 40.6261 11.7825 40.6347 11.7825C40.7186 11.7805 40.8016 11.7639 40.8798 11.7334C40.9532 11.7015 41.0205 11.6572 41.0789 11.6027C41.0897 11.5927 41.104 11.5899 41.114 11.5792C43.6199 9.07596 43.618 5.03476 41.114 2.52961ZM2.44371 10.0352C0.791547 7.82795 1.25635 4.71039 3.48195 3.07176C5.25833 1.76398 7.68866 1.76398 9.46504 3.07176L2.44371 10.0352ZM38.6716 21.2662H35.1201C34.7245 21.2662 34.4037 21.5844 34.4037 21.9768C34.4037 22.3692 34.7245 22.6874 35.1201 22.6874H38.6845C38.3015 31.5413 31.1514 38.6325 22.2238 39.0124V35.4774C22.2238 35.085 21.903 34.7668 21.5073 34.7668C21.1117 34.7668 20.7909 35.085 20.7909 35.4774V39.0124C11.8633 38.6325 4.71319 31.5413 4.33015 22.6874H7.89455C8.29022 22.6874 8.61102 22.3692 8.61102 21.9768C8.61102 21.5844 8.29022 21.2662 7.89455 21.2662H4.34305C4.50578 17.0064 6.27902 12.9631 9.31028 9.9407C9.32175 9.93075 9.33608 9.9272 9.34682 9.91654C9.35757 9.90588 9.36115 9.89167 9.37118 9.8803C12.4181 6.87306 16.4952 5.11425 20.7909 4.95402V8.47625C20.7909 8.86865 21.1117 9.1868 21.5073 9.1868C21.903 9.1868 22.2238 8.86865 22.2238 8.47625V4.95402C26.5194 5.11416 30.5966 6.87297 33.6435 9.8803C33.6535 9.89167 33.6571 9.90588 33.6679 9.91654C33.6786 9.9272 33.6929 9.93075 33.7044 9.9407C36.7356 12.9632 38.5088 17.0064 38.6716 21.2662ZM40.5695 10.0338L33.5482 3.07034C35.764 1.42212 38.9076 1.86755 40.5695 4.06512C41.9069 5.83369 41.9069 8.2653 40.5695 10.0338Z" fill="#CE1625"/>
<path d="M31.6949 15.322H31.6963L23.5473 19.9875C22.4469 18.8691 20.6406 18.8471 19.5129 19.9384C19.4962 19.9546 19.4797 19.971 19.4634 19.9875L15.0378 17.4536C14.6965 17.2552 14.2575 17.3687 14.0575 17.7073C13.8574 18.0459 13.9718 18.4812 14.3132 18.6796C14.3159 18.6812 14.3187 18.6827 14.3215 18.6843L18.7542 21.2224C18.3097 22.729 19.1808 24.3077 20.6999 24.7485C22.2189 25.1894 23.8107 24.3254 24.2552 22.8189C24.409 22.2976 24.409 21.7436 24.2552 21.2223L32.4114 16.5526C32.7528 16.3541 32.8673 15.9187 32.6672 15.5802C32.4688 15.245 32.0356 15.1298 31.6949 15.322ZM21.5061 23.3981C20.7146 23.3981 20.0731 22.7619 20.0731 21.977C20.0731 21.1921 20.7146 20.5559 21.5061 20.5559C22.2975 20.5559 22.939 21.1921 22.939 21.977C22.939 22.7619 22.2974 23.3981 21.5061 23.3981Z" fill="#CE1625"/>
</g>
<defs>
<clipPath id="clip0">
<rect width="43" height="42.6455" fill="white" transform="translate(0 0.656738)"/>
</clipPath>
</defs>
</svg>
