<svg width="92" height="92" viewBox="0 0 92 92" fill="none" xmlns="http://www.w3.org/2000/svg">
<g clip-path="url(#clip0)">
<path d="M58.6901 23.9094C61.1671 23.9094 63.1823 21.8942 63.1823 19.4172C63.1823 16.9402 61.1671 14.9248 58.6901 14.9248C56.2131 14.9248 54.1979 16.9402 54.1979 19.4172C54.1979 20.4288 54.5343 21.3632 55.1009 22.115L47.72 32.4292C47.2796 32.2846 46.8097 32.2052 46.3213 32.2052C45.141 32.2052 44.0661 32.6636 43.2636 33.4107L38.3439 30.6191C38.4095 30.3143 38.4447 29.9984 38.4447 29.6745C38.4447 27.1975 36.4295 25.1823 33.9525 25.1823C31.4755 25.1823 29.4603 27.1975 29.4603 29.6745C29.4603 29.9984 29.4956 30.3143 29.5611 30.6191L24.6415 33.4107C23.839 32.6636 22.7641 32.2054 21.5837 32.2054C19.1067 32.2054 17.0916 34.2207 17.0916 36.6977C17.0916 39.1747 19.1067 41.1901 21.5837 41.1901C24.0607 41.1901 26.0759 39.1747 26.0759 36.6977C26.0759 36.3737 26.0407 36.0579 25.9751 35.7531L30.8948 32.9615C31.6973 33.7086 32.7722 34.167 33.9525 34.167C35.1329 34.167 36.2076 33.7086 37.0103 32.9617L41.9299 35.7533C41.8643 36.058 41.8291 36.3739 41.8291 36.6979C41.8291 39.1749 43.8443 41.1903 46.3213 41.1903C48.7985 41.1903 50.8137 39.1749 50.8137 36.6979C50.8137 35.6861 50.4771 34.7515 49.9106 33.9997L57.2914 23.6855C57.7317 23.8299 58.2017 23.9094 58.6901 23.9094ZM58.6901 17.6201C59.6809 17.6201 60.487 18.4262 60.487 19.4172C60.487 20.408 59.6809 21.214 58.6901 21.214C57.6993 21.214 56.8932 20.408 56.8932 19.4172C56.8931 18.4262 57.6991 17.6201 58.6901 17.6201ZM21.5832 38.4944C20.5924 38.4944 19.7863 37.6883 19.7863 36.6974C19.7863 35.7064 20.5924 34.9003 21.5832 34.9003C22.574 34.9003 23.3801 35.7064 23.3801 36.6974C23.3801 37.6883 22.574 38.4944 21.5832 38.4944ZM33.9522 31.4713C32.9614 31.4713 32.1553 30.6653 32.1553 29.6743C32.1553 28.6835 32.9614 27.8774 33.9522 27.8774C34.943 27.8774 35.749 28.6835 35.749 29.6743C35.7492 30.6653 34.943 31.4713 33.9522 31.4713ZM46.3211 38.4944C45.3303 38.4944 44.5243 37.6883 44.5243 36.6974C44.5243 35.7064 45.3303 34.9003 46.3211 34.9003C47.3121 34.9003 48.1182 35.7064 48.1182 36.6974C48.1182 37.6883 47.3119 38.4944 46.3211 38.4944Z" fill="#362F4C"/>
<path d="M75.2524 67.7356H65.8213H14.4519H3.81207C3.19628 67.7356 2.69531 67.2346 2.69531 66.6188V11.0201C2.69531 10.4043 3.19628 9.90332 3.81207 9.90332H10.1651C10.9094 9.90332 11.5128 9.30011 11.5128 8.55566C11.5128 7.81122 10.9094 7.20801 10.1651 7.20801H3.81207C1.71009 7.20801 0 8.91809 0 11.0201V66.6188C0 68.7208 1.71009 70.4309 3.81207 70.4309H13.1042V73.3968C13.1042 75.0864 14.4789 76.461 16.1685 76.461H29.6583L23.3082 88.8591C22.9689 89.5216 23.2307 90.3336 23.8932 90.673C24.0898 90.7738 24.2997 90.8214 24.5065 90.8214C24.9961 90.8214 25.4685 90.5537 25.707 90.0878L32.6866 76.461H47.5866L54.5662 90.0878C54.8049 90.5537 55.2771 90.8214 55.7667 90.8214C55.9736 90.8214 56.1834 90.7735 56.38 90.673C57.0425 90.3336 57.3045 89.5216 56.9651 88.8591L50.6149 76.461H64.1048C65.7944 76.461 67.169 75.0866 67.169 73.3968V70.4309H75.2524C75.9967 70.4309 76.6001 69.8277 76.6001 69.0832C76.6001 68.3388 75.9967 67.7356 75.2524 67.7356ZM64.4737 73.3968C64.4737 73.6002 64.3082 73.7657 64.1048 73.7657H16.1685C15.9651 73.7657 15.7996 73.6002 15.7996 73.3968V70.4309H64.4737V73.3968Z" fill="#362F4C"/>
<path d="M15.5557 9.90349H34.0045H46.2684H76.4609C77.0767 9.90349 77.5777 10.4045 77.5777 11.0202V23.8339C77.5777 24.5784 78.1811 25.1816 78.9253 25.1816C79.6696 25.1816 80.273 24.5784 80.273 23.8339V11.0202C80.273 8.91826 78.5629 7.20818 76.4609 7.20818H47.6162V4.55922C47.6162 2.69497 46.0995 1.17822 44.235 1.17822H36.0381C34.1738 1.17822 32.6569 2.69497 32.6569 4.55922V7.20818H15.5557C14.8114 7.20818 14.208 7.81139 14.208 8.55583C14.208 9.30028 14.8114 9.90349 15.5557 9.90349ZM35.3522 4.55922C35.3522 4.18116 35.6598 3.87354 36.0381 3.87354H44.235C44.6131 3.87354 44.9209 4.18116 44.9209 4.55922V7.20818H35.3524V4.55922H35.3522Z" fill="#362F4C"/>
<path d="M18.8496 48.0801C18.1053 48.0801 17.502 48.6833 17.502 49.4277V61.336C17.502 62.0804 18.1053 62.6836 18.8496 62.6836H24.317C25.0612 62.6836 25.6646 62.0804 25.6646 61.336V49.4277C25.6646 48.6833 25.0612 48.0801 24.317 48.0801H18.8496ZM22.9693 59.9885H20.1973V50.7756H22.9693V59.9885Z" fill="#362F4C"/>
<path d="M31.2183 41.1929C30.474 41.1929 29.8706 41.7961 29.8706 42.5405V61.336C29.8706 62.0805 30.474 62.6837 31.2183 62.6837H36.6856C37.4299 62.6837 38.0333 62.0805 38.0333 61.336V42.5405C38.0333 41.7961 37.4299 41.1929 36.6856 41.1929H31.2183ZM35.3381 59.9884H32.5661V43.8882H35.3381V59.9884Z" fill="#362F4C"/>
<path d="M43.5874 48.0801C42.8431 48.0801 42.2397 48.6833 42.2397 49.4277V61.336C42.2397 62.0804 42.8431 62.6836 43.5874 62.6836H49.0547C49.799 62.6836 50.4024 62.0804 50.4024 61.336V49.4277C50.4024 48.6833 49.799 48.0801 49.0547 48.0801H43.5874ZM47.7071 59.9885H44.9351V50.7756H47.7071V59.9885Z" fill="#362F4C"/>
<path d="M55.9563 56.0322C55.212 56.0322 54.6086 56.6354 54.6086 57.3799V61.3361C54.6086 62.0805 55.212 62.6837 55.9563 62.6837H61.4237C62.1679 62.6837 62.7713 62.0805 62.7713 61.3361C62.7713 60.5916 62.1679 59.9884 61.4237 59.9884H57.304V57.3799C57.304 56.6354 56.7006 56.0322 55.9563 56.0322Z" fill="#362F4C"/>
<path d="M91.3126 69.0032L83.5812 55.6118C85.54 53.524 86.9664 50.973 87.7282 48.1296C88.946 43.5851 88.321 38.8383 85.9685 34.7637C81.1123 26.352 70.3183 23.4603 61.9071 28.3163C53.4958 33.1724 50.6037 43.9664 55.4599 52.3778C57.8124 56.4524 61.6108 59.3669 66.1553 60.5848C67.6729 60.9914 69.2127 61.1925 70.7427 61.1925C72.08 61.1925 73.4095 61.0387 74.7097 60.7343L82.4395 74.1261C83.387 75.7679 85.1123 76.6866 86.8844 76.6864C87.7528 76.6864 88.6326 76.4656 89.4374 76.0013C91.018 75.089 91.9999 73.3879 91.9999 71.5619C91.9999 70.6673 91.7624 69.7826 91.3126 69.0032ZM66.8528 57.9813C63.0038 56.9499 59.7865 54.4812 57.7939 51.0301C53.6809 43.9059 56.1305 34.7637 63.2546 30.6505C65.5983 29.2974 68.1594 28.6549 70.689 28.6549C75.8487 28.6549 80.8742 31.331 83.6342 36.1114C85.6266 39.5624 86.156 43.5828 85.1246 47.432C84.0932 51.2813 81.6244 54.4983 78.1733 56.4908C74.7224 58.4834 70.7021 59.0124 66.8528 57.9813ZM88.0903 73.6668C86.9308 74.3363 85.443 73.9377 84.774 72.7788L77.3371 59.8944C78.0824 59.5902 78.8123 59.2345 79.5214 58.8251C80.2309 58.4154 80.903 57.9594 81.5393 57.4656L88.9783 70.3505C89.1918 70.7208 89.3046 71.1398 89.3046 71.5621C89.3046 72.4278 88.8392 73.2344 88.0903 73.6668Z" fill="#362F4C"/>
<path d="M82.9334 47.3672C83.8848 44.3024 83.6582 41.0213 82.2953 38.1283C81.978 37.4549 81.1751 37.1663 80.5018 37.4834C79.8284 37.8008 79.5398 38.6036 79.8571 39.2769C80.9322 41.5589 81.1106 44.1481 80.3593 46.5677C79.6039 49.0007 77.972 51.0425 75.7642 52.3172C73.4279 53.6663 70.7058 54.0242 68.1002 53.3261C65.4943 52.6279 63.3162 50.9566 61.9674 48.6203C59.1828 43.7973 60.8413 37.6081 65.6643 34.8235C69.1907 32.7879 73.567 33.0599 76.8141 35.5166C77.4078 35.9658 78.2529 35.8488 78.7019 35.2551C79.1509 34.6616 79.034 33.8164 78.4403 33.3673C74.3271 30.255 68.783 29.9105 64.3165 32.4892C61.3567 34.198 59.2394 36.9573 58.3548 40.2585C57.4702 43.5598 57.9243 47.008 59.6331 49.9678C61.3419 52.9278 64.1012 55.0448 67.4024 55.9296C68.5048 56.225 69.6236 56.3711 70.7349 56.3711C72.9519 56.3711 75.1403 55.7896 77.1117 54.6513C79.9089 53.0367 81.9763 50.4499 82.9334 47.3672Z" fill="#362F4C"/>
</g>
<defs>
<clipPath id="clip0">
<rect width="92" height="92" fill="white"/>
</clipPath>
</defs>
</svg>
