<svg width="55" height="55" viewBox="0 0 55 55" fill="none" xmlns="http://www.w3.org/2000/svg">
<path d="M52.25 12.8334H42.1667V10.0834C42.1627 6.5413 39.2921 3.67076 35.75 3.66675H19.25C15.7079 3.67076 12.8373 6.5413 12.8333 10.0834V12.8334H2.75C1.2312 12.8334 0 14.0646 0 15.5834V33.9167C0.0048125 35.0779 0.73849 36.111 1.83333 36.4981V48.5834C1.83333 50.1022 3.06453 51.3334 4.58333 51.3334H50.4167C51.9355 51.3334 53.1667 50.1022 53.1667 48.5834V36.4981C54.2615 36.111 54.9952 35.0779 55 33.9167V15.5834C55 14.0646 53.7688 12.8334 52.25 12.8334ZM14.6667 10.0834C14.6696 7.55341 16.72 5.50306 19.25 5.50008H35.75C38.28 5.50306 40.3304 7.55341 40.3333 10.0834V12.8334H38.4633L38.5 10.0834C38.497 8.56587 37.2675 7.33639 35.75 7.33341H19.2161C17.6985 7.33639 16.4691 8.56587 16.4661 10.0834V10.0926L16.4908 12.8334H14.6667V10.0834ZM36.6667 10.0706L36.63 12.8334H18.3242L18.2957 10.0834C18.2957 9.57719 18.7062 9.16675 19.2124 9.16675H35.75C36.2513 9.16675 36.6597 9.56928 36.6667 10.0706ZM51.3333 48.5834C51.3333 49.0896 50.9229 49.5001 50.4167 49.5001H4.58333C4.0771 49.5001 3.66667 49.0896 3.66667 48.5834V36.6667H10.0833V39.4167C10.0833 39.923 10.4938 40.3334 11 40.3334H14.6667C15.1729 40.3334 15.5833 39.923 15.5833 39.4167V36.6667H39.4167V39.4167C39.4167 39.923 39.8271 40.3334 40.3333 40.3334H44C44.5062 40.3334 44.9167 39.923 44.9167 39.4167V36.6667H51.3333V48.5834ZM11.9167 38.5001V33.9167C11.9162 33.6696 12.0181 33.4333 12.1981 33.2641C12.3648 33.0928 12.5943 32.9973 12.8333 33.0001C13.3396 33.0001 13.75 33.4105 13.75 33.9167V35.7501V38.5001H11.9167ZM41.25 38.5001V33.9167C41.25 33.4105 41.6604 33.0001 42.1667 33.0001C42.4139 32.9993 42.6506 33.1008 42.8203 33.2806C42.9903 33.4484 43.0852 33.6778 43.0833 33.9167V35.7501V38.5001H41.25ZM53.1667 33.9167C53.1667 34.423 52.7562 34.8334 52.25 34.8334H44.9167V33.9167C44.9101 32.4007 43.6827 31.1733 42.1667 31.1667C40.6479 31.1667 39.4167 32.3979 39.4167 33.9167V34.8334H15.5833V33.9167C15.5833 32.3979 14.3521 31.1667 12.8333 31.1667C11.3181 31.1752 10.0918 32.4015 10.0833 33.9167V34.8334H2.75C2.24377 34.8334 1.83333 34.423 1.83333 33.9167V15.5834C1.83333 15.0772 2.24377 14.6667 2.75 14.6667H52.25C52.7562 14.6667 53.1667 15.0772 53.1667 15.5834V33.9167Z" fill="#BC2A40"/>
</svg>
