<svg width="47" height="47" viewBox="0 0 47 47" fill="none" xmlns="http://www.w3.org/2000/svg">
<g clip-path="url(#clip0)">
<path d="M45.5657 3.40759L35.9978 0.71877V0.68967C35.9978 0.308805 35.689 0 35.3081 0C34.9272 0 34.6184 0.308805 34.6184 0.68967V15.0013H33.6403C32.8545 15.0013 32.2151 15.6406 32.2151 16.4265V22.6737H22.9217C22.1358 22.6737 21.4964 23.3131 21.4964 24.099V30.3462H12.2028C11.417 30.3462 10.7776 30.9856 10.7776 31.7714V38.0188H1.48408C0.698203 38.0188 0.0588379 38.6581 0.0588379 39.444V45.5749C0.0588379 46.3607 0.698203 47.0001 1.48408 47.0001H38.1985C38.5794 47.0001 38.8882 46.6913 38.8882 46.3104C38.8882 45.9296 38.5794 45.6208 38.1985 45.6208H33.5944V23.3633V16.4264C33.5944 16.4011 33.615 16.3804 33.6404 16.3804H42.8881C42.9134 16.3804 42.934 16.401 42.934 16.4264V45.5748C42.934 45.6001 42.9134 45.6208 42.8881 45.6208H41.4916C41.1108 45.6208 40.802 45.9296 40.802 46.3104C40.802 46.6913 41.1108 47.0001 41.4916 47.0001H42.8881C43.6739 47.0001 44.3133 46.3607 44.3133 45.5749V16.4264C44.3133 15.6405 43.6739 15.0012 42.8881 15.0012H35.9978V9.72698L37.7948 9.22191C38.1614 9.11892 38.3751 8.73805 38.2721 8.37142C38.1691 8.00478 37.7885 7.7908 37.4216 7.89407L35.9978 8.29421V2.15144L45.1925 4.73534C45.5353 4.83173 45.5619 5.13282 45.5619 5.22288C45.5619 5.31284 45.5352 5.61402 45.1925 5.71041L40.3178 7.08029C39.9512 7.18329 39.7375 7.56415 39.8405 7.93079C39.9435 8.29743 40.3239 8.5115 40.691 8.40813L45.5656 7.03825C46.3883 6.80711 46.9411 6.0775 46.9411 5.22297C46.9412 4.36825 46.3884 3.63874 45.5657 3.40759ZM1.43818 45.5748V39.4439C1.43818 39.4186 1.45874 39.3979 1.48417 39.3979H10.7777V45.6208H1.48408C1.45874 45.6208 1.43818 45.6001 1.43818 45.5748ZM22.1861 36.7016C21.8052 36.7016 21.4964 37.0104 21.4964 37.3913V45.6208H12.1569V38.7084V31.7714C12.1569 31.7461 12.1775 31.7255 12.2029 31.7255H21.4965V34.2279C21.4965 34.6088 21.8053 34.9176 22.1862 34.9176C22.5671 34.9176 22.8759 34.6088 22.8759 34.2279V24.0989C22.8759 24.0735 22.8964 24.0529 22.9219 24.0529H32.2154V45.6207H22.8757V37.3912C22.8757 37.0103 22.567 36.7016 22.1861 36.7016Z" fill="#CE1625"/>
</g>
<defs>
<clipPath id="clip0">
<rect width="47" height="47" fill="white"/>
</clipPath>
</defs>
</svg>
