<svg width="66" height="65" viewBox="0 0 66 65" fill="none" xmlns="http://www.w3.org/2000/svg">
<path d="M19.8882 44.2888H15.0516L13.5689 39.785C13.2274 38.7477 12.2919 38.0779 11.1849 38.0779C11.1837 38.0779 11.1826 38.0779 11.1815 38.0779C10.0731 38.0793 9.1377 38.7516 8.79845 39.7908L7.32982 44.2888H2.51173C1.40369 44.2888 0.467569 44.9597 0.12672 45.9981C-0.214129 47.0364 0.146175 48.12 1.04451 48.7587L4.9536 51.5382L3.45898 56.0557C3.11579 57.0928 3.47319 58.177 4.36928 58.8179C4.81685 59.138 5.32953 59.298 5.84221 59.298C6.3561 59.298 6.8699 59.1371 7.31803 58.8156L11.2185 56.0168L15.0993 58.7946C15.9957 59.4362 17.1534 59.4355 18.049 58.793C18.9444 58.1503 19.2998 57.0652 18.9545 56.0284L17.4596 51.5405L21.3595 48.7557C22.2556 48.1158 22.6139 47.0324 22.2725 45.9956C21.931 44.9588 20.995 44.2888 19.8882 44.2888ZM20.2614 47.2642L15.809 50.4435C15.4799 50.6785 15.3427 51.096 15.4693 51.4764L17.1769 56.6028C17.3071 56.9935 17.0597 57.2233 16.9473 57.3039C16.835 57.3845 16.537 57.5461 16.1991 57.3044L11.7678 54.1324C11.4396 53.8975 10.9951 53.8977 10.667 54.133L6.21645 57.3266C5.87906 57.5686 5.58105 57.4077 5.46853 57.3271C5.35609 57.2466 5.10831 57.0173 5.23758 56.6265L6.9437 51.4701C7.06969 51.0894 6.93154 50.6721 6.60191 50.4378L2.13954 47.2648C1.80103 47.0241 1.86398 46.695 1.90673 46.5646C1.94957 46.4343 2.09418 46.131 2.51173 46.131H8.01171C8.41803 46.131 8.77777 45.8727 8.90218 45.4918L10.5795 40.3545C10.7073 39.9629 11.0448 39.9203 11.184 39.9201H11.1849C11.3245 39.9201 11.6611 39.9626 11.7896 40.3531L13.4819 45.494C13.607 45.8739 13.9663 46.1311 14.3718 46.1311H19.8885C20.3057 46.1311 20.4504 46.4339 20.4933 46.5641C20.5358 46.6943 20.5992 47.0231 20.2614 47.2642Z" fill="#CE1525"/>
<path d="M27.3187 21.1971C27.1399 20.7198 26.6021 20.4754 26.1174 20.6517C25.6327 20.8278 25.3848 21.3575 25.5636 21.8348C26.7623 25.0349 25.9552 28.6604 23.5073 31.0712C20.8047 33.7329 16.4073 33.7329 13.7047 31.0712C12.6926 30.0745 12.1353 28.7493 12.1353 27.3399C12.1353 25.9304 12.6926 24.6052 13.7047 23.6085C14.4789 22.8459 15.5084 22.426 16.6034 22.426C17.6984 22.426 18.7278 22.846 19.5021 23.6086C20.7079 24.796 20.7079 26.7282 19.5022 27.9156C18.6105 28.7938 17.1597 28.7937 16.268 27.9156C15.9026 27.5559 15.3105 27.5559 14.9451 27.9156C14.5798 28.2753 14.5798 28.8586 14.9451 29.2185C16.5661 30.8149 19.2037 30.815 20.8249 29.2185C22.76 27.3126 22.76 24.2116 20.8249 22.3057C19.6972 21.1952 18.1979 20.5836 16.6033 20.5836C15.0086 20.5836 13.5094 21.1952 12.3817 22.3057C11.0163 23.6504 10.2644 25.4382 10.2644 27.3399C10.2644 29.2415 11.0163 31.0294 12.3817 32.374C14.0979 34.0642 16.3515 34.9093 18.6059 34.909C20.8596 34.9088 23.1141 34.0638 24.83 32.374C27.7925 29.4566 28.7693 25.0694 27.3187 21.1971Z" fill="#CE1525"/>
<path d="M37.9157 49.8999C35.9559 49.8999 34.3613 51.4703 34.3613 53.4005C34.3613 55.3306 35.9559 56.901 37.9157 56.901C39.8756 56.901 41.4701 55.3306 41.4701 53.4005C41.4701 51.4703 39.8757 49.8999 37.9157 49.8999ZM37.9157 55.0586C36.9874 55.0586 36.2321 54.3147 36.2321 53.4005C36.2321 52.4862 36.9874 51.7423 37.9157 51.7423C38.8441 51.7423 39.5994 52.4862 39.5994 53.4005C39.5994 54.3147 38.8441 55.0586 37.9157 55.0586Z" fill="#CE1525"/>
<path d="M44.9241 34.7921C43.287 34.7921 41.9551 36.1038 41.9551 37.7162C41.9551 39.3286 43.287 40.6403 44.9241 40.6403C46.5613 40.6403 47.8932 39.3286 47.8932 37.7162C47.8932 36.1038 46.5613 34.7921 44.9241 34.7921ZM44.9241 38.7979C44.3185 38.7979 43.8258 38.3127 43.8258 37.7162C43.8258 37.1197 44.3186 36.6345 44.9241 36.6345C45.5297 36.6345 46.0224 37.1198 46.0224 37.7162C46.0224 38.3127 45.5298 38.7979 44.9241 38.7979Z" fill="#CE1525"/>
<path d="M32.1788 31.1074C31.6623 31.1074 31.2434 31.5198 31.2434 32.0286V33.2569C31.2434 33.7657 31.6623 34.1781 32.1788 34.1781C32.6954 34.1781 33.1142 33.7657 33.1142 33.2569V32.0286C33.1142 31.5198 32.6954 31.1074 32.1788 31.1074Z" fill="#CE1525"/>
<path d="M32.1788 37.2488C31.6623 37.2488 31.2434 37.6612 31.2434 38.17V39.3982C31.2434 39.907 31.6623 40.3194 32.1788 40.3194C32.6954 40.3194 33.1142 39.907 33.1142 39.3982V38.17C33.1142 37.6612 32.6954 37.2488 32.1788 37.2488Z" fill="#CE1525"/>
<path d="M35.9203 36.6345C36.4369 36.6345 36.8557 36.2221 36.8557 35.7133C36.8557 35.2045 36.4369 34.7921 35.9203 34.7921H34.6732C34.1566 34.7921 33.7378 35.2045 33.7378 35.7133C33.7378 36.2221 34.1566 36.6345 34.6732 36.6345H35.9203Z" fill="#CE1525"/>
<path d="M27.502 35.7133C27.502 36.2221 27.9208 36.6345 28.4373 36.6345H29.6845C30.201 36.6345 30.6198 36.2221 30.6198 35.7133C30.6198 35.2045 30.201 34.7921 29.6845 34.7921H28.4373C27.9208 34.7921 27.502 35.2045 27.502 35.7133Z" fill="#CE1525"/>
<path d="M5.18197 29.0696C5.18197 28.2038 4.83963 27.3898 4.21789 26.7775C3.85253 26.4178 3.26044 26.4178 2.89499 26.7775C2.52973 27.1372 2.52973 27.7205 2.89499 28.0803C3.44892 28.6259 3.44892 29.5134 2.89499 30.059C2.27335 30.6712 1.93091 31.4852 1.93091 32.3511C1.93091 33.2169 2.27325 34.0309 2.89499 34.6432C3.07767 34.8231 3.31703 34.913 3.55639 34.913C3.79576 34.913 4.03512 34.8231 4.21779 34.6432C4.58306 34.2835 4.58306 33.7002 4.21779 33.3404C3.66387 32.7948 3.66387 31.9073 4.21779 31.3617C4.83963 30.7495 5.18197 29.9354 5.18197 29.0696Z" fill="#CE1525"/>
<path d="M31.5248 45.0469C29.6505 45.0469 28.1256 46.5487 28.1256 48.3946C28.1256 49.2247 27.4399 49.8999 26.597 49.8999C26.0805 49.8999 25.6616 50.3124 25.6616 50.8211C25.6616 51.3299 26.0805 51.7423 26.597 51.7423C28.4714 51.7423 29.9963 50.2405 29.9963 48.3946C29.9963 47.5645 30.6819 46.8893 31.5248 46.8893C32.0413 46.8893 32.4602 46.4769 32.4602 45.9681C32.4602 45.4593 32.0414 45.0469 31.5248 45.0469Z" fill="#CE1525"/>
<path d="M24.1683 18.9476C24.4144 18.9476 24.6556 18.8491 24.8296 18.6777C25.0036 18.5064 25.1037 18.2687 25.1037 18.0264C25.1037 17.7841 25.0037 17.5465 24.8296 17.3751C24.6556 17.2038 24.4152 17.1052 24.1683 17.1052C23.9223 17.1052 23.681 17.2038 23.5071 17.3751C23.3331 17.5465 23.2329 17.7841 23.2329 18.0264C23.2329 18.2687 23.333 18.5064 23.5071 18.6777C23.681 18.8491 23.9223 18.9476 24.1683 18.9476Z" fill="#CE1525"/>
</svg>
