<svg width="85" height="85" viewBox="0 0 85 85" fill="none" xmlns="http://www.w3.org/2000/svg">
<path d="M68.9809 74.0322L65.8071 64.5095C64.698 61.1849 61.8683 58.7309 58.419 58.103L49.2568 56.4359V55.7257C50.8512 54.8003 52.2386 53.5623 53.3436 52.0968H56.1116C58.3792 52.0968 60.2245 50.2514 60.2245 47.9839V31.5322C60.2245 21.7051 52.229 13.7097 42.4019 13.7097C32.5749 13.7097 24.5794 21.7051 24.5794 31.5322V41.129C24.5794 43.7722 26.459 45.9836 28.9514 46.4991C29.7205 50.4393 32.1828 53.7734 35.5471 55.7257V56.4359L26.3836 58.103C22.9356 58.7309 20.1045 61.1849 18.9968 64.5095L18.4484 66.156L13.7789 61.4865C13.2442 60.9518 13.2442 60.0813 13.7789 59.5466L19.1942 54.1326L9.02985 43.9683L2.90985 50.0883C1.09743 51.9007 0.0993652 54.3109 0.0993652 56.8746C0.0993652 59.4383 1.09743 61.8471 2.90985 63.6595L21.4385 82.1881C23.2509 84.0005 25.6611 85 28.2248 85C30.7885 85 33.1973 84.0005 34.9672 82.2293L41.6452 76.1106L39.5627 74.0322H68.9809ZM57.4826 47.9839C57.4826 48.7406 56.867 49.3548 56.1116 49.3548H54.9586C55.3562 48.4486 55.6578 47.493 55.8525 46.4991C56.4393 46.3771 56.9795 46.144 57.4826 45.8506V47.9839ZM56.1116 43.4898V38.7682C56.9274 39.2439 57.4826 40.1186 57.4826 41.129C57.4826 42.1394 56.9274 43.0141 56.1116 43.4898ZM28.6923 43.4898C27.8765 43.0141 27.3213 42.1394 27.3213 41.129C27.3213 40.1186 27.8765 39.2439 28.6923 38.7682V43.4898ZM28.6923 34.2742V35.8398C28.2042 35.9673 27.7463 36.1593 27.3213 36.4074V31.5322C27.3213 23.2173 34.087 16.4516 42.4019 16.4516C50.7169 16.4516 57.4826 23.2173 57.4826 31.5322V36.4074C57.0576 36.1593 56.5997 35.9659 56.1116 35.8398V34.2742H54.7407C50.6867 34.2742 46.8754 32.6948 44.0074 29.8281L42.4019 28.2227L40.7965 29.8281C37.9285 32.6948 34.1172 34.2742 30.0632 34.2742H28.6923ZM31.4342 43.8709V36.964C35.5512 36.6542 39.3899 34.9555 42.4019 32.0916C45.414 34.9555 49.2527 36.6555 53.3697 36.964V43.8709C53.3697 45.8698 52.8241 47.7398 51.8863 49.3548H42.4019V52.0968H49.6324C47.6994 53.7981 45.1727 54.8387 42.4019 54.8387C36.3546 54.8387 31.4342 49.9183 31.4342 43.8709ZM46.5149 56.9486V57.013L42.4019 61.1259L38.289 57.013V56.9486C39.5887 57.3572 40.9693 57.5806 42.4019 57.5806C43.8346 57.5806 45.2152 57.3572 46.5149 56.9486ZM21.5961 65.376C22.3872 63.0014 24.4094 61.248 26.873 60.7983L36.4561 59.0572L42.4019 65.003L48.3465 59.0585L57.9282 60.7997C60.3918 61.2493 62.414 63.0014 63.205 65.3773L65.1778 71.2903H36.8207L31.4808 65.9504L25.5473 71.3177C25.0304 71.8373 24.1269 71.8373 23.6087 71.3177L20.6145 68.3235L21.5961 65.376ZM9.02848 47.8454L15.3157 54.1326L13.8269 55.6215L7.53961 49.3343L9.02848 47.8454ZM33.0684 80.2523C31.7742 81.5438 30.0523 82.258 28.222 82.258C26.3918 82.258 24.6698 81.5438 23.3743 80.2496L4.84566 61.7223C3.55146 60.4281 2.83856 58.7062 2.83856 56.8759C2.83856 55.0443 3.55146 53.3224 4.84566 52.0282L5.59969 51.2742L11.8869 57.5614L11.8376 57.6108C10.2349 59.2148 10.2349 61.8238 11.8376 63.4278L21.6688 73.259C22.4461 74.035 23.4785 74.4641 24.578 74.4641C25.6775 74.4641 26.7099 74.0364 27.4365 73.307L27.5393 73.2151L33.8553 79.5312L33.0684 80.2523ZM35.8789 77.6749L29.5765 71.3726L31.3876 69.7356L37.679 76.027L35.8789 77.6749Z" fill="#362F4C"/>
<path d="M80.7891 0H61.5956C59.328 0 57.4827 1.84532 57.4827 4.1129V15.0806C57.4827 17.3482 59.328 19.1936 61.5956 19.1936H65.2574L63.8398 27.4619L77.0697 19.1936H80.7891C83.0567 19.1936 84.902 17.3482 84.902 15.0806V4.1129C84.902 1.84532 83.0567 0 80.7891 0ZM82.1601 15.0806C82.1601 15.8361 81.5445 16.4516 80.7891 16.4516H76.2827L67.5757 21.893L68.5094 16.4516H61.5956C60.8402 16.4516 60.2246 15.8361 60.2246 15.0806V4.1129C60.2246 3.3575 60.8402 2.74194 61.5956 2.74194H80.7891C81.5445 2.74194 82.1601 3.3575 82.1601 4.1129V15.0806Z" fill="#362F4C"/>
<path d="M79.4182 5.48383H62.9666V8.22576H79.4182V5.48383Z" fill="#362F4C"/>
<path d="M73.9343 10.9678H62.9666V13.7097H73.9343V10.9678Z" fill="#362F4C"/>
<path d="M79.4182 10.9678H76.6763V13.7097H79.4182V10.9678Z" fill="#362F4C"/>
<path d="M42.4021 4.11292C24.489 4.11292 9.05879 16.5037 5.04734 33.7875L2.44935 29.4566L0.0981445 30.8674L4.9171 38.8971L12.9469 34.0782L11.5361 31.7269L7.82081 33.9561C11.7061 18.1448 25.9244 6.85485 42.4021 6.85485C46.0036 6.85485 49.5572 7.38953 52.964 8.44517L53.7756 5.82662C50.1056 4.68872 46.2792 4.11292 42.4021 4.11292Z" fill="#362F4C"/>
<path d="M84.2357 30.3559L76.206 25.537L71.3884 33.5681L73.7396 34.9788L76.1388 30.9797C77.4014 34.6745 78.0472 38.5392 78.0472 42.5C78.0472 50.6531 75.223 58.6239 70.0969 64.9427L72.226 66.6701C77.7483 59.8647 80.7891 51.2796 80.7891 42.5C80.7891 38.3062 80.1132 34.2111 78.7957 30.2901L82.825 32.7071L84.2357 30.3559Z" fill="#362F4C"/>
</svg>
