<svg width="51" height="51" viewBox="0 0 51 51" fill="none" xmlns="http://www.w3.org/2000/svg">
<path d="M42.5 9.0049V4.25C42.497 1.904 40.596 0.002975 38.25 0H4.25C1.904 0.002975 0.002975 1.904 0 4.25V22.95C0.00658751 25.1207 1.65198 26.9361 3.8114 27.1562L7.00655 35.4503C7.8506 37.6403 10.3101 38.7313 12.5003 37.8883L32.453 30.2022C31.0743 33.8034 31.4666 37.8433 33.5117 41.1122L34 41.8931V50.15C34 50.6196 34.3804 51 34.85 51H50.15C50.6196 51 51 50.6196 51 50.15V22.0926C50.9919 19.153 49.8217 16.3366 47.7434 14.2577L42.5 9.0049ZM42.5 14.0883L45.0798 20.785C45.5853 22.0996 44.9301 23.5745 43.6158 24.0805L42.1413 24.65C42.3768 24.1141 42.4987 23.5348 42.5 22.95V14.0883ZM1.7 22.95V4.25C1.7 2.84197 2.84197 1.7 4.25 1.7H38.25C39.658 1.7 40.8 2.84197 40.8 4.25V9.6526H40.7926L40.8 9.67194V22.95C40.7934 23.0983 40.7741 23.2454 40.7422 23.3903L32.9562 15.6034C31.2061 13.8937 28.4159 13.8805 26.6501 15.5724C24.8838 17.2654 24.7777 20.0534 26.4112 21.8745L29.7304 25.5H4.25C2.84197 25.5 1.7 24.358 1.7 22.95ZM12.5893 27.2L6.545 29.5271L5.6508 27.2H12.5893ZM11.889 36.3016C10.5749 36.8082 9.09904 36.153 8.59265 34.839L7.1587 31.11L17.3052 27.2V27.1949H31.2885L32.3933 28.3994L11.889 36.3016ZM49.3 49.3H35.7V42.5H49.3V49.3ZM49.3 40.8H35.3218L34.9531 40.2109C32.8806 36.8989 32.7981 32.7156 34.7378 29.325C34.9214 29.0041 34.8764 28.6012 34.6264 28.3288L27.6609 20.7298C26.6222 19.5929 26.6807 17.8353 27.7927 16.7705C28.9051 15.7055 30.6635 15.7229 31.7541 16.8092L45.299 30.351L46.5009 29.149L43.3559 26.0041L44.2281 25.6641C46.4164 24.8198 47.5069 22.3624 46.665 20.1728L43.788 12.7022L46.5415 15.4615C48.301 17.2206 49.2932 19.6044 49.3 22.0926V40.8Z" fill="#362F4C"/>
<path d="M9.6899 11.8999C10.9105 11.8999 11.8999 10.9105 11.8999 9.6899V5.6099C11.8999 4.3893 10.9105 3.3999 9.6899 3.3999H5.6099C4.3893 3.3999 3.3999 4.3893 3.3999 5.6099V9.6899C3.3999 10.9105 4.3893 11.8999 5.6099 11.8999H9.6899ZM5.0999 9.6899V8.4999H6.7999V6.7999H5.0999V5.6099C5.0999 5.32834 5.32834 5.0999 5.6099 5.0999H9.6899C9.97147 5.0999 10.1999 5.32834 10.1999 5.6099V6.7999H8.4999V8.4999H10.1999V9.6899C10.1999 9.97147 9.97147 10.1999 9.6899 10.1999H5.6099C5.32834 10.1999 5.0999 9.97147 5.0999 9.6899Z" fill="#362F4C"/>
<path d="M4.25 14.45H7.65V16.15H4.25V14.45Z" fill="#362F4C"/>
<path d="M4.25 19.55H7.65V21.25H4.25V19.55Z" fill="#362F4C"/>
<path d="M19.55 19.55H22.95V21.25H19.55V19.55Z" fill="#362F4C"/>
<path d="M9.3501 14.45H12.7501V16.15H9.3501V14.45Z" fill="#362F4C"/>
<path d="M14.45 14.45H17.85V16.15H14.45V14.45Z" fill="#362F4C"/>
<path d="M19.55 14.45H22.95V16.15H19.55V14.45Z" fill="#362F4C"/>
<path d="M35.7 4.25H37.3999V6.8H35.7V4.25Z" fill="#362F4C"/>
<path d="M32.3 4.25H34.0001V6.8H32.3V4.25Z" fill="#362F4C"/>
<path d="M28.8999 4.25H30.5999V6.8H28.8999V4.25Z" fill="#362F4C"/>
<path d="M25.5 4.25H27.2V6.8H25.5V4.25Z" fill="#362F4C"/>
<path d="M37.3999 44.2H39.0999V45.8999H37.3999V44.2Z" fill="#362F4C"/>
</svg>
