<svg width="55" height="55" viewBox="0 0 55 55" fill="none" xmlns="http://www.w3.org/2000/svg">
<g clip-path="url(#clip0)">
<path d="M47.881 39.8614C48.7506 38.8585 49.2294 37.5739 49.2294 36.2443C49.2294 33.1963 46.75 30.7166 43.7024 30.7166C42.0976 30.7166 40.5746 31.4128 39.5235 32.6267C38.6541 33.6303 38.1753 34.915 38.1753 36.2443C38.1753 39.2919 40.6547 41.7713 43.7024 41.7713C45.3074 41.7712 46.8305 41.075 47.881 39.8614ZM39.7879 36.2443C39.7879 35.3028 40.1268 34.393 40.7425 33.6826C40.7425 33.6825 40.7426 33.6824 40.7427 33.6824C41.4871 32.8223 42.5659 32.3292 43.7024 32.3292C45.8609 32.3292 47.6169 34.0855 47.6169 36.2444C47.6169 37.1859 47.2781 38.0955 46.6622 38.8057C45.9177 39.6658 44.8389 40.1589 43.7024 40.1589C41.5439 40.1587 39.7879 38.4027 39.7879 36.2443Z" fill="#BC2A40"/>
<path d="M51.1504 28.8543C49.2226 26.9111 46.6674 25.8056 43.9555 25.7418C41.0989 25.6745 38.4034 26.7351 36.3628 28.7282C34.3217 30.7219 33.1975 33.391 33.1975 36.2439C33.1975 37.6087 33.4576 38.9396 33.9705 40.1997C34.1383 40.6121 34.6088 40.8103 35.0212 40.6425C35.4336 40.4746 35.6319 40.0042 35.464 39.5918C35.03 38.5257 34.8101 37.3993 34.8101 36.2439C34.8101 33.8289 35.7617 31.5695 37.4896 29.8818C39.2169 28.1948 41.5006 27.296 43.9175 27.354C46.2107 27.4079 48.3729 28.3442 50.0056 29.9901C51.6383 31.6359 52.5574 33.8057 52.5938 36.0996C52.6251 38.0783 52.0199 39.9605 50.838 41.5505L46.4536 47.5961C45.6636 48.6856 45.1189 49.9049 44.8347 51.22L44.5066 52.7386C44.4252 53.1146 44.0872 53.3872 43.7026 53.3872C43.318 53.3872 42.98 53.1144 42.8988 52.7385L42.5705 51.22C42.2863 49.9048 41.7415 48.6855 40.9514 47.596L37.1633 42.3726C36.902 42.0122 36.3978 41.9319 36.0372 42.1933C35.6768 42.4548 35.5965 42.9588 35.8579 43.3194L39.646 48.5427C40.304 49.45 40.7576 50.4654 40.9943 51.5607L41.3225 53.0793C41.5629 54.1923 42.5638 54.9998 43.7024 54.9998C44.841 54.9998 45.8419 54.192 46.0823 53.0793L46.4106 51.5606C46.6473 50.4655 47.1008 49.4501 47.7588 48.5427L52.1375 42.5048C53.5277 40.6346 54.2429 38.4109 54.2059 36.0739C54.1631 33.3613 53.078 30.7974 51.1504 28.8543Z" fill="#BC2A40"/>
<path d="M9.36413 13.206C10.6957 13.206 11.9597 12.6282 12.8312 11.6214C13.5527 10.7891 13.9502 9.72326 13.9502 8.61993C13.9502 7.95048 13.8081 7.30369 13.5277 6.6974C13.3408 6.29317 12.8616 6.117 12.4576 6.30392C12.0533 6.49072 11.8773 6.96993 12.0641 7.37405C12.2455 7.76668 12.3377 8.18595 12.3377 8.61993C12.3377 9.33515 12.0802 10.026 11.6124 10.5654C11.0469 11.2187 10.2275 11.5935 9.36413 11.5935C7.72455 11.5935 6.39069 10.2596 6.39069 8.62004C6.39069 7.90493 6.64818 7.21378 7.11601 6.67398C7.68147 6.02075 8.50089 5.64596 9.36424 5.64596C9.51656 5.64596 9.66942 5.65756 9.81874 5.68033C10.259 5.74801 10.6703 5.44551 10.7376 5.00529C10.805 4.56519 10.5028 4.15365 10.0626 4.08641C9.83281 4.05128 9.59788 4.03345 9.36413 4.03345C8.03253 4.03345 6.7686 4.61127 5.89687 5.61835C5.17543 6.45108 4.77808 7.51714 4.77808 8.62004C4.77818 11.1486 6.83542 13.206 9.36413 13.206Z" fill="#BC2A40"/>
<path d="M5.98633 18.5615C6.50002 19.2698 6.85408 20.0623 7.03885 20.9174L7.3016 22.1334C7.51 23.098 8.37743 23.7979 9.36432 23.7979C10.3512 23.7979 11.2186 23.0978 11.427 22.1334L11.6898 20.9175C11.8746 20.0623 12.2287 19.2698 12.7423 18.5616L16.2472 13.7287C17.3815 12.2029 17.9652 10.3883 17.935 8.48138C17.9 6.26785 17.0146 4.17559 15.4418 2.59026C13.8687 1.00471 11.7838 0.102799 9.57067 0.0505917C7.24005 -0.00473056 5.04048 0.861197 3.37533 2.48746C1.70986 4.11415 0.79248 6.29202 0.79248 8.61985C0.79248 10.4759 1.37653 12.2425 2.47589 13.7211L5.98633 18.5615ZM4.50208 3.64095C5.81349 2.36005 7.53374 1.66063 9.36314 1.66063C9.41932 1.66063 9.47614 1.66128 9.53254 1.66267C11.3269 1.70489 13.0189 2.43761 14.2968 3.72582C15.5747 5.01402 16.2941 6.71182 16.3225 8.50684C16.347 10.0554 15.8733 11.5284 14.9474 12.7743L11.4369 17.6147C10.7913 18.505 10.346 19.5016 10.1137 20.5767L9.85094 21.7926C9.80174 22.0202 9.5971 22.1853 9.36442 22.1853C9.13175 22.1853 8.927 22.0202 8.87791 21.7927L8.61516 20.5768C8.3828 19.5018 7.93765 18.5052 7.29183 17.6148L3.7758 12.7667C2.87926 11.5606 2.40531 10.1267 2.40531 8.61985C2.40499 6.72998 3.14985 4.96171 4.50208 3.64095Z" fill="#BC2A40"/>
<path d="M46.3383 9.23428C46.038 9.56299 46.061 10.073 46.3897 10.3734C46.5444 10.5147 46.739 10.5844 46.9333 10.5844C47.1518 10.5844 47.3698 10.4959 47.5288 10.3219L47.5428 10.3069C47.5622 10.2859 47.5815 10.2649 47.5993 10.2443C48.2104 9.53946 48.5469 8.6368 48.5469 7.70255C48.5469 5.56099 46.8048 3.8186 44.6634 3.8186C43.5449 3.8186 42.4803 4.30157 41.7425 5.14376C41.4491 5.4787 41.4828 5.9881 41.8177 6.28146C42.1526 6.57494 42.662 6.54132 42.9555 6.20627C43.3871 5.71363 44.0096 5.43101 44.6635 5.43101C45.9157 5.43101 46.9345 6.45001 46.9345 7.70244C46.9345 8.24868 46.7379 8.77612 46.3801 9.18894L46.3383 9.23428Z" fill="#BC2A40"/>
<path d="M38.5895 4.33958C38.9511 4.59943 39.455 4.51672 39.7148 4.15514C40.8917 2.51663 42.797 1.56487 44.8106 1.61418C46.3808 1.65113 47.8614 2.29244 48.9799 3.41973C50.0983 4.54712 50.7279 6.03298 50.7527 7.60359C50.774 8.95872 50.3596 10.2479 49.5486 11.3392L48.7151 12.4885C48.4536 12.8489 48.534 13.353 48.8944 13.6145C49.0374 13.7183 49.2029 13.7681 49.3669 13.7681C49.6165 13.7681 49.8626 13.6525 50.0203 13.4351L50.8482 12.2934C51.8675 10.9222 52.392 9.29162 52.3649 7.57803C52.3335 5.58879 51.5377 3.70858 50.1246 2.28406C48.7111 0.859433 46.8375 0.0489349 44.8485 0.00209899C42.3015 -0.0571979 39.893 1.14292 38.4051 3.21444C38.3339 3.31359 38.1224 3.81869 38.4613 4.22464C38.4992 4.26653 38.5417 4.30531 38.5895 4.33958Z" fill="#BC2A40"/>
<path d="M37.2712 48.2821C37.2724 48.0587 37.1821 47.836 37.0023 47.6757C36.67 47.3793 36.1602 47.4086 35.864 47.7409C35.3519 48.3152 34.8181 48.8416 34.2756 49.3084C33.1378 49.702 31.9742 50.0017 30.7892 50.2088C31.6884 48.2741 32.4597 45.6138 33.0489 42.3926C33.1291 41.9547 32.8389 41.5346 32.4009 41.4545C31.9635 41.3744 31.5429 41.6644 31.4628 42.1025C30.7987 45.7329 29.8754 48.6768 28.8456 50.463C28.1726 50.5217 27.4939 50.5525 26.8096 50.5525C26.1228 50.5525 25.4437 50.5204 24.7722 50.4607C23.5845 48.4058 22.6035 44.9686 21.9358 40.7638C23.5316 40.8934 25.1615 40.9604 26.8096 40.9604C28.3359 40.9604 29.8769 40.9026 31.3895 40.7886C31.8335 40.7551 32.1664 40.368 32.133 39.9241C32.0995 39.48 31.7116 39.1479 31.2685 39.1806C29.796 39.2916 28.2959 39.3478 26.8096 39.3478C25.076 39.3478 23.3654 39.2716 21.6967 39.126C21.2616 35.8689 21.0062 32.2324 20.9742 28.4673H34.0492C34.4944 28.4673 34.8555 28.1064 34.8555 27.661C34.8555 27.288 34.6019 26.9751 34.258 26.883C34.2288 23.16 33.9906 19.5904 33.5774 16.3653C36.2684 16.6808 38.8264 17.1819 41.1634 17.8476C41.6595 19.6356 42.0219 21.5122 42.2337 23.4255C42.2793 23.8379 42.6285 24.143 43.0341 24.143C43.0636 24.143 43.0936 24.1414 43.1237 24.1381C43.5663 24.0891 43.8854 23.6906 43.8364 23.248C43.6542 21.6016 43.3646 19.9799 42.978 18.4126C45.169 19.1568 47.1188 20.0567 48.7428 21.0919C49.1479 22.4463 49.429 23.8438 49.5769 25.2687C49.6199 25.6834 49.97 25.9918 50.3778 25.9918C50.4057 25.9918 50.4338 25.9904 50.4622 25.9874C50.9051 25.9414 51.2268 25.5451 51.1809 25.1022C50.5588 19.1096 47.7479 13.5705 43.2663 9.50551C38.7526 5.41166 32.9083 3.15698 26.8097 3.15698C24.3217 3.15698 21.8666 3.52888 19.5126 4.26225C19.0875 4.3947 18.8502 4.84673 18.9826 5.2719C19.1151 5.69697 19.5668 5.93395 19.9923 5.80192C20.9228 5.51199 21.8705 5.28329 22.8304 5.11507C21.7613 7.41862 20.8795 10.7362 20.2718 14.7161C19.3534 14.8168 18.4444 14.9363 17.55 15.0796C17.1104 15.1501 16.8111 15.5637 16.8816 16.0034C16.952 16.4431 17.3656 16.7419 17.8053 16.6718C18.5414 16.5538 19.2871 16.451 20.0404 16.3628C19.9115 17.3691 19.7992 18.4113 19.7052 19.4848C19.6664 19.9283 19.9944 20.3196 20.438 20.3583C20.4619 20.3605 20.4857 20.3615 20.5093 20.3615C20.9228 20.3615 21.2748 20.0452 21.3115 19.6255C21.4151 18.4443 21.5426 17.2989 21.6906 16.1967C23.3691 16.0505 25.0795 15.9741 26.8097 15.9741C28.5433 15.9741 30.2539 16.0504 31.9226 16.196C32.3577 19.4531 32.6131 23.0895 32.6451 26.8547H20.9754C20.986 25.5705 21.0206 24.2874 21.0815 23.03C21.103 22.5852 20.76 22.2072 20.3153 22.1857C19.8686 22.1654 19.4924 22.5073 19.471 22.9519C19.4089 24.2352 19.3736 25.5443 19.363 26.8546H11.1625C11.1678 26.6205 11.175 26.3805 11.1848 26.13C11.2022 25.6851 10.8556 25.3103 10.4107 25.2928C9.96777 25.2736 9.59083 25.6218 9.57343 26.0668C9.56279 26.3392 9.55484 26.6003 9.54936 26.8545H3.93303C4.00726 24.721 4.37496 22.6196 5.03077 20.5967C5.16806 20.1731 4.93592 19.7184 4.51235 19.5811C4.08868 19.4439 3.63407 19.676 3.49679 20.0996C2.70659 22.5377 2.30591 25.0816 2.30591 27.6608C2.30591 34.206 4.85471 40.3594 9.48287 44.9877C14.1111 49.6159 20.2645 52.1647 26.8098 52.1647C30.5071 52.1647 34.0613 51.3609 37.3737 49.7759C37.7753 49.5838 37.9452 49.1023 37.753 48.7007C37.6531 48.4927 37.4752 48.3474 37.2712 48.2821ZM33.3465 14.7183C32.7449 10.7746 31.8696 7.44301 30.7905 5.11829C31.98 5.32744 33.1474 5.63005 34.2829 6.02182C36.294 7.75475 38.0732 10.2027 39.4333 13.1147C39.8664 14.042 40.2569 15.0182 40.6028 16.0312C38.335 15.4428 35.8937 14.9994 33.3465 14.7183ZM47.9008 18.7505C46.289 17.9092 44.4605 17.1736 42.4662 16.558C42.0249 15.113 41.4995 13.7282 40.8943 12.4323C40.0846 10.6986 39.1301 9.1161 38.0677 7.72789C39.5334 8.55676 40.9147 9.5502 42.1827 10.7004C44.677 12.9626 46.6169 15.7131 47.9008 18.7505ZM26.8096 14.3619C25.1637 14.3619 23.534 14.4283 21.9315 14.5573C22.6091 10.3225 23.6069 6.88194 24.7741 4.86005C25.4489 4.80064 26.1278 4.76981 26.8096 4.76981C27.4926 4.76981 28.172 4.80086 28.8465 4.8608C30.0345 6.91589 31.0157 10.3536 31.6835 14.5592C30.0876 14.4296 28.4579 14.3619 26.8096 14.3619ZM22.8292 50.2055C21.6294 49.9943 20.4618 49.6887 19.3337 49.2979C16.6009 46.9435 14.4308 43.4407 13.0143 39.2921C15.2825 39.8804 17.7251 40.3231 20.2726 40.6042C20.8744 44.5487 21.75 47.8806 22.8292 50.2055ZM20.0418 38.957C17.3492 38.6414 14.7898 38.1399 12.4518 37.4737C11.6749 34.6671 11.2271 31.6195 11.1617 28.4675H19.3615C19.3918 32.1803 19.6297 35.7401 20.0418 38.957ZM3.93399 28.4675H9.54915C9.60791 31.3954 9.9855 34.2432 10.6436 36.9104C8.45377 36.1669 6.50492 35.2676 4.88113 34.2334C4.32995 32.3969 4.0035 30.4645 3.93399 28.4675ZM5.72568 36.5761C7.33615 37.416 9.16415 38.1497 11.1562 38.7643C12.1833 42.1233 13.6711 45.1343 15.5338 47.5766C11.1728 45.0979 7.70053 41.2291 5.72568 36.5761Z" fill="#BC2A40"/>
</g>
<defs>
<clipPath id="clip0">
<rect width="55" height="55" fill="white"/>
</clipPath>
</defs>
</svg>
