<svg width="55" height="55" viewBox="0 0 55 55" fill="none" xmlns="http://www.w3.org/2000/svg">
<path d="M4.17578 16.0286H12.6726C13.1176 16.0286 13.4783 15.6679 13.4783 15.2229C13.4783 14.7779 13.1176 14.4172 12.6726 14.4172H4.17578C3.73084 14.4172 3.37012 14.7779 3.37012 15.2229C3.37012 15.6679 3.73073 16.0286 4.17578 16.0286Z" fill="#362F4C"/>
<path d="M12.3814 19.9072H9.0249C8.57996 19.9072 8.21924 20.2678 8.21924 20.7129C8.21924 21.1579 8.57996 21.5186 9.0249 21.5186H12.3814C12.8264 21.5186 13.1871 21.1579 13.1871 20.7129C13.1871 20.2678 12.8264 19.9072 12.3814 19.9072Z" fill="#362F4C"/>
<path d="M0.805664 25.4941H9.02473C9.46967 25.4941 9.83039 25.1335 9.83039 24.6885C9.83039 24.2434 9.46967 23.8828 9.02473 23.8828H0.805664C0.360723 23.8828 0 24.2434 0 24.6885C0 25.1335 0.360723 25.4941 0.805664 25.4941Z" fill="#362F4C"/>
<path d="M13.4783 39.7771C13.4783 39.3321 13.1176 38.9714 12.6726 38.9714H4.17578C3.73084 38.9714 3.37012 39.3321 3.37012 39.7771C3.37012 40.2221 3.73084 40.5828 4.17578 40.5828H12.6726C13.1176 40.5828 13.4783 40.2221 13.4783 39.7771Z" fill="#362F4C"/>
<path d="M12.3814 33.4817H9.0249C8.57996 33.4817 8.21924 33.8423 8.21924 34.2874C8.21924 34.7324 8.57996 35.093 9.0249 35.093H12.3814C12.8264 35.093 13.1871 34.7324 13.1871 34.2874C13.1871 33.8423 12.8264 33.4817 12.3814 33.4817Z" fill="#362F4C"/>
<path d="M9.83039 30.3115C9.83039 29.8665 9.46967 29.5059 9.02473 29.5059H0.805664C0.360723 29.5059 0 29.8665 0 30.3115C0 30.7566 0.360723 31.1172 0.805664 31.1172H9.02473C9.46967 31.1172 9.83039 30.7566 9.83039 30.3115Z" fill="#362F4C"/>
<path d="M34.3242 17.8138C34.7693 17.8138 35.1299 17.4531 35.1299 17.0081V15.7783C35.1299 15.3333 34.7693 14.9727 34.3242 14.9727C33.8792 14.9727 33.5186 15.3333 33.5186 15.7783V17.0081C33.5186 17.4531 33.8792 17.8138 34.3242 17.8138Z" fill="#362F4C"/>
<path d="M43.1827 18.6419C42.868 18.3274 42.3579 18.3274 42.0433 18.6419L41.1737 19.5115C40.8591 19.8262 40.8591 20.3363 41.1737 20.6509C41.4886 20.9655 41.9985 20.9654 42.3132 20.6509L43.1827 19.7813C43.4973 19.4667 43.4973 18.9567 43.1827 18.6419Z" fill="#362F4C"/>
<path d="M44.8162 26.6943C44.3711 26.6943 44.0105 27.055 44.0105 27.5C44.0105 27.945 44.3711 28.3057 44.8162 28.3057H46.0458C46.4909 28.3057 46.8515 27.945 46.8515 27.5C46.8515 27.055 46.4909 26.6943 46.0458 26.6943H44.8162Z" fill="#362F4C"/>
<path d="M42.3131 34.3492C41.9984 34.0346 41.4884 34.0346 41.1737 34.3492C40.8591 34.6639 40.8591 35.174 41.1737 35.4886L42.0433 36.3582C42.3582 36.6728 42.8681 36.6727 43.1827 36.3582C43.4974 36.0434 43.4974 35.5334 43.1827 35.2188L42.3131 34.3492Z" fill="#362F4C"/>
<path d="M33.5186 37.9919V39.2216C33.5186 39.6666 33.8792 40.0273 34.3242 40.0273C34.7693 40.0273 35.1299 39.6666 35.1299 39.2216V37.9919C35.1299 37.5469 34.7693 37.1863 34.3242 37.1863C33.8792 37.1863 33.5186 37.547 33.5186 37.9919Z" fill="#362F4C"/>
<path d="M26.3358 34.3492L25.4662 35.2188C25.1516 35.5335 25.1516 36.0435 25.4662 36.3582C25.7809 36.6728 26.291 36.6727 26.6055 36.3582L27.4751 35.4886C27.7897 35.1739 27.7897 34.6638 27.4751 34.3492C27.1606 34.0346 26.6504 34.0346 26.3358 34.3492Z" fill="#362F4C"/>
<path d="M22.6028 26.6943C22.1578 26.6943 21.7971 27.055 21.7971 27.5C21.7971 27.945 22.1578 28.3057 22.6028 28.3057H23.8325C24.2775 28.3057 24.6382 27.945 24.6382 27.5C24.6382 27.055 24.2775 26.6943 23.8325 26.6943H22.6028Z" fill="#362F4C"/>
<path d="M27.4753 19.5115L26.6058 18.6419C26.2911 18.3274 25.781 18.3274 25.4664 18.6419C25.1518 18.9567 25.1518 19.4667 25.4664 19.7813L26.336 20.6509C26.6508 20.9655 27.1608 20.9654 27.4753 20.6509C27.79 20.3363 27.79 19.8262 27.4753 19.5115Z" fill="#362F4C"/>
<path d="M38.6565 27.5C38.6565 27.0549 38.2959 26.6943 37.8509 26.6943H35.1299V20.7126C35.1299 20.2676 34.7693 19.907 34.3242 19.907C33.8792 19.907 33.5186 20.2676 33.5186 20.7126V27.5C33.5186 27.945 33.8792 28.3056 34.3242 28.3056H37.8509C38.2958 28.3056 38.6565 27.945 38.6565 27.5Z" fill="#362F4C"/>
<path d="M49.601 27.367C50.0452 27.3401 50.3834 26.9582 50.3564 26.5141C49.8439 18.0597 42.8018 11.437 34.3242 11.437C25.4671 11.437 18.2612 18.6429 18.2612 27.5001C18.2612 36.3573 25.4671 43.5631 34.3242 43.5631C42.2594 43.5631 49.0303 37.7492 50.2082 29.9037C50.2742 29.4637 49.9711 29.0534 49.531 28.9874C49.0921 28.9215 48.6807 29.2244 48.6147 29.6646C47.5566 36.7129 41.4705 41.9519 34.3242 41.9519C26.3556 41.9519 19.8726 35.4689 19.8726 27.5002C19.8726 19.5316 26.3556 13.0484 34.3242 13.0484C41.9513 13.0484 48.2869 19.0062 48.748 26.6119C48.7748 27.0557 49.1564 27.3928 49.601 27.367Z" fill="#362F4C"/>
<path d="M34.3244 6.82446C31.4905 6.82446 28.714 7.41238 26.1584 8.51185H11.9434C11.4984 8.51185 11.1377 8.87246 11.1377 9.31751C11.1377 9.76256 11.4984 10.1232 11.9434 10.1232H23.1274C21.6152 11.0964 20.2231 12.2703 18.9957 13.6256C18.6971 13.9552 18.7222 14.4647 19.052 14.7635C19.3819 15.0622 19.8912 15.037 20.19 14.7072C23.7996 10.7216 28.9515 8.43579 34.3244 8.43579C44.8365 8.43579 53.3888 16.988 53.3888 27.5001C53.3888 38.012 44.8366 46.5643 34.3244 46.5643C23.8123 46.5643 15.2601 38.0122 15.2601 27.5001C15.2601 23.8189 16.3117 20.2461 18.3009 17.1676C18.5424 16.7939 18.4352 16.2952 18.0615 16.0537C17.6877 15.8123 17.1891 15.9193 16.9475 16.2932C14.7894 19.6327 13.6488 23.5079 13.6488 27.5001C13.6488 34.7796 17.4307 41.1918 23.1325 44.8769H11.9435C11.4985 44.8769 11.1378 45.2376 11.1378 45.6826C11.1378 46.1277 11.4985 46.4883 11.9435 46.4883H26.1473C28.6567 47.5731 31.4214 48.1757 34.3245 48.1757C45.725 48.1757 55.0001 38.9006 55.0001 27.5001C55.0001 16.0995 45.725 6.82446 34.3244 6.82446Z" fill="#362F4C"/>
</svg>
