<svg width="52" height="52" viewBox="0 0 52 52" fill="none" xmlns="http://www.w3.org/2000/svg">
<g clip-path="url(#clip0)">
<path d="M3.948 21.702H11.9814C12.4021 21.702 12.7431 21.3611 12.7431 20.9403C12.7431 20.5195 12.4021 20.1786 11.9814 20.1786H3.948C3.52733 20.1786 3.18628 20.5195 3.18628 20.9403C3.18628 21.3611 3.52722 21.702 3.948 21.702Z" fill="#BC2A40"/>
<path d="M11.7059 25.369H8.53247C8.1118 25.369 7.77075 25.71 7.77075 26.1307C7.77075 26.5515 8.1118 26.8925 8.53247 26.8925H11.7059C12.1266 26.8925 12.4676 26.5515 12.4676 26.1307C12.4676 25.71 12.1266 25.369 11.7059 25.369Z" fill="#BC2A40"/>
<path d="M0.761719 30.6514H8.53247C8.95314 30.6514 9.29419 30.3104 9.29419 29.8896C9.29419 29.4689 8.95314 29.1279 8.53247 29.1279H0.761719C0.341047 29.1279 0 29.4689 0 29.8896C0 30.3104 0.341047 30.6514 0.761719 30.6514Z" fill="#BC2A40"/>
<path d="M12.7431 44.1553C12.7431 43.7345 12.4021 43.3936 11.9814 43.3936H3.948C3.52733 43.3936 3.18628 43.7345 3.18628 44.1553C3.18628 44.576 3.52733 44.917 3.948 44.917H11.9814C12.4021 44.917 12.7431 44.576 12.7431 44.1553Z" fill="#BC2A40"/>
<path d="M11.7059 38.2031H8.53247C8.1118 38.2031 7.77075 38.5441 7.77075 38.9648C7.77075 39.3856 8.1118 39.7266 8.53247 39.7266H11.7059C12.1266 39.7266 12.4676 39.3856 12.4676 38.9648C12.4676 38.5441 12.1266 38.2031 11.7059 38.2031Z" fill="#BC2A40"/>
<path d="M9.29419 35.2061C9.29419 34.7853 8.95314 34.4443 8.53247 34.4443H0.761719C0.341047 34.4443 0 34.7853 0 35.2061C0 35.6268 0.341047 35.9678 0.761719 35.9678H8.53247C8.95314 35.9678 9.29419 35.6268 9.29419 35.2061Z" fill="#BC2A40"/>
<path d="M32.4521 23.3899C32.8729 23.3899 33.2139 23.0489 33.2139 22.6281V21.4655C33.2139 21.0447 32.8729 20.7037 32.4521 20.7037C32.0314 20.7037 31.6904 21.0447 31.6904 21.4655V22.6281C31.6904 23.0489 32.0314 23.3899 32.4521 23.3899Z" fill="#BC2A40"/>
<path d="M40.8271 24.1727C40.5295 23.8754 40.0473 23.8754 39.7498 24.1727L38.9277 24.9949C38.6302 25.2925 38.6302 25.7747 38.9277 26.0722C39.2254 26.3696 39.7075 26.3695 40.005 26.0722L40.8271 25.25C41.1245 24.9525 41.1245 24.4703 40.8271 24.1727Z" fill="#BC2A40"/>
<path d="M42.3718 31.7861C41.9511 31.7861 41.6101 32.1271 41.6101 32.5479C41.6101 32.9686 41.9511 33.3096 42.3718 33.3096H43.5344C43.9552 33.3096 44.2961 32.9686 44.2961 32.5479C44.2961 32.1271 43.9552 31.7861 43.5344 31.7861H42.3718Z" fill="#BC2A40"/>
<path d="M40.005 39.0233C39.7074 38.7259 39.2252 38.7259 38.9277 39.0233C38.6302 39.3209 38.6302 39.8031 38.9277 40.1006L39.7498 40.9227C40.0475 41.2202 40.5296 41.2201 40.8271 40.9227C41.1246 40.6252 41.1246 40.143 40.8271 39.8455L40.005 39.0233Z" fill="#BC2A40"/>
<path d="M31.6904 42.4675V43.6301C31.6904 44.0509 32.0314 44.3918 32.4521 44.3918C32.8729 44.3918 33.2139 44.0509 33.2139 43.6301V42.4675C33.2139 42.0468 32.8729 41.7058 32.4521 41.7058C32.0314 41.7058 31.6904 42.0469 31.6904 42.4675Z" fill="#BC2A40"/>
<path d="M24.8993 39.0233L24.0771 39.8455C23.7796 40.1431 23.7796 40.6253 24.0771 40.9227C24.3747 41.2202 24.8569 41.2201 25.1543 40.9227L25.9764 40.1006C26.2739 39.803 26.2739 39.3208 25.9764 39.0233C25.6791 38.7259 25.1967 38.7259 24.8993 39.0233Z" fill="#BC2A40"/>
<path d="M21.3699 31.7861C20.9492 31.7861 20.6082 32.1271 20.6082 32.5479C20.6082 32.9686 20.9492 33.3096 21.3699 33.3096H22.5326C22.9532 33.3096 23.2943 32.9686 23.2943 32.5479C23.2943 32.1271 22.9532 31.7861 22.5326 31.7861H21.3699Z" fill="#BC2A40"/>
<path d="M25.9764 24.9949L25.1543 24.1727C24.8568 23.8754 24.3745 23.8754 24.0771 24.1727C23.7796 24.4703 23.7796 24.9525 24.0771 25.25L24.8993 26.0722C25.1968 26.3696 25.6791 26.3695 25.9764 26.0722C26.2739 25.7747 26.2739 25.2925 25.9764 24.9949Z" fill="#BC2A40"/>
<path d="M36.5482 32.5479C36.5482 32.1271 36.2072 31.7861 35.7864 31.7861H33.2139V26.1307C33.2139 25.71 32.8729 25.369 32.4521 25.369C32.0314 25.369 31.6904 25.71 31.6904 26.1307V32.5479C31.6904 32.9686 32.0314 33.3096 32.4521 33.3096H35.7864C36.2071 33.3096 36.5482 32.9686 36.5482 32.5479Z" fill="#BC2A40"/>
<path d="M46.8955 32.4221C47.3154 32.3966 47.6352 32.0355 47.6097 31.6157C47.1251 23.6224 40.4671 17.361 32.452 17.361C24.0779 17.361 17.2651 24.1738 17.2651 32.5479C17.2651 40.9219 24.0779 47.7347 32.452 47.7347C39.9543 47.7347 46.3559 42.238 47.4695 34.8204C47.532 34.4044 47.2454 34.0165 46.8293 33.954C46.4143 33.8918 46.0254 34.1781 45.9629 34.5943C44.9625 41.2582 39.2084 46.2114 32.452 46.2114C24.918 46.2114 18.7886 40.082 18.7886 32.548C18.7886 25.014 24.918 18.8845 32.452 18.8845C39.663 18.8845 45.6531 24.5173 46.089 31.7081C46.1144 32.1277 46.4751 32.4464 46.8955 32.4221Z" fill="#BC2A40"/>
<path d="M32.452 13C29.7727 13 27.1476 13.5559 24.7314 14.5953H11.2917C10.8711 14.5953 10.53 14.9363 10.53 15.3571C10.53 15.7778 10.8711 16.1188 11.2917 16.1188H21.8657C20.436 17.0389 19.1199 18.1488 17.9594 19.4301C17.6771 19.7418 17.7009 20.2235 18.0126 20.506C18.3245 20.7884 18.8061 20.7646 19.0886 20.4528C22.5013 16.6846 27.3721 14.5234 32.452 14.5234C42.3907 14.5234 50.4765 22.6091 50.4765 32.5478C50.4765 42.4864 42.3908 50.5722 32.452 50.5722C22.5133 50.5722 14.4276 42.4865 14.4276 32.5478C14.4276 29.0675 15.4218 25.6895 17.3025 22.7789C17.5308 22.4256 17.4295 21.9542 17.0761 21.7258C16.7228 21.4976 16.2514 21.5988 16.0229 21.9522C13.9825 25.1096 12.9042 28.7735 12.9042 32.5478C12.9042 39.4303 16.4798 45.4928 21.8706 48.9769H11.2918C10.8712 48.9769 10.5301 49.3178 10.5301 49.7386C10.5301 50.1594 10.8712 50.5003 11.2918 50.5003H24.721C27.0935 51.526 29.7074 52.0957 32.4521 52.0957C43.2307 52.0957 51.9999 43.3266 51.9999 32.5478C51.9999 21.7691 43.2307 13 32.452 13Z" fill="#BC2A40"/>
</g>
<defs>
<clipPath id="clip0">
<rect width="52" height="52" fill="white"/>
</clipPath>
</defs>
</svg>
