<svg width="57" height="57" viewBox="0 0 57 57" fill="none" xmlns="http://www.w3.org/2000/svg">
<path d="M42.75 18.7031C41.7676 18.7031 40.9688 17.9042 40.9688 16.9219H39.1875C39.1875 18.5767 40.3266 19.9598 41.8594 20.3579V22.2656H43.6406V20.4844H46.3125V16.9219C46.3125 14.9572 44.7147 13.3594 42.75 13.3594C41.7676 13.3594 40.9688 12.5605 40.9688 11.5781V9.79688H42.75C43.7324 9.79688 44.5312 10.5958 44.5312 11.5781H46.3125C46.3125 9.92334 45.1734 8.5402 43.6406 8.14209V6.23438H41.8594V8.01562H39.1875V11.5781C39.1875 13.5428 40.7853 15.1406 42.75 15.1406C43.7324 15.1406 44.5312 15.9395 44.5312 16.9219V18.7031H42.75Z" fill="#BC2A40"/>
<path d="M48.9844 13.3594H50.7656V15.1406H48.9844V13.3594Z" fill="#BC2A40"/>
<path d="M34.7344 13.3594H36.5156V15.1406H34.7344V13.3594Z" fill="#BC2A40"/>
<path d="M29.3906 27.6094V0.890625H28.5C13.2757 0.890625 0.890625 13.2765 0.890625 28.5C0.890625 43.7235 13.2757 56.1094 28.5 56.1094C43.7243 56.1094 56.1094 43.7235 56.1094 28.5V27.6094H29.3906ZM40.0585 29.3906C39.957 33.5089 39.167 37.1284 38.0306 40.242C35.6223 39.6622 32.7581 39.2605 29.3906 39.1991V29.3906H40.0585ZM27.6094 3.69609V16.0072C24.518 15.9466 21.864 15.5913 19.6356 15.0676C22.1098 9.28744 25.6616 5.48447 27.6094 3.69609ZM27.6094 17.8009V27.6094H16.9415C17.043 23.4911 17.833 19.8716 18.9694 16.758C21.3777 17.3378 24.2419 17.7395 27.6094 17.8009ZM27.6094 29.3906V39.1991C24.2419 39.2605 21.3777 39.6622 18.9694 40.242C17.8321 37.1275 17.043 33.5089 16.9415 29.3906H27.6094ZM27.6094 40.9928V53.3039C25.6616 51.5155 22.1098 47.7117 19.6356 41.9324C21.864 41.4087 24.518 41.0534 27.6094 40.9928ZM29.3906 53.3039V40.9928C32.482 41.0534 35.136 41.4087 37.3644 41.9324C34.8902 47.7126 31.3384 51.5155 29.3906 53.3039ZM25.9207 2.80636C23.7271 4.87884 20.2653 8.79314 17.857 14.5911C13.3629 13.2418 10.8968 11.3261 9.99548 10.5067C14.1262 6.25931 19.7015 3.42712 25.9207 2.80636ZM8.79136 11.8311C9.85833 12.8143 12.499 14.8565 17.206 16.2806C16.0508 19.5287 15.2573 23.3032 15.1593 27.6094H2.68702C2.89186 21.6075 5.15672 16.1221 8.79136 11.8311ZM15.1593 29.3906C15.2573 33.6959 16.0508 37.4713 17.206 40.7194C12.499 42.1435 9.85833 44.1857 8.79136 45.1689C5.15672 40.8779 2.89186 35.3925 2.68702 29.3906H15.1593ZM9.99548 46.4924C10.8959 45.6739 13.3629 43.7573 17.857 42.408C20.2662 48.206 23.7271 52.1203 25.9207 54.1927C19.7015 53.5729 14.1262 50.7407 9.99548 46.4924ZM31.0793 54.1936C33.2729 52.1212 36.7347 48.2069 39.143 42.4089C43.6371 43.7582 46.1032 45.6739 47.0045 46.4933C42.8738 50.7407 37.2985 53.5729 31.0793 54.1936ZM48.2086 45.1689C47.1417 44.1857 44.501 42.1435 39.794 40.7194C40.9492 37.4713 41.7427 33.6968 41.8407 29.3906H54.3139C54.1081 35.3925 51.8433 40.8779 48.2086 45.1689Z" fill="#BC2A40"/>
<path d="M42.75 25.8281C49.134 25.8281 54.3281 20.634 54.3281 14.25C54.3281 7.866 49.134 2.67188 42.75 2.67188C36.366 2.67188 31.1719 7.866 31.1719 14.25C31.1719 20.634 36.366 25.8281 42.75 25.8281ZM42.75 4.45312C48.1516 4.45312 52.5469 8.84836 52.5469 14.25C52.5469 19.6516 48.1516 24.0469 42.75 24.0469C37.3484 24.0469 32.9531 19.6516 32.9531 14.25C32.9531 8.84836 37.3484 4.45312 42.75 4.45312Z" fill="#BC2A40"/>
<path d="M50.7656 31.1719H52.5469V32.9531H50.7656V31.1719Z" fill="#BC2A40"/>
<path d="M47.2031 31.1719H48.9844V32.9531H47.2031V31.1719Z" fill="#BC2A40"/>
<path d="M43.6406 31.1719H45.4219V32.9531H43.6406V31.1719Z" fill="#BC2A40"/>
<path d="M11.5781 31.1719H13.3594V32.9531H11.5781V31.1719Z" fill="#BC2A40"/>
<path d="M8.01562 31.1719H9.79688V32.9531H8.01562V31.1719Z" fill="#BC2A40"/>
<path d="M4.45312 31.1719H6.23438V32.9531H4.45312V31.1719Z" fill="#BC2A40"/>
</svg>
