<svg width="1169" height="93" viewBox="0 0 1169 93" fill="none" xmlns="http://www.w3.org/2000/svg">
<g clip-path="url(#clip0)">
<path d="M26.6592 62.9539H29.6951H81.4566C82.7073 62.9539 83.8093 62.1557 84.1665 60.9912L95.3186 24.6157C95.5734 23.7846 95.409 22.8854 94.8755 22.1901C94.3418 21.4948 93.5015 21.0852 92.6089 21.0852H20.651L16.8462 8.67439C16.4892 7.51009 15.3871 6.71191 14.1363 6.71191H2.82749C1.26602 6.71173 0 7.9414 0 9.45844C0 10.9753 1.26602 12.2051 2.82749 12.2051H12.0283L15.815 24.5563C15.8266 24.5971 15.8387 24.6375 15.8521 24.6773L25.9113 57.4882C20.1695 57.8634 15.6152 62.518 15.6152 68.1893C15.6152 74.1049 20.5695 78.9177 26.659 78.9177H29.466C30.6927 83.0033 34.5802 85.998 39.1768 85.998C43.7732 85.998 47.6609 83.0034 48.8876 78.9177H63.8894C65.1161 83.0033 69.0037 85.998 73.6003 85.998C78.1967 85.998 82.0844 83.0034 83.3111 78.9177H86.9539C88.5154 78.9177 89.7814 77.6878 89.7814 76.171C89.7814 74.6541 88.5154 73.4243 86.9539 73.4243H83.3111C82.0844 69.3385 78.1969 66.3439 73.6003 66.3439C69.0037 66.3439 65.1159 69.3385 63.8894 73.4243H48.8876C47.6609 69.3385 43.7734 66.3439 39.1768 66.3439C34.5802 66.3439 30.6925 69.3385 29.466 73.4243H26.659C23.6874 73.4243 21.27 71.0758 21.27 68.1891C21.27 65.3024 23.6876 62.9539 26.6592 62.9539ZM68.1375 26.5782H88.8168L84.9248 39.2727H68.1375V26.5782ZM68.1373 44.7661H83.2404L79.3486 57.4607H68.1373V44.7661ZM47.2156 26.5782H62.4827V39.2727H47.2156V26.5782ZM47.2155 44.7661H62.4825V57.4607H47.2155V44.7661ZM41.561 57.4607H31.8032L27.9114 44.7661H41.561V57.4607ZM22.3355 26.5782H41.5609V39.2727H26.2273L22.3355 26.5782ZM73.6004 71.8372C76.0604 71.8372 78.0615 73.7812 78.0615 76.1708C78.0615 78.5604 76.0604 80.5044 73.6004 80.5044C71.1405 80.5044 69.1394 78.5604 69.1394 76.1708C69.1394 73.7812 71.1405 71.8372 73.6004 71.8372ZM39.177 71.8372C41.6369 71.8372 43.6381 73.7812 43.6381 76.1708C43.6381 78.5604 41.6369 80.5044 39.177 80.5044C36.7171 80.5044 34.7159 78.5604 34.7159 76.1708C34.7159 73.7812 36.7171 71.8372 39.177 71.8372Z" fill="#31304F"/>
</g>
<g clip-path="url(#clip1)">
<path d="M198.976 50.8403C198.641 50.1557 198.641 49.3705 198.976 48.686L202.078 42.3406C203.805 38.8075 202.437 34.5964 198.963 32.7533L192.724 29.4429C192.051 29.0859 191.589 28.4505 191.457 27.7002L190.237 20.7434C189.558 16.87 185.975 14.2672 182.082 14.818L175.089 15.8072C174.334 15.9138 173.587 15.6711 173.04 15.1414L167.964 10.2308C165.137 7.4964 160.709 7.49623 157.883 10.2308L152.807 15.1419C152.259 15.6718 151.513 15.914 150.758 15.8077L143.765 14.8185C139.87 14.2674 136.289 16.8705 135.609 20.7439L134.389 27.7004C134.257 28.4508 133.796 29.0861 133.123 29.4433L126.884 32.7536C123.41 34.5966 122.042 38.808 123.769 42.341L126.87 48.6863C127.205 49.371 127.205 50.1561 126.87 50.8406L123.769 57.1859C122.042 60.719 123.41 64.93 126.884 66.7731L133.123 70.0835C133.796 70.4405 134.257 71.076 134.389 71.8262L135.609 78.7831C136.228 82.3091 139.251 84.782 142.726 84.7817C143.069 84.7817 143.416 84.7576 143.765 84.7083L150.758 83.719C151.512 83.612 152.259 83.8552 152.807 84.3848L157.883 89.2955C159.297 90.6629 161.11 91.3464 162.923 91.3462C164.737 91.3461 166.551 90.6625 167.964 89.2955L173.04 84.3848C173.588 83.8552 174.334 83.6131 175.089 83.719L182.082 84.7083C185.977 85.2592 189.558 82.6562 190.237 78.7829L191.458 71.8264C191.589 71.076 192.051 70.4407 192.724 70.0835L198.963 66.7731C202.437 64.9302 203.805 60.7188 202.078 57.1857L198.976 50.8403ZM196.715 62.5358L190.476 65.8461C188.486 66.9018 187.122 68.7792 186.733 70.9973L185.513 77.954C185.283 79.2645 184.071 80.1447 182.754 79.9587L175.76 78.9695C173.53 78.6536 171.323 79.3714 169.705 80.9371L164.629 85.8476C163.672 86.7724 162.174 86.7724 161.218 85.8476L156.142 80.9369C154.774 79.6136 152.985 78.8964 151.118 78.8964C150.776 78.8964 150.431 78.9205 150.086 78.9694L143.093 79.9586C141.776 80.1447 140.564 79.2643 140.334 77.9538L139.113 70.997C138.724 68.7788 137.36 66.9013 135.371 65.846L129.132 62.5356C127.956 61.912 127.493 60.4873 128.078 59.292L131.179 52.9466C132.168 50.9233 132.168 48.6028 131.179 46.5796L128.078 40.2341C127.493 39.0388 127.956 37.6141 129.132 36.9905L135.371 33.6802C137.36 32.6245 138.724 30.7471 139.113 28.5289L140.333 21.5723C140.563 20.2618 141.775 19.3814 143.093 19.5676L150.086 20.5568C152.315 20.8724 154.523 20.1549 156.141 18.5892L161.218 13.6786C162.174 12.7537 163.672 12.7537 164.628 13.6786L169.705 18.5892C171.323 20.1551 173.53 20.8724 175.76 20.5568L182.753 19.5676C184.07 19.3812 185.283 20.2618 185.513 21.5723L186.733 28.5291C187.122 30.7473 188.486 32.6248 190.475 33.6802L196.714 36.9905C197.89 37.6141 198.353 39.0388 197.768 40.2341L194.667 46.5794C193.678 48.6025 193.678 50.9233 194.667 52.9464L197.768 59.2917C198.353 60.4873 197.89 61.9122 196.715 62.5358Z" fill="#31304F"/>
<path d="M180.447 32.2388C179.511 31.3022 177.992 31.3022 177.055 32.2388L145.399 63.8952C144.462 64.8318 144.462 66.3504 145.399 67.287C145.867 67.7553 146.481 67.9895 147.095 67.9895C147.708 67.9895 148.322 67.7555 148.791 67.287L180.447 35.6307C181.384 34.694 181.384 33.1756 180.447 32.2388Z" fill="#31304F"/>
<path d="M153.33 28.1782C148.481 28.1782 144.536 32.1232 144.536 36.9721C144.536 41.8211 148.481 45.7661 153.33 45.7661C158.179 45.7661 162.124 41.8211 162.124 36.9721C162.124 32.1232 158.179 28.1782 153.33 28.1782ZM153.33 40.9693C151.126 40.9693 149.333 39.1762 149.333 36.972C149.333 34.7679 151.126 32.9748 153.33 32.9748C155.534 32.9748 157.327 34.7679 157.327 36.972C157.327 39.1762 155.534 40.9693 153.33 40.9693Z" fill="#31304F"/>
<path d="M172.516 53.7603C167.667 53.7603 163.722 57.7053 163.722 62.5542C163.722 67.4031 167.667 71.3481 172.516 71.3481C177.365 71.3481 181.31 67.4031 181.31 62.5542C181.31 57.7053 177.365 53.7603 172.516 53.7603ZM172.516 66.5513C170.312 66.5513 168.519 64.7582 168.519 62.5542C168.519 60.3501 170.312 58.557 172.516 58.557C174.72 58.557 176.513 60.3501 176.513 62.5542C176.513 64.7582 174.72 66.5513 172.516 66.5513Z" fill="#31304F"/>
</g>
<g clip-path="url(#clip2)">
<path d="M352.505 62.9539H355.541H407.303C408.554 62.9539 409.656 62.1557 410.013 60.9912L421.165 24.6157C421.42 23.7846 421.255 22.8854 420.722 22.1901C420.188 21.4948 419.348 21.0852 418.455 21.0852H346.497L342.692 8.67439C342.335 7.51009 341.233 6.71191 339.983 6.71191H328.674C327.112 6.71173 325.846 7.9414 325.846 9.45844C325.846 10.9753 327.112 12.2051 328.674 12.2051H337.875L341.661 24.5563C341.673 24.5971 341.685 24.6375 341.698 24.6773L351.758 57.4882C346.016 57.8634 341.461 62.518 341.461 68.1893C341.461 74.1049 346.416 78.9177 352.505 78.9177H355.312C356.539 83.0033 360.426 85.998 365.023 85.998C369.619 85.998 373.507 83.0034 374.734 78.9177H389.736C390.962 83.0033 394.85 85.998 399.446 85.998C404.043 85.998 407.931 83.0034 409.157 78.9177H412.8C414.362 78.9177 415.628 77.6878 415.628 76.171C415.628 74.6541 414.362 73.4243 412.8 73.4243H409.157C407.931 69.3385 404.043 66.3439 399.446 66.3439C394.85 66.3439 390.962 69.3385 389.736 73.4243H374.734C373.507 69.3385 369.62 66.3439 365.023 66.3439C360.426 66.3439 356.539 69.3385 355.312 73.4243H352.505C349.534 73.4243 347.116 71.0758 347.116 68.1891C347.116 65.3024 349.534 62.9539 352.505 62.9539ZM393.984 26.5782H414.663L410.771 39.2727H393.984V26.5782ZM393.983 44.7661H409.087L405.195 57.4607H393.983V44.7661ZM373.062 26.5782H388.329V39.2727H373.062V26.5782ZM373.062 44.7661H388.329V57.4607H373.062V44.7661ZM367.407 57.4607H357.649L353.758 44.7661H367.407V57.4607ZM348.182 26.5782H367.407V39.2727H352.073L348.182 26.5782ZM399.447 71.8372C401.907 71.8372 403.908 73.7812 403.908 76.1708C403.908 78.5604 401.907 80.5044 399.447 80.5044C396.987 80.5044 394.986 78.5604 394.986 76.1708C394.986 73.7812 396.987 71.8372 399.447 71.8372ZM365.023 71.8372C367.483 71.8372 369.484 73.7812 369.484 76.1708C369.484 78.5604 367.483 80.5044 365.023 80.5044C362.563 80.5044 360.562 78.5604 360.562 76.1708C360.562 73.7812 362.563 71.8372 365.023 71.8372Z" fill="#31304F"/>
</g>
<g clip-path="url(#clip3)">
<path d="M524.822 50.8403C524.488 50.1557 524.488 49.3705 524.822 48.686L527.924 42.3406C529.651 38.8075 528.283 34.5964 524.809 32.7533L518.57 29.4429C517.897 29.0859 517.435 28.4505 517.304 27.7002L516.083 20.7434C515.404 16.87 511.821 14.2672 507.928 14.818L500.935 15.8072C500.18 15.9138 499.434 15.6711 498.886 15.1414L493.81 10.2308C490.983 7.4964 486.556 7.49623 483.729 10.2308L478.653 15.1419C478.105 15.6718 477.359 15.914 476.604 15.8077L469.611 14.8185C465.717 14.2674 462.135 16.8705 461.456 20.7439L460.235 27.7004C460.104 28.4508 459.642 29.0861 458.969 29.4433L452.73 32.7536C449.256 34.5966 447.888 38.808 449.615 42.341L452.717 48.6863C453.051 49.371 453.051 50.1561 452.717 50.8406L449.615 57.1859C447.888 60.719 449.256 64.93 452.73 66.7731L458.969 70.0835C459.642 70.4405 460.104 71.076 460.235 71.8262L461.456 78.7831C462.074 82.3091 465.098 84.782 468.572 84.7817C468.915 84.7817 469.262 84.7576 469.611 84.7083L476.604 83.719C477.358 83.612 478.105 83.8552 478.653 84.3848L483.729 89.2955C485.143 90.6629 486.956 91.3464 488.769 91.3462C490.583 91.3461 492.397 90.6625 493.81 89.2955L498.886 84.3848C499.434 83.8552 500.18 83.6131 500.935 83.719L507.928 84.7083C511.823 85.2592 515.404 82.6562 516.083 78.7829L517.304 71.8264C517.436 71.076 517.897 70.4407 518.57 70.0835L524.809 66.7731C528.283 64.9302 529.651 60.7188 527.924 57.1857L524.822 50.8403ZM522.561 62.5358L516.322 65.8461C514.333 66.9018 512.968 68.7792 512.579 70.9973L511.359 77.954C511.129 79.2645 509.918 80.1447 508.6 79.9587L501.607 78.9695C499.376 78.6536 497.17 79.3714 495.551 80.9371L490.475 85.8476C489.519 86.7724 488.021 86.7724 487.064 85.8476L481.988 80.9369C480.62 79.6136 478.832 78.8964 476.965 78.8964C476.622 78.8964 476.278 78.9205 475.932 78.9694L468.939 79.9586C467.622 80.1447 466.41 79.2643 466.18 77.9538L464.96 70.997C464.57 68.7788 463.206 66.9013 461.217 65.846L454.978 62.5356C453.803 61.912 453.34 60.4873 453.924 59.292L457.026 52.9466C458.015 50.9233 458.015 48.6028 457.026 46.5796L453.924 40.2341C453.34 39.0388 453.803 37.6141 454.978 36.9905L461.217 33.6802C463.206 32.6245 464.57 30.7471 464.959 28.5289L466.18 21.5723C466.41 20.2618 467.621 19.3814 468.939 19.5676L475.932 20.5568C478.161 20.8724 480.369 20.1549 481.988 18.5892L487.064 13.6786C488.02 12.7537 489.518 12.7537 490.475 13.6786L495.551 18.5892C497.169 20.1551 499.377 20.8724 501.606 20.5568L508.6 19.5676C509.916 19.3812 511.129 20.2618 511.359 21.5723L512.579 28.5291C512.968 30.7473 514.332 32.6248 516.322 33.6802L522.561 36.9905C523.736 37.6141 524.199 39.0388 523.615 40.2341L520.513 46.5794C519.524 48.6025 519.524 50.9233 520.513 52.9464L523.615 59.2917C524.199 60.4873 523.736 61.9122 522.561 62.5358Z" fill="#31304F"/>
<path d="M506.293 32.2388C505.357 31.3022 503.838 31.3022 502.901 32.2388L471.245 63.8952C470.309 64.8318 470.309 66.3504 471.245 67.287C471.713 67.7553 472.327 67.9895 472.941 67.9895C473.555 67.9895 474.169 67.7555 474.637 67.287L506.293 35.6307C507.23 34.694 507.23 33.1756 506.293 32.2388Z" fill="#31304F"/>
<path d="M479.176 28.1782C474.327 28.1782 470.382 32.1232 470.382 36.9721C470.382 41.8211 474.327 45.7661 479.176 45.7661C484.025 45.7661 487.97 41.8211 487.97 36.9721C487.97 32.1232 484.025 28.1782 479.176 28.1782ZM479.176 40.9693C476.972 40.9693 475.179 39.1762 475.179 36.972C475.179 34.7679 476.972 32.9748 479.176 32.9748C481.38 32.9748 483.173 34.7679 483.173 36.972C483.173 39.1762 481.38 40.9693 479.176 40.9693Z" fill="#31304F"/>
<path d="M498.363 53.7603C493.514 53.7603 489.569 57.7053 489.569 62.5542C489.569 67.4031 493.514 71.3481 498.363 71.3481C503.211 71.3481 507.156 67.4031 507.156 62.5542C507.156 57.7053 503.211 53.7603 498.363 53.7603ZM498.363 66.5513C496.158 66.5513 494.365 64.7582 494.365 62.5542C494.365 60.3501 496.158 58.557 498.363 58.557C500.567 58.557 502.36 60.3501 502.36 62.5542C502.36 64.7582 500.567 66.5513 498.363 66.5513Z" fill="#31304F"/>
</g>
<g clip-path="url(#clip4)">
<path d="M685.659 62.9539H688.695H740.457C741.707 62.9539 742.809 62.1557 743.166 60.9912L754.319 24.6157C754.573 23.7846 754.409 22.8854 753.875 22.1901C753.342 21.4948 752.502 21.0852 751.609 21.0852H679.651L675.846 8.67439C675.489 7.51009 674.387 6.71191 673.136 6.71191H661.827C660.266 6.71173 659 7.9414 659 9.45844C659 10.9753 660.266 12.2051 661.827 12.2051H671.028L674.815 24.5563C674.827 24.5971 674.839 24.6375 674.852 24.6773L684.911 57.4882C679.17 57.8634 674.615 62.518 674.615 68.1893C674.615 74.1049 679.57 78.9177 685.659 78.9177H688.466C689.693 83.0033 693.58 85.998 698.177 85.998C702.773 85.998 706.661 83.0034 707.888 78.9177H722.889C724.116 83.0033 728.004 85.998 732.6 85.998C737.197 85.998 741.084 83.0034 742.311 78.9177H745.954C747.515 78.9177 748.781 77.6878 748.781 76.171C748.781 74.6541 747.515 73.4243 745.954 73.4243H742.311C741.084 69.3385 737.197 66.3439 732.6 66.3439C728.004 66.3439 724.116 69.3385 722.889 73.4243H707.888C706.661 69.3385 702.773 66.3439 698.177 66.3439C693.58 66.3439 689.692 69.3385 688.466 73.4243H685.659C682.687 73.4243 680.27 71.0758 680.27 68.1891C680.27 65.3024 682.688 62.9539 685.659 62.9539ZM727.137 26.5782H747.817L743.925 39.2727H727.137V26.5782ZM727.137 44.7661H742.24L738.349 57.4607H727.137V44.7661ZM706.216 26.5782H721.483V39.2727H706.216V26.5782ZM706.215 44.7661H721.482V57.4607H706.215V44.7661ZM700.561 57.4607H690.803L686.911 44.7661H700.561V57.4607ZM681.335 26.5782H700.561V39.2727H685.227L681.335 26.5782ZM732.6 71.8372C735.06 71.8372 737.062 73.7812 737.062 76.1708C737.062 78.5604 735.06 80.5044 732.6 80.5044C730.141 80.5044 728.139 78.5604 728.139 76.1708C728.139 73.7812 730.141 71.8372 732.6 71.8372ZM698.177 71.8372C700.637 71.8372 702.638 73.7812 702.638 76.1708C702.638 78.5604 700.637 80.5044 698.177 80.5044C695.717 80.5044 693.716 78.5604 693.716 76.1708C693.716 73.7812 695.717 71.8372 698.177 71.8372Z" fill="#31304F"/>
</g>
<g clip-path="url(#clip5)">
<path d="M857.976 50.8403C857.641 50.1557 857.641 49.3705 857.976 48.686L861.078 42.3406C862.805 38.8075 861.437 34.5964 857.963 32.7533L851.724 29.4429C851.051 29.0859 850.589 28.4505 850.457 27.7002L849.237 20.7434C848.558 16.87 844.975 14.2672 841.082 14.818L834.089 15.8072C833.334 15.9138 832.587 15.6711 832.04 15.1414L826.964 10.2308C824.137 7.4964 819.709 7.49623 816.883 10.2308L811.807 15.1419C811.259 15.6718 810.513 15.914 809.758 15.8077L802.765 14.8185C798.87 14.2674 795.289 16.8705 794.609 20.7439L793.389 27.7004C793.257 28.4508 792.796 29.0861 792.123 29.4433L785.884 32.7536C782.41 34.5966 781.042 38.808 782.769 42.341L785.87 48.6863C786.205 49.371 786.205 50.1561 785.87 50.8406L782.769 57.1859C781.042 60.719 782.41 64.93 785.884 66.7731L792.123 70.0835C792.796 70.4405 793.257 71.076 793.389 71.8262L794.609 78.7831C795.228 82.3091 798.251 84.782 801.726 84.7817C802.069 84.7817 802.416 84.7576 802.765 84.7083L809.758 83.719C810.512 83.612 811.259 83.8552 811.807 84.3848L816.883 89.2955C818.297 90.6629 820.11 91.3464 821.923 91.3462C823.737 91.3461 825.551 90.6625 826.964 89.2955L832.04 84.3848C832.588 83.8552 833.334 83.6131 834.089 83.719L841.082 84.7083C844.977 85.2592 848.558 82.6562 849.237 78.7829L850.458 71.8264C850.589 71.076 851.051 70.4407 851.724 70.0835L857.963 66.7731C861.437 64.9302 862.805 60.7188 861.078 57.1857L857.976 50.8403ZM855.715 62.5358L849.476 65.8461C847.486 66.9018 846.122 68.7792 845.733 70.9973L844.513 77.954C844.283 79.2645 843.071 80.1447 841.754 79.9587L834.76 78.9695C832.53 78.6536 830.323 79.3714 828.705 80.9371L823.629 85.8476C822.672 86.7724 821.174 86.7724 820.218 85.8476L815.142 80.9369C813.774 79.6136 811.985 78.8964 810.118 78.8964C809.776 78.8964 809.431 78.9205 809.086 78.9694L802.093 79.9586C800.776 80.1447 799.564 79.2643 799.334 77.9538L798.113 70.997C797.724 68.7788 796.36 66.9013 794.371 65.846L788.132 62.5356C786.956 61.912 786.493 60.4873 787.078 59.292L790.179 52.9466C791.168 50.9233 791.168 48.6028 790.179 46.5796L787.078 40.2341C786.493 39.0388 786.956 37.6141 788.132 36.9905L794.371 33.6802C796.36 32.6245 797.724 30.7471 798.113 28.5289L799.333 21.5723C799.563 20.2618 800.775 19.3814 802.093 19.5676L809.086 20.5568C811.315 20.8724 813.523 20.1549 815.141 18.5892L820.218 13.6786C821.174 12.7537 822.672 12.7537 823.628 13.6786L828.705 18.5892C830.323 20.1551 832.53 20.8724 834.76 20.5568L841.753 19.5676C843.07 19.3812 844.283 20.2618 844.513 21.5723L845.733 28.5291C846.122 30.7473 847.486 32.6248 849.475 33.6802L855.714 36.9905C856.89 37.6141 857.353 39.0388 856.768 40.2341L853.667 46.5794C852.678 48.6025 852.678 50.9233 853.667 52.9464L856.768 59.2917C857.353 60.4873 856.89 61.9122 855.715 62.5358Z" fill="#31304F"/>
<path d="M839.447 32.2388C838.511 31.3022 836.992 31.3022 836.055 32.2388L804.399 63.8952C803.462 64.8318 803.462 66.3504 804.399 67.287C804.867 67.7553 805.481 67.9895 806.095 67.9895C806.708 67.9895 807.322 67.7555 807.791 67.287L839.447 35.6307C840.384 34.694 840.384 33.1756 839.447 32.2388Z" fill="#31304F"/>
<path d="M812.33 28.1782C807.481 28.1782 803.536 32.1232 803.536 36.9721C803.536 41.8211 807.481 45.7661 812.33 45.7661C817.179 45.7661 821.124 41.8211 821.124 36.9721C821.124 32.1232 817.179 28.1782 812.33 28.1782ZM812.33 40.9693C810.126 40.9693 808.333 39.1762 808.333 36.972C808.333 34.7679 810.126 32.9748 812.33 32.9748C814.534 32.9748 816.327 34.7679 816.327 36.972C816.327 39.1762 814.534 40.9693 812.33 40.9693Z" fill="#31304F"/>
<path d="M831.516 53.7603C826.667 53.7603 822.722 57.7053 822.722 62.5542C822.722 67.4031 826.667 71.3481 831.516 71.3481C836.365 71.3481 840.31 67.4031 840.31 62.5542C840.31 57.7053 836.365 53.7603 831.516 53.7603ZM831.516 66.5513C829.312 66.5513 827.519 64.7582 827.519 62.5542C827.519 60.3501 829.312 58.557 831.516 58.557C833.72 58.557 835.513 60.3501 835.513 62.5542C835.513 64.7582 833.72 66.5513 831.516 66.5513Z" fill="#31304F"/>
</g>
<g clip-path="url(#clip6)">
<path d="M1011.51 62.9539H1014.54H1066.3C1067.55 62.9539 1068.66 62.1557 1069.01 60.9912L1080.16 24.6157C1080.42 23.7846 1080.26 22.8854 1079.72 22.1901C1079.19 21.4948 1078.35 21.0852 1077.46 21.0852H1005.5L1001.69 8.67439C1001.34 7.51009 1000.23 6.71191 998.983 6.71191H987.674C986.112 6.71173 984.846 7.9414 984.846 9.45844C984.846 10.9753 986.112 12.2051 987.674 12.2051H996.875L1000.66 24.5563C1000.67 24.5971 1000.68 24.6375 1000.7 24.6773L1010.76 57.4882C1005.02 57.8634 1000.46 62.518 1000.46 68.1893C1000.46 74.1049 1005.42 78.9177 1011.51 78.9177H1014.31C1015.54 83.0033 1019.43 85.998 1024.02 85.998C1028.62 85.998 1032.51 83.0034 1033.73 78.9177H1048.74C1049.96 83.0033 1053.85 85.998 1058.45 85.998C1063.04 85.998 1066.93 83.0034 1068.16 78.9177H1071.8C1073.36 78.9177 1074.63 77.6878 1074.63 76.171C1074.63 74.6541 1073.36 73.4243 1071.8 73.4243H1068.16C1066.93 69.3385 1063.04 66.3439 1058.45 66.3439C1053.85 66.3439 1049.96 69.3385 1048.74 73.4243H1033.73C1032.51 69.3385 1028.62 66.3439 1024.02 66.3439C1019.43 66.3439 1015.54 69.3385 1014.31 73.4243H1011.51C1008.53 73.4243 1006.12 71.0758 1006.12 68.1891C1006.12 65.3024 1008.53 62.9539 1011.51 62.9539ZM1052.98 26.5782H1073.66L1069.77 39.2727H1052.98V26.5782ZM1052.98 44.7661H1068.09L1064.19 57.4607H1052.98V44.7661ZM1032.06 26.5782H1047.33V39.2727H1032.06V26.5782ZM1032.06 44.7661H1047.33V57.4607H1032.06V44.7661ZM1026.41 57.4607H1016.65L1012.76 44.7661H1026.41V57.4607ZM1007.18 26.5782H1026.41V39.2727H1011.07L1007.18 26.5782ZM1058.45 71.8372C1060.91 71.8372 1062.91 73.7812 1062.91 76.1708C1062.91 78.5604 1060.91 80.5044 1058.45 80.5044C1055.99 80.5044 1053.99 78.5604 1053.99 76.1708C1053.99 73.7812 1055.99 71.8372 1058.45 71.8372ZM1024.02 71.8372C1026.48 71.8372 1028.48 73.7812 1028.48 76.1708C1028.48 78.5604 1026.48 80.5044 1024.02 80.5044C1021.56 80.5044 1019.56 78.5604 1019.56 76.1708C1019.56 73.7812 1021.56 71.8372 1024.02 71.8372Z" fill="#31304F"/>
</g>
<g clip-path="url(#clip7)">
<path d="M1183.82 50.8403C1183.49 50.1557 1183.49 49.3705 1183.82 48.686L1186.92 42.3406C1188.65 38.8075 1187.28 34.5964 1183.81 32.7533L1177.57 29.4429C1176.9 29.0859 1176.44 28.4505 1176.3 27.7002L1175.08 20.7434C1174.4 16.87 1170.82 14.2672 1166.93 14.818L1159.93 15.8072C1159.18 15.9138 1158.43 15.6711 1157.89 15.1414L1152.81 10.2308C1149.98 7.4964 1145.56 7.49623 1142.73 10.2308L1137.65 15.1419C1137.11 15.6718 1136.36 15.914 1135.6 15.8077L1128.61 14.8185C1124.72 14.2674 1121.13 16.8705 1120.46 20.7439L1119.24 27.7004C1119.1 28.4508 1118.64 29.0861 1117.97 29.4433L1111.73 32.7536C1108.26 34.5966 1106.89 38.808 1108.62 42.341L1111.72 48.6863C1112.05 49.371 1112.05 50.1561 1111.72 50.8406L1108.61 57.1859C1106.89 60.719 1108.26 64.93 1111.73 66.7731L1117.97 70.0835C1118.64 70.4405 1119.1 71.076 1119.24 71.8262L1120.46 78.7831C1121.07 82.3091 1124.1 84.782 1127.57 84.7817C1127.91 84.7817 1128.26 84.7576 1128.61 84.7083L1135.6 83.719C1136.36 83.612 1137.11 83.8552 1137.65 84.3848L1142.73 89.2955C1144.14 90.6629 1145.96 91.3464 1147.77 91.3462C1149.58 91.3461 1151.4 90.6625 1152.81 89.2955L1157.89 84.3848C1158.43 83.8552 1159.18 83.6131 1159.93 83.719L1166.93 84.7083C1170.82 85.2592 1174.4 82.6562 1175.08 78.7829L1176.3 71.8264C1176.44 71.076 1176.9 70.4407 1177.57 70.0835L1183.81 66.7731C1187.28 64.9302 1188.65 60.7188 1186.92 57.1857L1183.82 50.8403ZM1181.56 62.5358L1175.32 65.8461C1173.33 66.9018 1171.97 68.7792 1171.58 70.9973L1170.36 77.954C1170.13 79.2645 1168.92 80.1447 1167.6 79.9587L1160.61 78.9695C1158.38 78.6536 1156.17 79.3714 1154.55 80.9371L1149.47 85.8476C1148.52 86.7724 1147.02 86.7724 1146.06 85.8476L1140.99 80.9369C1139.62 79.6136 1137.83 78.8964 1135.96 78.8964C1135.62 78.8964 1135.28 78.9205 1134.93 78.9694L1127.94 79.9586C1126.62 80.1447 1125.41 79.2643 1125.18 77.9538L1123.96 70.997C1123.57 68.7788 1122.21 66.9013 1120.22 65.846L1113.98 62.5356C1112.8 61.912 1112.34 60.4873 1112.92 59.292L1116.03 52.9466C1117.01 50.9233 1117.01 48.6028 1116.03 46.5796L1112.92 40.2341C1112.34 39.0388 1112.8 37.6141 1113.98 36.9905L1120.22 33.6802C1122.21 32.6245 1123.57 30.7471 1123.96 28.5289L1125.18 21.5723C1125.41 20.2618 1126.62 19.3814 1127.94 19.5676L1134.93 20.5568C1137.16 20.8724 1139.37 20.1549 1140.99 18.5892L1146.06 13.6786C1147.02 12.7537 1148.52 12.7537 1149.47 13.6786L1154.55 18.5892C1156.17 20.1551 1158.38 20.8724 1160.61 20.5568L1167.6 19.5676C1168.92 19.3812 1170.13 20.2618 1170.36 21.5723L1171.58 28.5291C1171.97 30.7473 1173.33 32.6248 1175.32 33.6802L1181.56 36.9905C1182.74 37.6141 1183.2 39.0388 1182.61 40.2341L1179.51 46.5794C1178.52 48.6025 1178.52 50.9233 1179.51 52.9464L1182.61 59.2917C1183.2 60.4873 1182.74 61.9122 1181.56 62.5358Z" fill="#31304F"/>
<path d="M1165.29 32.2388C1164.36 31.3022 1162.84 31.3022 1161.9 32.2388L1130.25 63.8952C1129.31 64.8318 1129.31 66.3504 1130.25 67.287C1130.71 67.7553 1131.33 67.9895 1131.94 67.9895C1132.55 67.9895 1133.17 67.7555 1133.64 67.287L1165.29 35.6307C1166.23 34.694 1166.23 33.1756 1165.29 32.2388Z" fill="#31304F"/>
<path d="M1138.18 28.1782C1133.33 28.1782 1129.38 32.1232 1129.38 36.9721C1129.38 41.8211 1133.33 45.7661 1138.18 45.7661C1143.03 45.7661 1146.97 41.8211 1146.97 36.9721C1146.97 32.1232 1143.03 28.1782 1138.18 28.1782ZM1138.18 40.9693C1135.97 40.9693 1134.18 39.1762 1134.18 36.972C1134.18 34.7679 1135.97 32.9748 1138.18 32.9748C1140.38 32.9748 1142.17 34.7679 1142.17 36.972C1142.17 39.1762 1140.38 40.9693 1138.18 40.9693Z" fill="#31304F"/>
<path d="M1157.36 53.7603C1152.51 53.7603 1148.57 57.7053 1148.57 62.5542C1148.57 67.4031 1152.51 71.3481 1157.36 71.3481C1162.21 71.3481 1166.16 67.4031 1166.16 62.5542C1166.16 57.7053 1162.21 53.7603 1157.36 53.7603ZM1157.36 66.5513C1155.16 66.5513 1153.36 64.7582 1153.36 62.5542C1153.36 60.3501 1155.16 58.557 1157.36 58.557C1159.57 58.557 1161.36 60.3501 1161.36 62.5542C1161.36 64.7582 1159.57 66.5513 1157.36 66.5513Z" fill="#31304F"/>
</g>
<defs>
<clipPath id="clip0">
<rect width="95.4362" height="92.7094" fill="white"/>
</clipPath>
<clipPath id="clip1">
<rect width="83.1658" height="83.1658" fill="white" transform="translate(121.34 8.18018)"/>
</clipPath>
<clipPath id="clip2">
<rect width="95.4362" height="92.7094" fill="white" transform="translate(325.846)"/>
</clipPath>
<clipPath id="clip3">
<rect width="83.1658" height="83.1658" fill="white" transform="translate(447.187 8.18018)"/>
</clipPath>
<clipPath id="clip4">
<rect width="95.4362" height="92.7094" fill="white" transform="translate(659)"/>
</clipPath>
<clipPath id="clip5">
<rect width="83.1658" height="83.1658" fill="white" transform="translate(780.34 8.18018)"/>
</clipPath>
<clipPath id="clip6">
<rect width="95.4362" height="92.7094" fill="white" transform="translate(984.846)"/>
</clipPath>
<clipPath id="clip7">
<rect width="83.1658" height="83.1658" fill="white" transform="translate(1106.19 8.18018)"/>
</clipPath>
</defs>
</svg>
