<svg width="49" height="49" viewBox="0 0 49 49" fill="none" xmlns="http://www.w3.org/2000/svg">
<g clip-path="url(#clip0)">
<path d="M24.668 26.1665C31.8822 26.1665 37.7513 20.2974 37.7513 13.0832C37.7513 5.86909 31.8822 0 24.668 0C17.4538 0 11.5847 5.86909 11.5847 13.0832C11.5847 20.2974 17.4539 26.1665 24.668 26.1665ZM24.668 1.43832C31.089 1.43832 36.3129 6.66218 36.3129 13.0832C36.3129 19.5042 31.089 24.7282 24.668 24.7282C18.247 24.7282 13.023 19.5043 13.023 13.0832C13.023 6.66228 18.247 1.43832 24.668 1.43832Z" fill="#CE1625"/>
<path d="M24.6678 22.5453C29.8852 22.5453 34.1298 18.3007 34.1298 13.0835C34.1298 7.86621 29.8852 3.62158 24.6678 3.62158C22.3127 3.62158 20.0556 4.49238 18.3125 6.07359C18.0183 6.34051 17.9962 6.79529 18.263 7.08948C18.5299 7.38367 18.9848 7.40597 19.2789 7.13896C20.7568 5.79825 22.6707 5.0599 24.6678 5.0599C29.0921 5.0599 32.6915 8.6593 32.6915 13.0835C32.6915 17.5076 29.0921 21.107 24.6678 21.107C20.2437 21.107 16.6444 17.5077 16.6444 13.0835C16.6444 11.7474 16.979 10.4251 17.6123 9.25945C17.8019 8.91042 17.6727 8.47383 17.3237 8.28424C16.9747 8.09455 16.5381 8.22395 16.3485 8.57288C15.6011 9.94861 15.2061 11.5084 15.2061 13.0835C15.2061 18.3007 19.4506 22.5453 24.6678 22.5453Z" fill="#CE1625"/>
<path d="M24.3946 16.4714C23.2651 16.4026 22.9548 15.7228 22.8973 15.5631C22.815 15.2557 22.5353 15.029 22.202 15.029C21.8041 15.029 21.4814 15.3517 21.4814 15.7497C21.4814 15.8075 21.489 15.8634 21.5018 15.9173L21.5015 15.9174C21.5022 15.9199 21.5036 15.9249 21.5054 15.9311C21.5142 15.9651 21.5246 15.9984 21.5381 16.0303C21.6711 16.3972 22.2041 17.5356 23.7748 17.8397V18.7967C23.7748 19.1938 24.0968 19.5159 24.494 19.5159C24.8913 19.5159 25.2132 19.1939 25.2132 18.7967V17.8614C25.9016 17.7416 26.364 17.4407 26.6532 17.1686C27.1911 16.6623 27.5123 15.8971 27.5123 15.1215C27.5123 14.3927 27.2265 12.6662 24.5791 12.3741C24.0546 12.3162 23.6805 12.1493 23.467 11.8781C23.2786 11.6386 23.2582 11.3739 23.2582 11.2713C23.2582 11.1447 23.2929 10.0354 24.494 10.0354C25.282 10.0354 25.6002 10.5366 25.66 10.6456C25.7667 10.9104 26.0254 11.0974 26.3282 11.0974C26.7262 11.0974 27.0488 10.7747 27.0488 10.3768C27.0488 10.2585 27.0197 10.1471 26.9692 10.0486L26.9695 10.0485C26.7668 9.60784 26.1944 8.91849 25.2131 8.68115V7.71579C25.2131 7.31862 24.8912 6.99658 24.4939 6.99658C24.0967 6.99658 23.7747 7.31862 23.7747 7.71579V8.67809C22.3552 9.01515 21.8197 10.3396 21.8197 11.2712C21.8197 12.307 22.501 13.5918 24.4212 13.8037C26.0738 13.9861 26.0738 14.8406 26.0738 15.1214C26.0738 15.4197 25.9671 15.839 25.6673 16.121C25.3839 16.3877 24.956 16.5056 24.3946 16.4714Z" fill="#CE1625"/>
<path d="M12.4641 33.3041C12.3282 33.1596 12.1386 33.0776 11.9403 33.0776C11.7419 33.0776 11.5524 33.1596 11.4164 33.3041L6.53101 38.4977C6.33444 38.7067 6.28094 39.0125 6.39473 39.2758C6.50853 39.5391 6.76798 39.7096 7.05489 39.7096H8.4669V42.3212C8.4669 42.7184 8.78894 43.0404 9.18611 43.0404C9.58328 43.0404 9.90532 42.7184 9.90532 42.3212V38.9904C9.90532 38.5932 9.58328 38.2712 9.18611 38.2712H8.71869L11.9402 34.8463L15.1616 38.2712H14.6942C14.297 38.2712 13.975 38.5932 13.975 38.9904V47.5615H9.90512V45.198C9.90512 44.8008 9.58308 44.4788 9.18592 44.4788C8.78875 44.4788 8.46671 44.8008 8.46671 45.198V48.2807C8.46671 48.6779 8.78875 49 9.18592 49H14.6941C15.0913 49 15.4133 48.6779 15.4133 48.2807V39.7096H16.8253C17.1121 39.7096 17.3716 39.5391 17.4855 39.2758C17.5993 39.0125 17.5458 38.7066 17.3492 38.4977L12.4641 33.3041Z" fill="#CE1625"/>
<path d="M25.1916 28.3563C25.0557 28.2118 24.8661 28.1299 24.6677 28.1299C24.4693 28.1299 24.2799 28.2118 24.1439 28.3563L19.2586 33.55C19.062 33.759 19.0084 34.0648 19.1223 34.3281C19.2361 34.5915 19.4956 34.7619 19.7825 34.7619H21.1945V48.2808C21.1945 48.678 21.5165 49.0001 21.9137 49.0001H27.4219C27.8192 49.0001 28.1411 48.678 28.1411 48.2808V34.7619H29.5531C29.84 34.7619 30.0994 34.5915 30.2133 34.3281C30.3271 34.0648 30.2735 33.7589 30.0769 33.55L25.1916 28.3563ZM27.4219 33.3236C27.0246 33.3236 26.7027 33.6456 26.7027 34.0428V47.5617H22.6328V34.0427C22.6328 33.6455 22.3108 33.3235 21.9136 33.3235H21.4462L24.6676 29.8987L27.8891 33.3235H27.4219V33.3236Z" fill="#CE1625"/>
<path d="M37.9195 23.7782C37.7836 23.6337 37.594 23.5518 37.3956 23.5518C37.1973 23.5518 37.0077 23.6337 36.8718 23.7782L31.9864 28.9718C31.7898 29.1807 31.7362 29.4866 31.85 29.7499C31.9639 30.0133 32.2233 30.1837 32.5102 30.1837H33.9222V34.5725C33.9222 34.9697 34.2441 35.2918 34.6414 35.2918C35.0387 35.2918 35.3606 34.9697 35.3606 34.5725V29.4646C35.3606 29.0674 35.0387 28.7454 34.6414 28.7454H34.1741L37.3956 25.3205L40.6169 28.7454H40.1496C39.7523 28.7454 39.4304 29.0674 39.4304 29.4646V47.5615H35.3605V37.4493C35.3605 37.0521 35.0386 36.7301 34.6413 36.7301C34.244 36.7301 33.9221 37.052 33.9221 37.4493V48.2807C33.9221 48.6778 34.244 48.9999 34.6413 48.9999H40.1496C40.5469 48.9999 40.8688 48.6778 40.8688 48.2807V30.1837H42.2808C42.5677 30.1837 42.8271 30.0133 42.941 29.7499C43.0548 29.4866 43.0012 29.1807 42.8046 28.9718L37.9195 23.7782Z" fill="#CE1625"/>
<path d="M8.88163 13.3408C8.88163 12.9436 8.55959 12.6216 8.16242 12.6216H3.94431C3.54714 12.6216 3.2251 12.9436 3.2251 13.3408C3.2251 13.738 3.54704 14.06 3.94431 14.06H8.16242C8.55969 14.0599 8.88163 13.738 8.88163 13.3408Z" fill="#CE1625"/>
<path d="M9.09305 18.9848L7.59281 19.5725C7.22292 19.7174 7.0406 20.1347 7.1855 20.5045C7.29661 20.7881 7.56802 20.9615 7.85532 20.9615C7.94261 20.9615 8.03132 20.9455 8.11746 20.9117L9.6177 20.324C9.98759 20.1791 10.1699 19.7618 10.025 19.392C9.88002 19.0223 9.46276 18.8399 9.09305 18.9848Z" fill="#CE1625"/>
<path d="M7.59255 7.10864L9.0928 7.69636C9.17903 7.73014 9.26765 7.74612 9.35493 7.74612C9.64223 7.74612 9.91364 7.57271 10.0248 7.28914C10.1696 6.91934 9.98733 6.50208 9.61744 6.35718L8.1172 5.76947C7.74721 5.62458 7.33014 5.80699 7.18524 6.17678C7.04035 6.54648 7.22276 6.96375 7.59255 7.10864Z" fill="#CE1625"/>
<path d="M45.0555 12.6216H40.8374C40.4401 12.6216 40.1182 12.9436 40.1182 13.3408C40.1182 13.738 40.4401 14.06 40.8374 14.06H45.0555C45.4528 14.06 45.7747 13.738 45.7747 13.3408C45.7746 12.9436 45.4527 12.6216 45.0555 12.6216Z" fill="#CE1625"/>
<path d="M39.3823 20.324L40.8824 20.9117C40.9686 20.9455 41.0574 20.9615 41.1446 20.9615C41.4319 20.9615 41.7034 20.788 41.8145 20.5045C41.9594 20.1347 41.777 19.7174 41.4073 19.5725L39.9071 18.9848C39.5369 18.8399 39.12 19.0223 38.9751 19.3921C38.8302 19.7617 39.0125 20.179 39.3823 20.324Z" fill="#CE1625"/>
<path d="M39.6449 7.74615C39.7322 7.74615 39.821 7.73017 39.9071 7.69639L41.4073 7.10867C41.777 6.96378 41.9594 6.54651 41.8145 6.17672C41.6695 5.80682 41.2521 5.6247 40.8824 5.7694L39.3823 6.35712C39.0125 6.50201 38.8302 6.91928 38.9751 7.28907C39.0862 7.57283 39.3576 7.74615 39.6449 7.74615Z" fill="#CE1625"/>
</g>
<defs>
<clipPath id="clip0">
<rect width="49" height="49" fill="white"/>
</clipPath>
</defs>
</svg>
