<svg width="499" height="357" viewBox="0 0 499 357" fill="none" xmlns="http://www.w3.org/2000/svg">
<path d="M244.677 239.787C208.824 155.168 260.039 65.5696 317.762 41.156C375.485 16.7424 430.302 35.9493 454.738 93.6206C478.739 185.375 412.544 234.602 354.821 259.016C297.098 283.429 255.435 305.297 244.677 239.787Z" fill="#CC2F44"/>
<path fill-rule="evenodd" clip-rule="evenodd" d="M346.048 302.842V334.363L353.67 328.206C354.847 327.253 382.868 304.504 411.283 271.881C450.48 226.878 470.354 186.482 470.354 151.818V148.382C470.354 79.8386 414.591 24.0747 346.048 24.0747C277.504 24.0747 221.741 79.8386 221.741 148.382V151.818C221.741 154.729 221.895 157.685 222.175 160.677L246.485 138.499C251.464 87.952 294.213 48.3297 346.048 48.3297C401.215 48.3297 446.1 93.2138 446.1 148.382V151.818C446.1 210.395 370.625 281.308 346.048 302.842ZM346.048 96.8396C317.628 96.8396 294.505 119.962 294.505 148.382C294.505 176.801 317.628 199.924 346.048 199.924C374.467 199.924 397.59 176.801 397.59 148.382C397.59 119.962 374.467 96.8396 346.048 96.8396ZM346.048 121.095C361.094 121.095 373.335 133.335 373.335 148.382C373.335 163.426 361.094 175.669 346.048 175.669C331.003 175.669 318.76 163.426 318.76 148.382C318.76 133.335 331.003 121.095 346.048 121.095Z" fill="#323232"/>
<path d="M62.4844 300.979H46.0312V245.433H21.5156V300.979H5.0625V232.729H62.4844V300.979ZM70.0312 275.151C70.0312 270.089 71.0156 265.589 72.9844 261.651C74.9531 257.683 77.7812 254.636 81.4688 252.511C85.1562 250.386 89.4844 249.323 94.4531 249.323C102.047 249.323 108.031 251.683 112.406 256.401C116.781 261.089 118.969 267.479 118.969 275.573V276.136C118.969 284.042 116.766 290.323 112.359 294.979C107.984 299.604 102.047 301.917 94.5469 301.917C87.3281 301.917 81.5312 299.761 77.1562 295.448C72.7812 291.104 70.4219 285.229 70.0781 277.823L70.0312 275.151ZM85.8281 276.136C85.8281 280.823 86.5625 284.261 88.0312 286.448C89.5 288.636 91.6719 289.729 94.5469 289.729C100.172 289.729 103.047 285.401 103.172 276.745V275.151C103.172 266.058 100.266 261.511 94.4531 261.511C89.1719 261.511 86.3125 265.433 85.875 273.276L85.8281 276.136ZM173.016 275.995C173.016 283.87 171.234 290.167 167.672 294.886C164.141 299.573 159.359 301.917 153.328 301.917C148.672 301.917 144.844 300.214 141.844 296.808V320.479H126.047V250.261H140.812L141.281 254.948C144.312 251.198 148.297 249.323 153.234 249.323C159.484 249.323 164.344 251.636 167.812 256.261C171.281 260.854 173.016 267.183 173.016 275.245V275.995ZM157.219 275.011C157.219 266.011 154.594 261.511 149.344 261.511C145.594 261.511 143.094 262.854 141.844 265.542V285.511C143.219 288.323 145.75 289.729 149.438 289.729C154.469 289.729 157.062 285.386 157.219 276.698V275.011ZM222.469 262.354H206.484V300.979H190.594V262.354H174.844V250.261H222.469V262.354ZM256.219 300.979C255.656 299.948 255.156 298.433 254.719 296.433C251.812 300.089 247.75 301.917 242.531 301.917C237.75 301.917 233.688 300.479 230.344 297.604C227 294.698 225.328 291.058 225.328 286.683C225.328 281.183 227.359 277.026 231.422 274.214C235.484 271.401 241.391 269.995 249.141 269.995H254.016V267.323C254.016 262.667 252 260.339 247.969 260.339C244.219 260.339 242.344 262.183 242.344 265.87H226.547C226.547 260.964 228.625 256.979 232.781 253.917C236.969 250.854 242.297 249.323 248.766 249.323C255.234 249.323 260.344 250.901 264.094 254.058C267.844 257.214 269.766 261.542 269.859 267.042V289.495C269.922 294.151 270.641 297.714 272.016 300.183V300.979H256.219ZM246.328 290.667C248.297 290.667 249.922 290.245 251.203 289.401C252.516 288.558 253.453 287.604 254.016 286.542V278.433H249.422C243.922 278.433 241.172 280.901 241.172 285.839C241.172 287.276 241.656 288.448 242.625 289.354C243.594 290.229 244.828 290.667 246.328 290.667ZM323.953 250.261V300.979H308.156V262.448H298.688L297.844 277.964C297.25 285.651 295.516 291.401 292.641 295.214C289.766 299.026 285.5 300.948 279.844 300.979H274.875L274.688 288.886L276.328 288.698C278.422 288.448 279.969 287.058 280.969 284.526C282 281.964 282.656 278.104 282.938 272.948L283.922 250.261H323.953Z" fill="#323232"/>
<path d="M79.0254 328.149H71.3438V348.979H65.1738V328.149H57.6328V323.386H79.0254V328.149ZM80.0801 348.979V329.96H88.2363C90.8496 329.96 92.8477 330.417 94.2305 331.331C95.625 332.245 96.3223 333.563 96.3223 335.286C96.3223 336.165 96.0176 336.956 95.4082 337.659C94.7988 338.351 93.9082 338.884 92.7363 339.259C94.248 339.517 95.4141 340.021 96.2344 340.771C97.0547 341.509 97.4648 342.435 97.4648 343.548C97.4648 345.341 96.7852 346.694 95.4258 347.608C94.0781 348.511 92.1328 348.968 89.5898 348.979H80.0801ZM86.0215 341.228V344.444H89.4844C90.2227 344.444 90.75 344.315 91.0664 344.058C91.3828 343.8 91.541 343.407 91.541 342.88C91.541 341.825 90.9316 341.274 89.7129 341.228H86.0215ZM86.0215 337.571H88.4648C89.1797 337.571 89.6777 337.454 89.959 337.22C90.252 336.974 90.3984 336.616 90.3984 336.147C90.3984 335.538 90.2227 335.11 89.8711 334.864C89.5195 334.618 88.9746 334.495 88.2363 334.495H86.0215V337.571ZM99.1523 339.294C99.1523 337.396 99.5215 335.708 100.26 334.231C100.998 332.743 102.059 331.601 103.441 330.804C104.824 330.007 106.447 329.608 108.311 329.608C111.158 329.608 113.402 330.493 115.043 332.263C116.684 334.021 117.504 336.417 117.504 339.452V339.663C117.504 342.628 116.678 344.983 115.025 346.729C113.385 348.464 111.158 349.331 108.346 349.331C105.639 349.331 103.465 348.522 101.824 346.905C100.184 345.276 99.2988 343.073 99.1699 340.296L99.1523 339.294ZM105.076 339.663C105.076 341.421 105.352 342.71 105.902 343.53C106.453 344.351 107.268 344.761 108.346 344.761C110.455 344.761 111.533 343.138 111.58 339.892V339.294C111.58 335.884 110.49 334.179 108.311 334.179C106.33 334.179 105.258 335.649 105.094 338.591L105.076 339.663ZM129.316 349.331C126.398 349.331 124.037 348.464 122.232 346.729C120.428 344.983 119.525 342.716 119.525 339.927V339.435C119.525 337.489 119.883 335.772 120.598 334.284C121.324 332.796 122.379 331.647 123.762 330.839C125.145 330.019 126.785 329.608 128.684 329.608C131.355 329.608 133.465 330.44 135.012 332.104C136.559 333.757 137.332 336.065 137.332 339.03V341.333H125.555C125.766 342.399 126.229 343.237 126.943 343.847C127.658 344.456 128.584 344.761 129.721 344.761C131.596 344.761 133.061 344.104 134.115 342.792L136.822 345.991C136.084 347.011 135.035 347.825 133.676 348.435C132.328 349.032 130.875 349.331 129.316 349.331ZM128.648 334.179C126.914 334.179 125.883 335.327 125.555 337.624H131.531V337.167C131.555 336.218 131.314 335.485 130.811 334.97C130.307 334.442 129.586 334.179 128.648 334.179ZM153.047 334.53H145.559V348.979H139.617V329.96H153.047V334.53ZM153.715 339.294C153.715 337.396 154.084 335.708 154.822 334.231C155.561 332.743 156.621 331.601 158.004 330.804C159.387 330.007 161.01 329.608 162.873 329.608C165.721 329.608 167.965 330.493 169.605 332.263C171.246 334.021 172.066 336.417 172.066 339.452V339.663C172.066 342.628 171.24 344.983 169.588 346.729C167.947 348.464 165.721 349.331 162.908 349.331C160.201 349.331 158.027 348.522 156.387 346.905C154.746 345.276 153.861 343.073 153.732 340.296L153.715 339.294ZM159.639 339.663C159.639 341.421 159.914 342.71 160.465 343.53C161.016 344.351 161.83 344.761 162.908 344.761C165.018 344.761 166.096 343.138 166.143 339.892V339.294C166.143 335.884 165.053 334.179 162.873 334.179C160.893 334.179 159.82 335.649 159.656 338.591L159.639 339.663ZM201.176 328.149H190.049V348.979H183.879V323.386H201.176V328.149ZM200.262 339.294C200.262 337.396 200.631 335.708 201.369 334.231C202.107 332.743 203.168 331.601 204.551 330.804C205.934 330.007 207.557 329.608 209.42 329.608C212.268 329.608 214.512 330.493 216.152 332.263C217.793 334.021 218.613 336.417 218.613 339.452V339.663C218.613 342.628 217.787 344.983 216.135 346.729C214.494 348.464 212.268 349.331 209.455 349.331C206.748 349.331 204.574 348.522 202.934 346.905C201.293 345.276 200.408 343.073 200.279 340.296L200.262 339.294ZM206.186 339.663C206.186 341.421 206.461 342.71 207.012 343.53C207.562 344.351 208.377 344.761 209.455 344.761C211.564 344.761 212.643 343.138 212.689 339.892V339.294C212.689 335.884 211.6 334.179 209.42 334.179C207.439 334.179 206.367 335.649 206.203 338.591L206.186 339.663ZM238.881 339.61C238.881 342.563 238.213 344.925 236.877 346.694C235.553 348.452 233.76 349.331 231.498 349.331C229.752 349.331 228.316 348.692 227.191 347.415V356.292H221.268V329.96H226.805L226.98 331.718C228.117 330.312 229.611 329.608 231.463 329.608C233.807 329.608 235.629 330.476 236.93 332.21C238.23 333.933 238.881 336.306 238.881 339.329V339.61ZM232.957 339.241C232.957 335.866 231.973 334.179 230.004 334.179C228.598 334.179 227.66 334.683 227.191 335.69V343.179C227.707 344.233 228.656 344.761 230.039 344.761C231.926 344.761 232.898 343.132 232.957 339.874V339.241ZM240.762 339.294C240.762 337.396 241.131 335.708 241.869 334.231C242.607 332.743 243.668 331.601 245.051 330.804C246.434 330.007 248.057 329.608 249.92 329.608C252.768 329.608 255.012 330.493 256.652 332.263C258.293 334.021 259.113 336.417 259.113 339.452V339.663C259.113 342.628 258.287 344.983 256.635 346.729C254.994 348.464 252.768 349.331 249.955 349.331C247.248 349.331 245.074 348.522 243.434 346.905C241.793 345.276 240.908 343.073 240.779 340.296L240.762 339.294ZM246.686 339.663C246.686 341.421 246.961 342.71 247.512 343.53C248.062 344.351 248.877 344.761 249.955 344.761C252.064 344.761 253.143 343.138 253.189 339.892V339.294C253.189 335.884 252.1 334.179 249.92 334.179C247.939 334.179 246.867 335.649 246.703 338.591L246.686 339.663ZM260.959 344.409C261.908 343.46 262.594 342.517 263.016 341.579C263.449 340.642 263.701 339.552 263.771 338.31L263.824 337.009L263.93 329.96H278.748V344.409H281.596V354.745H275.654V348.979H265.354V354.745H259.271L259.254 344.409H260.959ZM267.779 344.409H272.842V334.53H269.801L269.783 336.095C269.701 339.517 269.033 342.288 267.779 344.409ZM294.34 348.979C294.129 348.593 293.941 348.024 293.777 347.274C292.688 348.646 291.164 349.331 289.207 349.331C287.414 349.331 285.891 348.792 284.637 347.714C283.383 346.624 282.756 345.259 282.756 343.618C282.756 341.556 283.518 339.997 285.041 338.942C286.564 337.888 288.779 337.36 291.686 337.36H293.514V336.358C293.514 334.612 292.758 333.739 291.246 333.739C289.84 333.739 289.137 334.431 289.137 335.813H283.213C283.213 333.974 283.992 332.479 285.551 331.331C287.121 330.183 289.119 329.608 291.545 329.608C293.971 329.608 295.887 330.2 297.293 331.384C298.699 332.567 299.42 334.19 299.455 336.253V344.673C299.479 346.419 299.748 347.755 300.264 348.681V348.979H294.34ZM290.631 345.112C291.369 345.112 291.979 344.954 292.459 344.638C292.951 344.321 293.303 343.964 293.514 343.565V340.524H291.791C289.729 340.524 288.697 341.45 288.697 343.302C288.697 343.841 288.879 344.28 289.242 344.62C289.605 344.948 290.068 345.112 290.631 345.112Z" fill="#323232"/>
</svg>
