<svg width="304" height="101" viewBox="0 0 304 101" fill="none" xmlns="http://www.w3.org/2000/svg">
<g clip-path="url(#clip0)">
<path d="M52.1955 43.8453V44.0592C52.4138 47.6947 51.1035 50.4747 48.7012 52.6133C46.2989 54.7518 43.023 55.8211 38.8736 55.8211C34.7242 55.8211 31.4483 54.3241 28.8276 51.3302C26.4253 48.5501 25.115 44.7007 25.115 39.996V34.0081C25.115 29.3033 26.4253 25.6678 28.8276 22.6739C31.4483 19.6799 34.7242 18.183 38.8736 18.183C43.023 18.183 46.2989 19.2522 48.7012 21.3908C51.1035 23.5293 52.4138 26.3094 52.1955 29.9449V30.1587H49.3564C49.3564 27.1648 48.4828 24.8124 46.5173 23.3154C44.7702 21.6046 42.1495 20.7492 38.8736 20.7492C35.5977 20.7492 32.9771 22.0323 31.0115 24.3847C29.046 26.9509 28.1725 30.1587 28.1725 34.0081V39.996C28.1725 43.8453 29.046 47.0531 31.0115 49.6193C32.9771 51.9717 35.5977 53.2548 38.8736 53.2548C42.1495 53.2548 44.7702 52.3994 46.5173 50.9025C48.4828 49.1916 49.3564 46.8392 49.3564 43.8453H52.1955ZM61.5863 55.3934H58.5288V28.0202H61.5863V55.3934ZM61.5863 20.3215H58.5288V16.0444H61.5863V20.3215ZM73.8161 21.1769V28.0202H79.9311V30.5864H73.8161V48.3362C73.8161 50.047 74.0345 51.3302 74.6897 52.1856C75.3449 52.8271 76.2184 53.2548 77.3104 53.2548C77.7472 53.2548 78.184 53.2548 78.4024 53.2548C78.8391 53.041 79.2759 53.041 79.7127 52.8271L80.1495 55.1795C79.7127 55.3934 79.2759 55.6072 78.6207 55.6072C77.9656 55.8211 77.5288 55.8211 76.8736 55.8211C74.9081 55.8211 73.3794 55.1795 72.2874 54.1102C71.1955 52.8271 70.7587 50.9025 70.7587 48.3362V30.5864H65.9541V28.0202H70.7587V21.1769H73.8161ZM92.5978 47.9085L93.4713 51.1163H93.6897L102.207 28.0202H105.483L93.4713 59.6704C92.8161 61.5951 91.7242 63.0921 90.6322 64.3752C89.5403 65.6583 87.7932 66.2999 85.6092 66.2999C85.3909 66.2999 84.9541 66.2999 84.2989 66.086C83.8621 66.086 83.4253 66.086 83.2069 65.8722L83.6437 63.5198C83.8621 63.5198 84.0805 63.5198 84.5173 63.5198C84.9541 63.5198 85.3909 63.5198 85.6092 63.5198C86.9196 63.5198 88.0115 63.0921 88.6667 62.2367C89.5403 61.3812 90.1955 60.0981 90.8506 58.6012L92.3794 54.9657L81.4598 28.0202H84.9541L92.5978 47.9085Z" fill="white"/>
<path d="M17.908 0.647705H74.908V3.00009H17.908C15.7241 3.00009 13.7586 3.64165 12.0115 4.49706C10.046 5.35247 8.29885 6.63559 6.98851 8.13256C5.45977 9.84338 4.36782 11.7681 3.49425 13.9066C2.62069 16.0451 2.4023 18.1836 2.4023 20.7499V57.3187C2.4023 59.6711 2.62069 62.0235 3.49425 63.9482C4.36782 66.0867 5.45977 68.2252 6.98851 69.7222C8.29885 71.433 10.046 72.7161 12.0115 73.5715C13.7586 74.4269 15.7241 74.8547 17.908 74.8547H74.908V77.207H17.908C15.5057 77.207 13.1034 76.7793 11.1379 75.7101C8.95402 74.6408 6.98851 73.1438 5.24138 71.433C3.49425 69.5083 2.18391 67.3698 1.31034 64.8036C0.436782 62.4512 0 59.885 0 57.3187V20.7499C0 17.9698 0.436782 15.4036 1.31034 13.0512C2.18391 10.6988 3.49425 8.34641 5.24138 6.63559C6.98851 4.71091 8.95402 3.21394 11.1379 2.14468C13.1034 1.28926 15.5057 0.647705 17.908 0.647705Z" fill="white"/>
<path d="M74.0344 0.647217H107.885C110.287 0.647217 112.69 1.28878 114.655 2.14419C119.241 4.28272 122.736 8.34592 124.483 13.0507C125.356 15.4031 125.793 17.9693 125.793 20.5355V57.3182C125.793 59.8845 125.356 62.4507 124.483 64.8031C123.609 67.1555 122.299 69.5078 120.552 71.2187C119.023 72.9295 117.057 74.4265 115.092 75.4957C113.345 76.3511 111.161 76.9927 109.195 77.2065V97.0949C109.195 97.3087 109.195 97.7364 108.977 98.1641C108.977 98.378 108.759 98.8057 108.54 99.0195C108.322 99.4472 108.103 99.6611 107.885 99.8749C107.448 100.089 107.23 100.303 106.793 100.517C106.575 100.73 106.138 100.73 105.701 100.73C105.264 100.73 104.828 100.73 104.391 100.517C103.736 100.517 103.299 100.089 102.644 99.6611C102.207 99.2334 101.552 98.8057 101.115 97.9503L84.2988 77.2065H74.0344V74.8542H85.3907C91.2873 82.1252 96.9655 89.1823 102.862 96.4533C103.299 97.0949 103.736 97.5226 103.954 97.7364C104.391 97.9503 104.828 98.1641 105.046 98.378C105.264 98.378 105.483 98.378 105.483 98.378C105.701 98.378 105.919 98.378 105.919 98.378C106.138 98.378 106.138 98.1641 106.356 98.1641C106.356 97.9503 106.575 97.9503 106.575 97.7364C106.793 97.7364 106.793 97.5226 106.793 97.3087V97.0949V74.8542H108.103C110.069 74.8542 112.034 74.2126 113.782 73.3572C115.747 72.5018 117.494 71.2187 119.023 69.7217C120.333 68.0109 121.425 66.0862 122.299 63.9477C122.954 61.8091 123.391 59.6706 123.391 57.3182V20.5355C123.391 18.1832 122.954 16.0446 122.299 13.9061C121.425 11.7676 120.333 9.84289 118.805 8.13207C117.494 6.6351 115.747 5.35198 113.782 4.28272C112.034 3.4273 110.069 2.9996 107.885 2.9996H74.0344V0.647217Z" fill="white"/>
<path d="M158.552 49.8329C158.552 47.9082 157.678 46.4113 156.15 45.1282C154.621 43.845 152 42.7758 148.506 41.7065C144.357 40.6372 141.299 39.3541 139.334 37.6433C137.15 36.1463 136.276 33.794 136.276 31.2277C136.276 28.2338 137.368 26.0953 139.77 24.1706C141.954 22.4598 145.012 21.6043 148.506 21.6043C152.437 21.6043 155.494 22.4598 157.678 24.5983C160.081 26.523 161.173 29.303 161.173 32.297V32.5108H158.115C158.115 30.1585 157.242 28.0199 155.494 26.523C153.747 24.8121 151.345 24.1706 148.506 24.1706C145.667 24.1706 143.483 24.8121 141.736 26.0953C140.207 27.3784 139.334 29.0892 139.334 31.0139C139.334 32.9385 139.989 34.4355 141.517 35.7186C143.046 36.7879 145.667 38.071 149.379 38.9264C153.311 40.2095 156.368 41.4927 158.552 43.2035C160.517 44.9143 161.609 47.0528 161.609 49.6191C161.609 52.613 160.299 54.7515 157.897 56.6762C155.494 58.387 152.437 59.2424 148.724 59.2424C145.012 59.2424 141.954 58.1732 139.115 56.4624C136.494 54.5377 135.184 51.9714 135.184 48.3359H138.023C138.023 51.116 139.115 53.2546 141.299 54.5377C143.483 56.0346 145.885 56.6762 148.724 56.6762C151.563 56.6762 153.966 56.0346 155.713 54.7515C157.46 53.4684 158.552 51.7576 158.552 49.8329ZM170.563 58.6009H167.506V31.4416H170.563V58.6009ZM170.563 23.7429H167.506V19.4658H170.563V23.7429ZM182.793 24.5983V31.4416H188.908V34.0078H182.793V51.5437C182.793 53.4684 183.012 54.7515 183.667 55.3931C184.322 56.2485 185.196 56.4624 186.288 56.4624C186.724 56.4624 187.161 56.4624 187.38 56.4624C187.816 56.4624 188.253 56.4624 188.69 56.2485L189.127 58.6009C188.69 58.6009 188.253 58.8147 187.598 59.0286C186.943 59.0286 186.506 59.2424 185.851 59.2424C183.885 59.2424 182.357 58.6009 181.265 57.3178C180.173 56.2485 179.517 54.3238 179.517 51.5437V34.0078H174.931V31.4416H179.517V24.5983H182.793ZM204.196 59.2424C200.701 59.2424 197.644 57.9593 195.46 55.3931C193.276 53.0407 192.184 49.8329 192.184 45.7697V44.4866C192.184 40.6372 193.276 37.2156 195.46 34.8632C197.862 32.297 200.483 31.0139 203.977 31.0139C207.253 31.0139 209.874 32.0831 211.839 34.2217C213.586 36.1463 214.46 39.1403 214.46 42.7758V45.1282H195.242V45.7697C195.242 48.9775 195.897 51.5437 197.644 53.4684C199.173 55.6069 201.357 56.6762 204.196 56.6762C205.943 56.6762 207.471 56.4624 208.782 55.8208C210.311 55.1792 211.403 54.5377 212.494 53.6823L213.805 55.6069C212.713 56.6762 211.403 57.5316 209.874 58.1732C208.345 58.8147 206.38 59.2424 204.196 59.2424ZM203.977 33.5801C201.575 33.5801 199.609 34.4355 198.081 35.9325C196.552 37.6433 195.678 39.7818 195.46 42.3481V42.5619H211.403V41.9204C211.403 39.3541 210.747 37.4295 209.437 35.9325C208.127 34.2217 206.38 33.5801 203.977 33.5801ZM236.081 51.7576C236.081 50.4745 235.644 49.4052 234.552 48.3359C233.46 47.4805 231.494 46.6251 228.655 45.9836C225.38 45.342 222.977 44.4866 221.449 43.2035C219.92 42.1342 219.046 40.4234 219.046 38.4987C219.046 36.3602 219.92 34.6494 221.667 33.1524C223.414 31.6554 225.816 31.0139 228.874 31.0139C231.931 31.0139 234.334 31.6554 236.299 33.1524C238.046 34.8632 238.92 36.574 238.92 38.9264V39.1403H235.862C235.862 37.6433 235.207 36.3602 233.897 35.0771C232.586 34.0078 231.058 33.5801 228.874 33.5801C226.69 33.5801 224.943 34.0078 223.851 34.8632C222.54 35.9325 222.104 37.0018 222.104 38.2849C222.104 39.568 222.54 40.6372 223.632 41.2788C224.506 42.1342 226.471 42.9896 229.311 43.4173C232.586 44.2727 234.989 45.1282 236.736 46.4113C238.265 47.6944 239.138 49.4052 239.138 51.5437C239.138 53.8961 238.265 55.6069 236.299 57.1039C234.552 58.387 232.15 59.2424 228.874 59.2424C225.598 59.2424 222.977 58.387 221.012 56.8901C219.046 55.1792 218.173 53.4684 218.173 51.116H218.391H221.23C221.23 53.0407 222.104 54.3238 223.632 55.3931C225.161 56.2485 226.908 56.6762 228.874 56.6762C231.276 56.6762 233.023 56.2485 234.115 55.1792C235.426 54.11 236.081 53.0407 236.081 51.7576Z" fill="white"/>
<path d="M143.919 76.3508C143.919 77.42 143.483 78.2754 142.828 78.917C142.172 79.5586 141.08 79.9863 139.77 79.9863C138.678 79.9863 137.586 79.5586 136.713 78.4893C136.057 77.6339 135.621 76.5646 135.621 75.0677V73.3568C135.621 71.8599 136.057 70.7906 136.713 69.7213C137.586 68.8659 138.678 68.4382 139.77 68.4382C141.08 68.4382 142.172 68.8659 142.828 69.5075C143.483 70.149 143.919 71.0045 143.919 72.0737H143.046C143.046 71.2183 142.828 70.5767 142.172 69.9352C141.736 69.5075 140.862 69.2936 139.77 69.2936C138.896 69.2936 138.023 69.7213 137.586 70.3629C136.931 71.2183 136.494 72.0737 136.494 73.3568V75.0677C136.494 76.3508 136.931 77.2062 137.586 78.0616C138.023 78.7031 138.896 79.1309 139.77 79.1309C140.862 79.1309 141.736 78.917 142.172 78.4893C142.828 77.8477 143.046 77.2062 143.046 76.3508H143.919ZM149.379 79.9863C148.287 79.9863 147.414 79.5586 146.759 78.7031C145.885 78.0616 145.667 76.9923 145.667 75.9231V75.4954C145.667 74.2122 145.885 73.3568 146.759 72.5014C147.414 71.646 148.287 71.4322 149.161 71.4322C150.253 71.4322 151.126 71.646 151.563 72.2876C152.218 72.9291 152.437 73.7845 152.437 74.8538V75.7092H146.54V75.9231C146.54 76.7785 146.759 77.6339 147.195 78.2754C147.85 78.917 148.506 79.1309 149.379 79.1309C149.816 79.1309 150.253 79.1309 150.69 78.917C151.126 78.7031 151.563 78.4893 151.782 78.2754L152.218 78.917C152 79.1309 151.563 79.3447 151.126 79.5586C150.471 79.7724 150.034 79.9863 149.379 79.9863ZM149.161 72.0737C148.506 72.0737 147.85 72.2876 147.414 72.9291C146.977 73.3568 146.759 73.9984 146.54 74.8538H146.759H151.563V74.6399C151.563 73.9984 151.345 73.3568 150.908 72.9291C150.471 72.2876 150.034 72.0737 149.161 72.0737ZM160.517 72.2876H157.46V79.7724H156.586V72.2876H153.529V71.4322H160.517V72.2876ZM163.356 74.8538H165.759C166.632 74.8538 167.506 75.0677 167.942 75.4954C168.598 75.9231 168.816 76.5646 168.816 77.2062C168.816 78.0616 168.598 78.7031 167.942 79.1309C167.506 79.5586 166.632 79.7724 165.759 79.7724H162.483V71.4322H163.356V74.8538ZM163.356 75.4954V78.917H165.759C166.414 78.917 167.069 78.917 167.287 78.4893C167.724 78.2754 167.942 77.8477 167.942 77.2062C167.942 76.7785 167.724 76.3508 167.287 76.1369C167.069 75.7092 166.414 75.4954 165.759 75.4954H163.356ZM179.954 72.2876H175.805V79.7724H174.713V71.4322H179.954V72.2876ZM180.827 75.4954C180.827 74.2122 181.046 73.3568 181.919 72.5014C182.575 71.646 183.448 71.4322 184.54 71.4322C185.632 71.4322 186.506 71.646 187.161 72.5014C187.816 73.3568 188.253 74.2122 188.253 75.4954V75.7092C188.253 76.9923 187.816 78.0616 187.161 78.7031C186.506 79.5586 185.632 79.9863 184.54 79.9863C183.448 79.9863 182.575 79.5586 181.919 78.7031C181.046 78.0616 180.827 76.9923 180.827 75.7092V75.4954ZM181.701 75.7092C181.701 76.7785 181.919 77.42 182.575 78.2754C183.011 78.917 183.667 79.1309 184.54 79.1309C185.414 79.1309 186.069 78.917 186.506 78.2754C187.161 77.42 187.379 76.7785 187.379 75.7092V75.4954C187.379 74.6399 187.161 73.7845 186.506 73.143C186.069 72.5014 185.414 72.0737 184.54 72.0737C183.667 72.0737 183.011 72.5014 182.575 73.143C181.919 73.7845 181.701 74.6399 181.701 75.4954V75.7092ZM196.988 75.9231C196.988 76.9923 196.77 78.0616 196.115 78.917C195.678 79.5586 194.805 79.9863 193.713 79.9863C193.276 79.9863 192.621 79.7724 192.184 79.5586C191.747 79.3447 191.529 79.1309 191.092 78.7031V82.9802H190.218V71.4322H190.873L191.092 72.7153C191.31 72.2876 191.747 72.0737 192.184 71.646C192.621 71.4322 193.276 71.4322 193.713 71.4322C194.805 71.4322 195.678 71.646 196.115 72.5014C196.77 73.3568 196.988 74.4261 196.988 75.7092V75.9231ZM196.115 75.7092C196.115 74.6399 195.896 73.7845 195.46 73.143C195.023 72.5014 194.368 72.0737 193.494 72.0737C192.839 72.0737 192.402 72.2876 191.965 72.5014C191.747 72.9291 191.31 73.143 191.092 73.7845V77.6339C191.31 78.0616 191.747 78.4893 192.184 78.7031C192.402 78.917 193.057 79.1309 193.494 79.1309C194.368 79.1309 195.023 78.917 195.46 78.2754C195.896 77.6339 196.115 76.7785 196.115 75.9231V75.7092ZM198.517 75.4954C198.517 74.2122 198.954 73.3568 199.609 72.5014C200.264 71.646 201.138 71.4322 202.23 71.4322C203.54 71.4322 204.414 71.646 205.069 72.5014C205.724 73.3568 206.161 74.2122 206.161 75.4954V75.7092C206.161 76.9923 205.724 78.0616 205.069 78.7031C204.414 79.5586 203.54 79.9863 202.23 79.9863C201.138 79.9863 200.264 79.5586 199.609 78.7031C198.954 78.0616 198.517 76.9923 198.517 75.7092V75.4954ZM199.609 75.7092C199.609 76.7785 199.827 77.42 200.264 78.2754C200.701 78.917 201.356 79.1309 202.23 79.1309C203.103 79.1309 203.977 78.917 204.414 78.2754C204.85 77.42 205.069 76.7785 205.069 75.7092V75.4954C205.069 74.6399 204.85 73.7845 204.414 73.143C203.977 72.5014 203.103 72.0737 202.23 72.0737C201.356 72.0737 200.701 72.5014 200.264 73.143C199.827 73.7845 199.609 74.6399 199.609 75.4954V75.7092ZM207.908 78.917C208.345 78.917 208.782 78.7031 209 77.8477C209.218 76.9923 209.437 75.9231 209.437 74.4261L209.655 71.4322H214.678V78.917H215.552V82.5525H214.46V79.7724H208.126V82.5525H207.253V78.917H207.908ZM210.31 74.4261C210.31 75.4954 210.092 76.5646 210.092 77.2062C209.873 78.0616 209.655 78.4893 209.437 78.917H213.805V72.2876H210.529L210.31 74.4261ZM220.575 79.1309C221.011 79.1309 221.667 78.917 222.103 78.7031C222.54 78.2754 222.759 77.8477 222.759 77.2062H223.632C223.632 78.0616 223.414 78.7031 222.759 79.1309C222.103 79.7724 221.23 79.9863 220.575 79.9863C219.264 79.9863 218.391 79.5586 217.736 78.7031C217.299 78.0616 216.862 76.9923 216.862 75.7092V75.4954C216.862 74.2122 217.299 73.3568 217.736 72.5014C218.391 71.646 219.264 71.4322 220.356 71.4322C221.448 71.4322 222.103 71.646 222.759 72.0737C223.414 72.7153 223.632 73.3568 223.632 74.2122H222.759C222.759 73.5707 222.54 73.143 222.103 72.7153C221.667 72.2876 221.011 72.0737 220.356 72.0737C219.483 72.0737 218.827 72.5014 218.391 73.143C217.954 73.7845 217.736 74.4261 217.736 75.4954V75.7092C217.736 76.7785 217.954 77.6339 218.391 78.2754C218.827 78.917 219.483 79.1309 220.575 79.1309ZM227.563 75.9231H226.471V79.7724H225.598V71.4322H226.471V75.0677H227.563L231.057 71.4322H232.149L228.437 75.4954L232.586 79.7724H232.368H231.276L227.563 75.9231ZM239.575 71.4322H240.448V79.7724H239.575V72.9291L234.988 79.7724H234.115V71.4322H234.988V78.2754L239.575 71.4322ZM245.69 74.8538L247.873 71.4322H248.965L246.126 75.4954L249.184 79.7724H248.092L245.69 76.1369L243.287 79.7724H242.195L245.034 75.4954L242.195 71.4322H243.287L245.69 74.8538ZM257.701 79.1309C258.356 79.1309 258.793 78.917 259.23 78.7031C259.885 78.2754 260.103 77.8477 260.103 77.2062H260.759C260.977 78.0616 260.54 78.7031 259.885 79.1309C259.23 79.7724 258.575 79.9863 257.701 79.9863C256.609 79.9863 255.736 79.5586 255.08 78.7031C254.425 78.0616 254.207 76.9923 254.207 75.7092V75.4954C254.207 74.2122 254.425 73.3568 255.08 72.5014C255.736 71.646 256.609 71.4322 257.701 71.4322C258.575 71.4322 259.448 71.646 259.885 72.0737C260.54 72.7153 260.977 73.3568 260.759 74.2122H260.103C260.103 73.5707 259.885 73.143 259.448 72.7153C258.793 72.2876 258.356 72.0737 257.701 72.0737C256.827 72.0737 256.172 72.5014 255.736 73.143C255.299 73.7845 255.08 74.4261 255.08 75.4954V75.7092C255.08 76.7785 255.299 77.6339 255.736 78.2754C256.172 78.917 256.827 79.1309 257.701 79.1309ZM268.184 79.7724C268.184 79.5586 268.184 79.1309 268.184 78.917C267.965 78.7031 267.965 78.4893 267.965 78.2754C267.747 78.917 267.31 79.1309 266.873 79.5586C266.218 79.7724 265.782 79.9863 264.908 79.9863C264.253 79.9863 263.598 79.7724 263.161 79.3447C262.724 78.917 262.506 78.2754 262.506 77.42C262.506 76.7785 262.724 76.1369 263.379 75.7092C264.034 75.2815 264.908 75.0677 266 75.0677H267.965V73.9984C267.965 73.3568 267.747 72.9291 267.529 72.7153C267.092 72.2876 266.437 72.0737 265.782 72.0737C265.126 72.0737 264.69 72.2876 264.253 72.5014C263.816 72.9291 263.816 73.3568 263.816 73.7845H262.942H262.724C262.724 73.143 263.161 72.5014 263.598 72.0737C264.253 71.646 264.908 71.4322 266 71.4322C266.873 71.4322 267.529 71.646 268.184 72.0737C268.621 72.5014 269.057 73.143 269.057 73.9984V78.0616C269.057 78.4893 269.057 78.7031 269.057 78.917C269.057 79.1309 269.057 79.5586 269.276 79.7724H268.184ZM265.126 79.1309C265.782 79.1309 266.437 78.917 266.873 78.7031C267.529 78.2754 267.747 77.8477 267.965 77.42V75.7092H266C265.126 75.7092 264.471 75.9231 264.034 76.3508C263.598 76.5646 263.379 76.9923 263.379 77.6339C263.379 78.0616 263.598 78.4893 263.816 78.7031C264.034 78.917 264.471 79.1309 265.126 79.1309ZM276.919 71.4322H277.793V79.7724H276.919V72.9291L272.333 79.7724H271.46V71.4322H272.333V78.2754H272.552L276.919 71.4322ZM276.919 68.2244C276.919 68.8659 276.701 69.2936 276.264 69.7213C275.827 69.9352 275.391 70.149 274.736 70.149C273.862 70.149 273.425 69.9352 272.988 69.7213C272.552 69.2936 272.333 68.8659 272.333 68.2244H272.552H273.207C273.207 68.6521 273.207 68.8659 273.644 69.0798C273.862 69.2936 274.08 69.5075 274.736 69.5075C275.172 69.5075 275.609 69.2936 275.827 69.0798C276.046 68.8659 276.046 68.6521 276.046 68.2244H276.919ZM286.747 72.2876H283.69V79.7724H282.598V72.2876H279.759V71.4322H286.747V72.2876ZM287.839 75.4954C287.839 74.2122 288.057 73.3568 288.713 72.5014C289.368 71.646 290.46 71.4322 291.552 71.4322C292.644 71.4322 293.517 71.646 294.172 72.5014C294.827 73.3568 295.264 74.2122 295.264 75.4954V75.7092C295.264 76.9923 294.827 78.0616 294.172 78.7031C293.517 79.5586 292.644 79.9863 291.552 79.9863C290.46 79.9863 289.368 79.5586 288.713 78.7031C288.057 78.0616 287.839 76.9923 287.839 75.7092V75.4954ZM288.713 75.7092C288.713 76.7785 288.931 77.42 289.368 78.2754C290.023 78.917 290.678 79.1309 291.552 79.1309C292.425 79.1309 293.08 78.917 293.517 78.2754C293.954 77.42 294.391 76.7785 294.391 75.7092V75.4954C294.391 74.6399 293.954 73.7845 293.517 73.143C293.08 72.5014 292.425 72.0737 291.552 72.0737C290.678 72.0737 290.023 72.5014 289.368 73.143C288.931 73.7845 288.713 74.6399 288.713 75.4954V75.7092ZM297.23 79.7724V71.4322H300.287C301.379 71.4322 302.253 71.646 302.69 72.0737C303.345 72.5014 303.563 72.9291 303.563 73.7845C303.563 74.2122 303.563 74.4261 303.345 74.8538C302.908 75.0677 302.69 75.2815 302.253 75.4954C302.69 75.7092 303.126 75.9231 303.563 76.1369C303.782 76.5646 304 76.9923 304 77.42C304 78.2754 303.782 78.7031 303.126 79.1309C302.69 79.5586 301.816 79.7724 300.942 79.7724H297.23ZM298.103 75.9231V78.917H300.942C301.598 78.917 302.034 78.917 302.471 78.7031C302.908 78.2754 303.126 77.8477 303.126 77.42C303.126 76.9923 302.908 76.5646 302.471 76.3508C302.034 76.1369 301.598 75.9231 300.942 75.9231H298.103ZM298.103 75.2815H300.506C301.161 75.2815 301.816 75.0677 302.034 74.8538C302.471 74.6399 302.69 74.2122 302.69 73.7845C302.69 73.143 302.471 72.9291 302.034 72.7153C301.816 72.2876 301.161 72.2876 300.287 72.2876H298.103V75.2815Z" fill="white"/>
</g>
<defs>
<clipPath id="clip0">
<rect width="304" height="100.167" fill="white" transform="translate(0 0.60498)"/>
</clipPath>
</defs>
</svg>
