<svg width="46" height="47" viewBox="0 0 46 47" fill="none" xmlns="http://www.w3.org/2000/svg">
<g clip-path="url(#clip0)">
<path d="M41.4 19.7003H36.0333V45.5517C36.0333 45.9716 35.6901 46.312 35.2667 46.312H10.7333C10.31 46.312 9.96668 45.9716 9.96668 45.5517V19.7003H4.60001C4.391 19.7003 4.19099 19.6157 4.04638 19.466C3.75342 19.1628 3.76377 18.6815 4.06948 18.391L22.4695 0.903271C22.6123 0.767643 22.8023 0.691895 23 0.691895C23.1977 0.691895 23.3878 0.767643 23.5305 0.903271L41.9305 18.391C42.0815 18.5344 42.1668 18.7328 42.1668 18.94C42.1667 19.3599 41.8234 19.7003 41.4 19.7003ZM23 2.50529L6.50748 18.1796H10.7333C11.1567 18.1796 11.5 18.52 11.5 18.9399V44.7913H34.5V18.9399C34.5 18.52 34.8433 18.1796 35.2667 18.1796H39.4925L23 2.50529Z" fill="#CE1625"/>
<path d="M22.9999 21.221C24.6936 21.221 26.0666 22.5827 26.0666 24.2624H27.5999C27.5958 22.0387 25.9771 20.1413 23.7666 19.7688V18.1797H22.2332V19.7688C19.7308 20.2033 18.0573 22.5674 18.4954 25.0492C18.8791 27.2222 20.7755 28.8116 22.9999 28.8244C24.6936 28.8244 26.0666 30.186 26.0666 31.8657C26.0666 33.5454 24.6936 34.9071 22.9999 34.9071C21.3062 34.9071 19.9332 33.5454 19.9332 31.8657H18.3999C18.404 34.0894 20.0227 35.9868 22.2332 36.3593V37.9484H23.7666V36.3593C26.269 35.9248 27.9425 33.5607 27.5044 31.0789C27.1207 28.9059 25.2243 27.3164 22.9999 27.3037C21.3062 27.3037 19.9332 25.942 19.9332 24.2624C19.9332 22.5827 21.3062 21.221 22.9999 21.221Z" fill="#CE1625"/>
<path d="M14.5665 43.2705H13.0332V41.7498H14.5665V43.2705Z" fill="#CE1625"/>
<path d="M17.6334 43.2705H16.1001V41.7498H17.6334V43.2705Z" fill="#CE1625"/>
<path d="M20.7001 43.2705H19.1667V41.7498H20.7001V43.2705Z" fill="#CE1625"/>
<path d="M23.7667 43.2705H22.2334V41.7498H23.7667V43.2705Z" fill="#CE1625"/>
<path d="M26.8334 43.2705H25.3V41.7498H26.8334V43.2705Z" fill="#CE1625"/>
<path d="M29.9 43.2705H28.3667V41.7498H29.9V43.2705Z" fill="#CE1625"/>
<path d="M32.9667 43.2705H31.4333V41.7498H32.9667V43.2705Z" fill="#CE1625"/>
</g>
<defs>
<clipPath id="clip0">
<rect width="46" height="45.6201" fill="white" transform="matrix(1 0 0 -1 0 46.312)"/>
</clipPath>
</defs>
</svg>
