<svg width="108" height="108" viewBox="0 0 108 108" fill="none" xmlns="http://www.w3.org/2000/svg">
<path d="M107.054 45.0872L54.6521 21.656C54.2368 21.4698 53.763 21.4698 53.3477 21.656L32.1026 31.1555C31.2975 31.5156 30.9366 32.4599 31.2967 33.2657C31.6568 34.0715 32.6019 34.4324 33.4077 34.0724L53.9995 24.8645L72.851 33.2937V45.0616C62.8464 41.4032 54.423 41.1255 54.044 41.1148C54.0143 41.114 53.9846 41.114 53.955 41.1148C53.5488 41.1255 43.8869 41.4444 32.9463 45.9128C28.5818 47.6942 24.5946 49.9123 21.096 52.5045C20.834 52.699 20.6428 52.9659 20.539 53.2658L5.51151 46.5456L26.5787 37.1252C27.3845 36.7651 27.7454 35.8208 27.3845 35.015C27.0245 34.2091 26.0794 33.8483 25.2743 34.2083L0.94509 45.0872C0.369961 45.3442 0 45.9161 0 46.5456C0 47.1759 0.369961 47.7469 0.94509 48.004L20.4492 56.7265V64.377C20.4492 65.2595 21.1652 65.9747 22.0469 65.9747C22.9293 65.9747 23.6445 65.2595 23.6445 64.377V55.7246C23.6445 55.7237 23.6445 55.7221 23.6445 55.7213V54.6015C26.7723 52.3685 30.3038 50.4421 34.1542 48.8708C44.1671 44.7815 53.2876 44.339 54.0003 44.3102C54.6982 44.3373 63.2164 44.7444 72.851 48.4753V64.3515C70.5151 65.042 68.8045 67.2074 68.8045 69.7649C68.8045 72.1149 70.2481 74.1336 72.2956 74.9815L71.1783 77.9222C63.8879 79.1771 58.1152 80.9042 53.9995 83.0679C44.5197 78.0878 28.6452 76.6805 23.6454 76.3501V71.8685C23.6454 70.9861 22.9293 70.2709 22.0477 70.2709C21.1652 70.2709 20.45 70.9861 20.45 71.8685V77.8596C20.45 78.7141 21.1232 79.4177 21.9777 79.4556C22.1861 79.4647 42.9501 80.4345 53.2093 86.2772C53.454 86.4165 53.7267 86.4865 54.0003 86.4865C54.273 86.4865 54.5458 86.4165 54.7913 86.2764C58.2404 84.3104 63.4125 82.6427 69.8534 81.4084L68.9091 83.8951C68.7221 84.3862 68.7888 84.9375 69.0871 85.37C69.3854 85.8018 69.8773 86.0605 70.4022 86.0605H78.4968C79.0225 86.0605 79.5136 85.8018 79.8119 85.37C80.1101 84.9375 80.1769 84.3862 79.9907 83.8951L78.5463 80.0942C82.8935 79.5965 85.9867 79.4564 86.0221 79.4548C86.8766 79.4177 87.5506 78.7141 87.5506 77.8588V71.8677C87.5506 70.9861 86.8345 70.27 85.9529 70.27C85.0704 70.27 84.3552 70.9861 84.3552 71.8677V76.3517C82.8638 76.4523 80.3854 76.6508 77.3754 77.0142L76.6033 74.9815C78.6501 74.1336 80.0945 72.1149 80.0945 69.7649C80.0945 67.2065 78.3839 65.042 76.0472 64.3515V49.8291C79.048 51.2059 81.8347 52.802 84.3552 54.6015V55.7213V55.7246V64.377C84.3552 65.2595 85.0704 65.9747 85.9529 65.9747C86.8354 65.9747 87.5506 65.2595 87.5506 64.377V56.7265L107.055 48.004C107.63 47.7469 108 47.1759 108 46.5456C108 45.9161 107.629 45.3442 107.054 45.0872ZM72.7175 82.8652L74.4487 78.3095L76.1798 82.8652H72.7175ZM76.8983 69.7649C76.8983 71.1154 75.8 72.2138 74.4487 72.2138C73.0982 72.2138 71.9998 71.1154 71.9998 69.7649C71.9998 68.4136 73.0982 67.3153 74.4487 67.3153C75.8 67.3153 76.8983 68.4136 76.8983 69.7649ZM87.4599 53.2658C87.3561 52.9659 87.1649 52.699 86.9029 52.5045C83.673 50.1109 80.022 48.0411 76.0463 46.3346V34.7225L102.487 46.5456L87.4599 53.2658Z" fill="#362F4C"/>
</svg>
