<svg width="67" height="67" viewBox="0 0 67 67" fill="none" xmlns="http://www.w3.org/2000/svg">
<path d="M23.3191 25.125H42.948C43.1562 25.125 43.3559 25.0423 43.5032 24.895C43.6504 24.7478 43.7332 24.5481 43.7332 24.3398C43.7332 24.1316 43.6504 23.9319 43.5032 23.7847C43.3559 23.6374 43.1562 23.5547 42.948 23.5547H23.3191C23.1109 23.5547 22.9111 23.6374 22.7639 23.7847C22.6167 23.9319 22.5339 24.1316 22.5339 24.3398C22.5339 24.5481 22.6167 24.7478 22.7639 24.895C22.9111 25.0423 23.1109 25.125 23.3191 25.125Z" fill="#D31A2C"/>
<path d="M15.3909 24.1946L13.6464 25.8624L12.9389 25.1548C12.8663 25.0803 12.7797 25.0209 12.684 24.9802C12.5883 24.9394 12.4855 24.918 12.3815 24.9173C12.2775 24.9166 12.1744 24.9366 12.0782 24.9761C11.982 25.0156 11.8945 25.0738 11.821 25.1473C11.7475 25.2209 11.6893 25.3083 11.6498 25.4045C11.6103 25.5007 11.5904 25.6038 11.5911 25.7078C11.5918 25.8118 11.6132 25.9147 11.6539 26.0103C11.6947 26.106 11.7541 26.1926 11.8286 26.2652L13.079 27.5157C13.2241 27.6607 13.4202 27.7433 13.6254 27.7456C13.8306 27.7479 14.0285 27.6698 14.1768 27.528L16.4761 25.3295C16.5514 25.2584 16.6118 25.1732 16.654 25.0787C16.6961 24.9841 16.7192 24.8822 16.7218 24.7787C16.7245 24.6753 16.7066 24.5723 16.6693 24.4757C16.632 24.3792 16.5759 24.291 16.5044 24.2162C16.4329 24.1414 16.3473 24.0814 16.2525 24.0398C16.1577 23.9982 16.0556 23.9758 15.9521 23.9738C15.8487 23.9718 15.7458 23.9902 15.6495 24.0281C15.5532 24.066 15.4653 24.1226 15.3909 24.1946Z" fill="#D31A2C"/>
<path d="M14.1589 20.532C13.105 20.532 12.0747 20.8445 11.1984 21.4301C10.322 22.0156 9.63903 22.8479 9.2357 23.8216C8.83238 24.7953 8.72686 25.8668 8.93248 26.9005C9.13811 27.9342 9.64564 28.8837 10.3909 29.629C11.1362 30.3742 12.0857 30.8817 13.1194 31.0873C14.1531 31.2929 15.2246 31.1874 16.1983 30.784C17.172 30.3807 18.0043 29.6976 18.5898 28.8213C19.1753 27.945 19.4878 26.9147 19.4878 25.8607C19.4862 24.4479 18.9242 23.0934 17.9252 22.0944C16.9262 21.0955 15.5717 20.5335 14.1589 20.532ZM14.1589 29.6192C13.4156 29.6192 12.6889 29.3988 12.0708 28.9858C11.4527 28.5728 10.971 27.9858 10.6865 27.299C10.402 26.6123 10.3276 25.8565 10.4726 25.1274C10.6176 24.3984 10.9756 23.7287 11.5012 23.203C12.0269 22.6774 12.6966 22.3194 13.4257 22.1744C14.1548 22.0294 14.9105 22.1038 15.5973 22.3883C16.2841 22.6727 16.8711 23.1545 17.284 23.7726C17.697 24.3907 17.9175 25.1173 17.9175 25.8607C17.9165 26.8573 17.5202 27.8128 16.8156 28.5175C16.1109 29.2222 15.1555 29.6187 14.1589 29.6198V29.6192Z" fill="#D31A2C"/>
<path d="M23.3191 38.2109H42.948C43.1562 38.2109 43.3559 38.1282 43.5032 37.981C43.6504 37.8337 43.7332 37.634 43.7332 37.4258C43.7332 37.2175 43.6504 37.0178 43.5032 36.8706C43.3559 36.7233 43.1562 36.6406 42.948 36.6406H23.3191C23.1109 36.6406 22.9111 36.7233 22.7639 36.8706C22.6167 37.0178 22.5339 37.2175 22.5339 37.4258C22.5339 37.634 22.6167 37.8337 22.7639 37.981C22.9111 38.1282 23.1109 38.2109 23.3191 38.2109Z" fill="#D31A2C"/>
<path d="M15.3909 37.2805L13.6464 38.9483L12.9389 38.2408C12.8663 38.1662 12.7797 38.1069 12.684 38.0661C12.5883 38.0253 12.4855 38.004 12.3815 38.0033C12.2775 38.0026 12.1744 38.0225 12.0782 38.062C11.982 38.1015 11.8945 38.1597 11.821 38.2332C11.7475 38.3068 11.6893 38.3942 11.6498 38.4904C11.6103 38.5867 11.5904 38.6898 11.5911 38.7938C11.5918 38.8978 11.6132 39.0006 11.6539 39.0963C11.6947 39.192 11.7541 39.2786 11.8286 39.3511L13.079 40.6016C13.2241 40.7467 13.4202 40.8292 13.6254 40.8315C13.8306 40.8338 14.0285 40.7557 14.1768 40.6139L16.4761 38.4155C16.5514 38.3444 16.6118 38.2591 16.654 38.1646C16.6961 38.0701 16.7192 37.9681 16.7218 37.8647C16.7245 37.7612 16.7066 37.6582 16.6693 37.5617C16.632 37.4651 16.5759 37.3769 16.5044 37.3021C16.4329 37.2273 16.3473 37.1674 16.2525 37.1258C16.1577 37.0842 16.0556 37.0617 15.9521 37.0597C15.8487 37.0577 15.7458 37.0762 15.6495 37.1141C15.5532 37.152 15.4653 37.2085 15.3909 37.2805Z" fill="#D31A2C"/>
<path d="M14.1589 33.6179C13.105 33.6179 12.0747 33.9305 11.1984 34.516C10.322 35.1016 9.63903 35.9338 9.2357 36.9075C8.83238 37.8813 8.72686 38.9527 8.93248 39.9864C9.13811 41.0201 9.64564 41.9697 10.3909 42.7149C11.1362 43.4601 12.0857 43.9677 13.1194 44.1733C14.1531 44.3789 15.2246 44.2733 16.1983 43.87C17.172 43.4666 18.0043 42.7836 18.5898 41.9072C19.1753 41.0309 19.4878 40.0006 19.4878 38.9467C19.4862 37.5339 18.9242 36.1794 17.9252 35.1804C16.9262 34.1814 15.5717 33.6195 14.1589 33.6179ZM14.1589 42.7052C13.4156 42.7052 12.6889 42.4848 12.0708 42.0718C11.4527 41.6588 10.971 41.0718 10.6865 40.385C10.402 39.6982 10.3276 38.9425 10.4726 38.2134C10.6176 37.4843 10.9756 36.8146 11.5012 36.289C12.0269 35.7633 12.6966 35.4053 13.4257 35.2603C14.1548 35.1153 14.9105 35.1897 15.5973 35.4742C16.2841 35.7587 16.8711 36.2404 17.284 36.8585C17.697 37.4766 17.9175 38.2033 17.9175 38.9467C17.9165 39.9432 17.5202 40.8987 16.8156 41.6035C16.1109 42.3082 15.1555 42.7046 14.1589 42.7057V42.7052Z" fill="#D31A2C"/>
<path d="M15.3909 50.3665L13.6464 52.0343L12.9389 51.3267C12.8663 51.2522 12.7797 51.1928 12.684 51.152C12.5883 51.1113 12.4855 51.0899 12.3815 51.0892C12.2775 51.0885 12.1744 51.1085 12.0782 51.148C11.982 51.1874 11.8945 51.2456 11.821 51.3192C11.7475 51.3927 11.6893 51.4802 11.6498 51.5764C11.6103 51.6726 11.5904 51.7757 11.5911 51.8797C11.5918 51.9837 11.6132 52.0865 11.6539 52.1822C11.6947 52.2779 11.7541 52.3645 11.8286 52.4371L13.079 53.6875C13.2241 53.8326 13.4202 53.9152 13.6254 53.9175C13.8306 53.9198 14.0285 53.8416 14.1768 53.6998L16.4761 51.5014C16.5514 51.4303 16.6118 51.3451 16.654 51.2505C16.6961 51.156 16.7192 51.0541 16.7218 50.9506C16.7245 50.8471 16.7066 50.7442 16.6693 50.6476C16.632 50.5511 16.5759 50.4629 16.5044 50.388C16.4329 50.3132 16.3473 50.2533 16.2525 50.2117C16.1577 50.1701 16.0556 50.1477 15.9521 50.1457C15.8487 50.1436 15.7458 50.1621 15.6495 50.2C15.5532 50.2379 15.4653 50.2945 15.3909 50.3665Z" fill="#D31A2C"/>
<path d="M14.1589 46.7039C13.105 46.7039 12.0747 47.0164 11.1984 47.6019C10.322 48.1875 9.63903 49.0198 9.2357 49.9935C8.83238 50.9672 8.72686 52.0387 8.93248 53.0724C9.13811 54.1061 9.64564 55.0556 10.3909 55.8008C11.1362 56.5461 12.0857 57.0536 13.1194 57.2592C14.1531 57.4648 15.2246 57.3593 16.1983 56.9559C17.172 56.5526 18.0043 55.8695 18.5898 54.9932C19.1753 54.1168 19.4878 53.0865 19.4878 52.0326C19.4862 50.6198 18.9242 49.2653 17.9252 48.2663C16.9262 47.2673 15.5717 46.7054 14.1589 46.7039ZM14.1589 55.7911C13.4156 55.7911 12.6889 55.5707 12.0708 55.1577C11.4527 54.7447 10.971 54.1577 10.6865 53.4709C10.402 52.7841 10.3276 52.0284 10.4726 51.2993C10.6176 50.5702 10.9756 49.9005 11.5012 49.3749C12.0269 48.8493 12.6966 48.4913 13.4257 48.3463C14.1548 48.2012 14.9105 48.2757 15.5973 48.5601C16.2841 48.8446 16.8711 49.3264 17.284 49.9445C17.697 50.5625 17.9175 51.2892 17.9175 52.0326C17.9165 53.0292 17.5202 53.9847 16.8156 54.6894C16.1109 55.3941 15.1555 55.7905 14.1589 55.7917V55.7911Z" fill="#D31A2C"/>
<path d="M23.3191 27.7422H33.7879C33.9961 27.7422 34.1958 27.6595 34.343 27.5122C34.4903 27.365 34.573 27.1653 34.573 26.957C34.573 26.7488 34.4903 26.5491 34.343 26.4018C34.1958 26.2546 33.9961 26.1719 33.7879 26.1719H23.3191C23.1109 26.1719 22.9111 26.2546 22.7639 26.4018C22.6167 26.5491 22.5339 26.7488 22.5339 26.957C22.5339 27.1653 22.6167 27.365 22.7639 27.5122C22.9111 27.6595 23.1109 27.7422 23.3191 27.7422Z" fill="#D31A2C"/>
<path d="M23.3191 40.8281H33.7879C33.9961 40.8281 34.1958 40.7454 34.343 40.5982C34.4903 40.4509 34.573 40.2512 34.573 40.043C34.573 39.8347 34.4903 39.635 34.343 39.4878C34.1958 39.3405 33.9961 39.2578 33.7879 39.2578H23.3191C23.1109 39.2578 22.9111 39.3405 22.7639 39.4878C22.6167 39.635 22.5339 39.8347 22.5339 40.043C22.5339 40.2512 22.6167 40.4509 22.7639 40.5982C22.9111 40.7454 23.1109 40.8281 23.3191 40.8281Z" fill="#D31A2C"/>
<path d="M7.7207 12.3137C7.51247 12.3137 7.31276 12.3964 7.16551 12.5437C7.01827 12.6909 6.93555 12.8906 6.93555 13.0989V13.9233C6.93555 14.1315 7.01827 14.3312 7.16551 14.4785C7.31276 14.6257 7.51247 14.7084 7.7207 14.7084C7.92894 14.7084 8.12865 14.6257 8.27589 14.4785C8.42314 14.3312 8.50586 14.1315 8.50586 13.9233V13.0989C8.50586 12.8906 8.42314 12.6909 8.27589 12.5437C8.12865 12.3964 7.92894 12.3137 7.7207 12.3137Z" fill="#D31A2C"/>
<path d="M7.7207 15.6233C7.51247 15.6233 7.31276 15.706 7.16551 15.8533C7.01827 16.0005 6.93555 16.2002 6.93555 16.4084V23.9983C6.93555 24.2065 7.01827 24.4062 7.16551 24.5535C7.31276 24.7007 7.51247 24.7835 7.7207 24.7835C7.92894 24.7835 8.12865 24.7007 8.27589 24.5535C8.42314 24.4062 8.50586 24.2065 8.50586 23.9983V16.4084C8.50586 16.3053 8.48555 16.2032 8.44609 16.108C8.40663 16.0127 8.3488 15.9262 8.27589 15.8533C8.20298 15.7803 8.11643 15.7225 8.02117 15.6831C7.92591 15.6436 7.82381 15.6233 7.7207 15.6233Z" fill="#D31A2C"/>
<path d="M59.8382 35.0311C59.3129 34.9209 58.771 34.9159 58.2438 35.0166C57.7166 35.1172 57.2146 35.3214 56.7668 35.6173L48.6797 40.9284V11.4666C48.6797 8.86899 46.545 6.80469 43.9473 6.80469H38.9961V4.36743C38.9961 4.1592 38.9134 3.95949 38.7661 3.81224C38.6189 3.665 38.4192 3.58228 38.2109 3.58228C38.0027 3.58228 37.803 3.665 37.6558 3.81224C37.5085 3.95949 37.4258 4.1592 37.4258 4.36743V6.80469H30.752V4.36743C30.752 4.1592 30.6692 3.95949 30.522 3.81224C30.3747 3.665 30.175 3.58228 29.9668 3.58228C29.7586 3.58228 29.5589 3.665 29.4116 3.81224C29.2644 3.95949 29.1816 4.1592 29.1816 4.36743V6.80469H22.6387V4.36743C22.6387 4.1592 22.556 3.95949 22.4087 3.81224C22.2615 3.665 22.0618 3.58228 21.8535 3.58228C21.6453 3.58228 21.4456 3.665 21.2983 3.81224C21.1511 3.95949 21.0684 4.1592 21.0684 4.36743V6.80469H14.3945V4.36743C14.3945 4.1592 14.3118 3.95949 14.1646 3.81224C14.0173 3.665 13.8176 3.58228 13.6094 3.58228C13.4011 3.58228 13.2014 3.665 13.0542 3.81224C12.9069 3.95949 12.8242 4.1592 12.8242 4.36743V6.80469H8.61526C8.00053 6.8003 7.39102 6.91768 6.82188 7.15007C6.25275 7.38245 5.73527 7.72524 5.2993 8.15864C4.86332 8.59205 4.51749 9.1075 4.28175 9.67525C4.04601 10.243 3.92503 10.8518 3.92578 11.4666V58.7068C3.92578 61.3045 6.01757 63.4668 8.61526 63.4668H43.9473C46.545 63.4668 48.6797 61.3045 48.6797 58.7068V50.7028L61.2534 42.4455C61.9287 42.0019 62.4573 41.368 62.7723 40.6239C63.0873 39.8799 63.1746 39.0591 63.0231 38.2655C62.8716 37.4718 62.4882 36.7409 61.9212 36.1652C61.3543 35.5894 60.6294 35.1948 59.8382 35.0311ZM38.1666 11.7216C38.4412 11.7216 38.7096 11.803 38.9379 11.9556C39.1663 12.1081 39.3442 12.325 39.4493 12.5787C39.5544 12.8324 39.5819 13.1116 39.5283 13.3809C39.4747 13.6502 39.3425 13.8976 39.1483 14.0918C38.9542 14.2859 38.7068 14.4182 38.4374 14.4718C38.1681 14.5253 37.889 14.4978 37.6353 14.3927C37.3816 14.2877 37.1647 14.1097 37.0122 13.8814C36.8596 13.6531 36.7782 13.3846 36.7782 13.11C36.7785 12.7419 36.9249 12.389 37.1852 12.1287C37.4455 11.8684 37.7985 11.722 38.1666 11.7216ZM29.9849 11.7216C30.2595 11.7216 30.5279 11.8031 30.7562 11.9557C30.9845 12.1082 31.1624 12.3251 31.2675 12.5788C31.3726 12.8325 31.4 13.1116 31.3465 13.381C31.2929 13.6503 31.1606 13.8977 30.9664 14.0918C30.7723 14.286 30.5249 14.4182 30.2555 14.4718C29.9862 14.5253 29.7071 14.4978 29.4534 14.3927C29.1997 14.2876 28.9828 14.1097 28.8303 13.8814C28.6777 13.653 28.5963 13.3846 28.5963 13.11C28.5967 12.7419 28.7432 12.389 29.0035 12.1287C29.2638 11.8684 29.6167 11.722 29.9849 11.7216ZM21.8029 11.7216C22.0775 11.7217 22.3459 11.8032 22.5741 11.9558C22.8024 12.1084 22.9803 12.3253 23.0853 12.579C23.1904 12.8327 23.2178 13.1118 23.1642 13.3811C23.1106 13.6504 22.9783 13.8978 22.7841 14.0919C22.5899 14.286 22.3425 14.4182 22.0732 14.4718C21.8039 14.5253 21.5247 14.4978 21.2711 14.3927C21.0174 14.2876 20.8006 14.1097 20.648 13.8813C20.4955 13.653 20.4141 13.3846 20.4141 13.11C20.4145 12.7418 20.5609 12.3889 20.8213 12.1286C21.0817 11.8683 21.4347 11.7219 21.8029 11.7216ZM13.6212 11.7216C13.8958 11.7216 14.1642 11.8031 14.3925 11.9557C14.6208 12.1082 14.7987 12.3251 14.9038 12.5788C15.0089 12.8325 15.0363 13.1116 14.9827 13.381C14.9292 13.6503 14.7969 13.8977 14.6027 14.0918C14.4086 14.286 14.1612 14.4182 13.8918 14.4718C13.6225 14.5253 13.3434 14.4978 13.0897 14.3927C12.836 14.2876 12.6191 14.1097 12.4666 13.8814C12.314 13.653 12.2326 13.3846 12.2326 13.11C12.233 12.7419 12.3795 12.389 12.6398 12.1287C12.9001 11.8684 13.253 11.722 13.6212 11.7216ZM47.1094 58.7068C47.1055 59.5468 46.7719 60.3517 46.1806 60.9482C45.5892 61.5448 44.7872 61.8853 43.9473 61.8965H8.61526C6.88321 61.8965 5.4961 60.4386 5.4961 58.7068V11.4666C5.49512 11.058 5.57533 10.6532 5.73208 10.2759C5.88883 9.89858 6.11899 9.55615 6.40919 9.26852C6.69939 8.98088 7.04386 8.75378 7.42257 8.60039C7.80128 8.447 8.20669 8.37039 8.61526 8.375H12.8242V10.2578C11.6465 10.6027 10.6565 11.7504 10.6565 13.1105C10.6565 13.499 10.733 13.8837 10.8817 14.2425C11.0304 14.6014 11.2483 14.9275 11.5229 15.2022C11.7976 15.4769 12.1237 15.6948 12.4826 15.8434C12.8415 15.9921 13.2262 16.0686 13.6146 16.0686C14.0031 16.0686 14.3877 15.9921 14.7466 15.8434C15.1055 15.6948 15.4316 15.4769 15.7063 15.2022C15.981 14.9275 16.1989 14.6014 16.3475 14.2425C16.4962 13.8837 16.5727 13.499 16.5727 13.1105C16.582 12.4597 16.3723 11.8246 15.9773 11.3072C15.5823 10.7899 15.0248 10.4203 14.3945 10.2578V8.375H21.0684V10.2578C20.4359 10.4193 19.8757 10.788 19.4772 11.3051C19.0788 11.8221 18.865 12.4578 18.8699 13.1105C18.8699 13.8961 19.182 14.6494 19.7374 15.2049C20.2929 15.7604 21.0463 16.0724 21.8318 16.0724C22.6173 16.0724 23.3707 15.7604 23.9262 15.2049C24.4816 14.6494 24.7937 13.8961 24.7937 13.1105C24.7825 12.4682 24.5679 11.8459 24.1806 11.3333C23.7934 10.8207 23.2535 10.4441 22.6387 10.2578V8.375H29.1816V10.2578C28.0039 10.6027 27.0171 11.7504 27.0171 13.1105C27.0171 13.8949 27.3287 14.6471 27.8833 15.2018C28.4379 15.7564 29.1902 16.068 29.9745 16.068C30.7589 16.068 31.5111 15.7564 32.0657 15.2018C32.6204 14.6471 32.9319 13.8949 32.9319 13.1105C32.9408 12.4595 32.7307 11.8244 32.3354 11.3071C31.9401 10.7898 31.3824 10.4202 30.752 10.2578V8.375H37.4258V10.2578C36.7935 10.4193 36.2337 10.7881 35.8356 11.3053C35.4376 11.8224 35.2244 12.458 35.2301 13.1105C35.2301 13.896 35.5421 14.6492 36.0975 15.2046C36.6529 15.76 37.4061 16.072 38.1916 16.072C38.977 16.072 39.7303 15.76 40.2857 15.2046C40.841 14.6492 41.1531 13.896 41.1531 13.1105C41.1531 11.7509 40.1738 10.6033 38.9961 10.2578V8.375H43.9473C45.679 8.375 47.1094 9.73489 47.1094 11.4666V41.9595L44.1602 43.8963C44.0696 43.9558 43.9923 44.0334 43.9332 44.1243C43.8741 44.2152 43.8345 44.3173 43.8168 44.4243C43.7991 44.5312 43.8038 44.6407 43.8304 44.7457C43.8571 44.8508 43.9053 44.9492 43.9719 45.0347C44.0931 45.1903 44.2685 45.2945 44.4631 45.3267C44.6577 45.3589 44.8573 45.3167 45.0222 45.2084L56.6972 37.5415L57.6468 38.9869L37.8665 51.9773L36.9166 50.5317L40.633 48.0916C40.7192 48.035 40.7934 47.962 40.8514 47.8767C40.9093 47.7914 40.95 47.6956 40.9709 47.5946C40.9918 47.4937 40.9926 47.3896 40.9733 47.2883C40.954 47.187 40.915 47.0905 40.8584 47.0043C40.8018 46.9181 40.7287 46.8439 40.6435 46.7859C40.5582 46.728 40.4623 46.6874 40.3614 46.6664C40.2604 46.6455 40.1563 46.6447 40.055 46.664C39.9537 46.6833 39.8572 46.7224 39.771 46.779L35.4018 49.648C35.3938 49.6534 35.3865 49.6601 35.3784 49.6657C35.3585 49.6798 35.3391 49.694 35.32 49.7099C35.3137 49.7152 35.3082 49.7212 35.3023 49.7267H23.3191C23.1109 49.7267 22.9112 49.8094 22.764 49.9567C22.6167 50.1039 22.534 50.3036 22.534 50.5119C22.534 50.7201 22.6167 50.9198 22.764 51.067C22.9112 51.2143 23.1109 51.297 23.3191 51.297H34.4173L33.8613 52.3475C33.8371 52.3453 33.8128 52.3439 33.7879 52.3439H23.3191C23.1109 52.3439 22.9112 52.4266 22.764 52.5738C22.6167 52.7211 22.534 52.9208 22.534 53.129C22.534 53.3373 22.6167 53.537 22.764 53.6842C22.9112 53.8315 23.1109 53.9142 23.3191 53.9142H33.0322L32.1244 55.6291C32.0611 55.7487 32.0298 55.8827 32.0335 56.018C32.0372 56.1533 32.0758 56.2853 32.1456 56.4013C32.2154 56.5172 32.314 56.6132 32.4318 56.6798C32.5496 56.7465 32.6826 56.7815 32.818 56.7816C32.8249 56.7816 32.8318 56.7816 32.8386 56.7816L39.4741 56.6077C39.4902 56.6077 39.5061 56.6045 39.522 56.6032C39.538 56.6019 39.5562 56.601 39.5732 56.5984C39.594 56.5952 39.6141 56.5899 39.6343 56.5853C39.6492 56.5818 39.6643 56.5793 39.6792 56.5748C39.7135 56.5645 39.747 56.5519 39.7796 56.537C39.7875 56.5335 39.795 56.5285 39.8028 56.5239C39.8283 56.5116 39.853 56.4979 39.8769 56.4828C39.8795 56.4811 39.8823 56.4802 39.8846 56.4785L47.1094 51.7341V58.7068ZM38.0226 55.0745L34.1404 55.1762L35.9021 51.8474L38.0226 55.0745ZM39.6787 54.7352L39.6183 54.6436L38.7285 53.29L58.5088 40.3002L59.4586 41.7456L39.6787 54.7352ZM60.7487 40.8484L58.0326 36.7147C58.3673 36.574 58.7283 36.5068 59.0911 36.5177C59.454 36.5286 59.8103 36.6174 60.1359 36.778C60.3245 36.8688 60.4995 36.9855 60.6558 37.1247C60.9204 37.3545 61.1342 37.6369 61.2836 37.954C61.4329 38.271 61.5146 38.6157 61.5233 38.9661C61.5321 39.3164 61.4677 39.6647 61.3343 39.9888C61.201 40.3129 61.0015 40.6057 60.7487 40.8484Z" fill="#D31A2C"/>
</svg>
