<svg width="87" height="87" viewBox="0 0 87 87" fill="none" xmlns="http://www.w3.org/2000/svg">
<g clip-path="url(#clip0)">
<path d="M6.55225 33.6716L10.0105 34.5817C14.1966 19.475 28.2112 8.91843 44.046 8.91843V5.27832C26.7553 5.27832 11.2845 16.9268 6.55225 33.6716Z" fill="#362F4C"/>
<path d="M8.55436 44.2281H4.91406C4.91406 62.0649 16.9267 77.7177 34.2174 82.0859L35.1274 78.4458C19.4749 74.4415 8.55436 60.4268 8.55436 44.2281Z" fill="#362F4C"/>
<path d="M77.1717 56.6045C71.8934 70.4372 58.6068 79.5376 44.0461 79.5376V83.1777C60.0629 83.1777 74.8056 73.1673 80.6299 57.8785L77.1717 56.6045Z" fill="#362F4C"/>
<path d="M57.5145 7.4624L56.2405 10.9206C70.0732 16.0168 79.3555 29.4855 79.3555 44.2282H82.9956C82.9956 27.8474 72.8032 13.2867 57.5145 7.4624Z" fill="#362F4C"/>
<path d="M42.772 0.727905L40.0417 3.27609L43.5 6.73431L40.4059 11.4665L43.3179 13.4685L48.0501 6.37034L42.772 0.727905Z" fill="#362F4C"/>
<path d="M6.37038 40.0417L0 44.9561L2.18403 47.8682L6.55227 44.5921L10.1926 46.9582L12.1945 44.046L6.37038 40.0417Z" fill="#362F4C"/>
<path d="M46.594 77.1716L43.682 75.1694L39.6777 80.9938L43.4999 86.272L46.4121 84.0878L44.046 80.8117L46.594 77.1716Z" fill="#362F4C"/>
<path d="M85.18 40.9518L80.8117 43.6821L75.7155 40.4058L73.7134 43.5L80.8117 48.0502L87 44.0461L85.18 40.9518Z" fill="#362F4C"/>
</g>
<defs>
<clipPath id="clip0">
<rect width="87" height="87" fill="white"/>
</clipPath>
</defs>
</svg>
