<svg width="62" height="62" viewBox="0 0 62 62" fill="none" xmlns="http://www.w3.org/2000/svg">
<path d="M60.7082 0H19.375C18.662 0 18.0833 0.578707 18.0833 1.29171V42.625C18.0833 43.338 18.662 43.9167 19.375 43.9167H60.7082C61.4212 43.9167 61.9999 43.338 61.9999 42.625V1.29171C61.9999 0.578707 61.4212 0 60.7082 0ZM59.4167 41.3333H20.6667V2.58329H59.4167V41.3333Z" fill="#BC2A40"/>
<path d="M32.2917 41.3333C31.5787 41.3333 31 41.912 31 42.625V59.4167H2.58329V31H19.375C20.088 31 20.6667 30.4213 20.6667 29.7083C20.6667 28.9953 20.088 28.4166 19.375 28.4166H1.29171C0.578707 28.4167 0 28.9953 0 29.7083V60.7083C0 61.4213 0.578707 62 1.29171 62H32.2917C33.0047 62 33.5834 61.4213 33.5834 60.7083V42.625C33.5833 41.912 33.0047 41.3333 32.2917 41.3333Z" fill="#BC2A40"/>
<path d="M53.4518 7.85077C52.9713 7.64673 52.4159 7.75778 52.0439 8.12978L26.2106 33.9631C25.7068 34.4668 25.7068 35.2858 26.2106 35.7895C26.4638 36.0401 26.7944 36.1667 27.1251 36.1667C27.4558 36.1667 27.7864 36.0402 28.0396 35.787L51.6668 12.1598V19.375C51.6668 20.088 52.2455 20.6667 52.9585 20.6667C53.6715 20.6667 54.2502 20.088 54.2502 19.375V9.04173C54.2501 8.51982 53.9349 8.04707 53.4518 7.85077Z" fill="#BC2A40"/>
<path d="M52.9582 7.75H42.625C41.912 7.75 41.3333 8.32871 41.3333 9.04171C41.3333 9.75471 41.912 10.3333 42.625 10.3333H52.9582C53.6712 10.3333 54.25 9.75459 54.25 9.04159C54.25 8.32859 53.6712 7.75 52.9582 7.75Z" fill="#BC2A40"/>
<path d="M27.125 28.4167H24.5417C23.8287 28.4167 23.25 28.9955 23.25 29.7085C23.25 30.4215 23.8287 31 24.5417 31H27.125C27.838 31 28.4167 30.4213 28.4167 29.7083C28.4167 28.9953 27.838 28.4167 27.125 28.4167Z" fill="#BC2A40"/>
<path d="M32.2917 33.5833C31.5787 33.5833 31 34.162 31 34.875V37.4583C31 38.1713 31.5787 38.75 32.2917 38.75C33.0047 38.75 33.5834 38.1713 33.5834 37.4583V34.875C33.5833 34.162 33.0047 33.5833 32.2917 33.5833Z" fill="#BC2A40"/>
</svg>
