<svg width="58" height="58" viewBox="0 0 58 58" fill="none" xmlns="http://www.w3.org/2000/svg">
<path d="M35.7667 33.8333H34.7033C34.3034 33.834 33.9456 33.5845 33.8082 33.2088C33.6903 32.8995 33.5636 32.5969 33.4273 32.2972C33.2579 31.9328 33.3353 31.5013 33.6207 31.2184L34.3785 30.4596C35.5036 29.3246 35.5016 27.4942 34.3737 26.3619L31.6419 23.6301C30.5081 22.503 28.677 22.503 27.5432 23.6301L26.7854 24.387C26.5019 24.6713 26.0711 24.7485 25.7066 24.5803C25.4069 24.444 25.1043 24.3174 24.794 24.1937C24.4164 24.0572 24.1652 23.6981 24.1667 23.2966V22.2333C24.1667 20.6316 22.8683 19.3333 21.2667 19.3333H17.4C15.7984 19.3333 14.5 20.6316 14.5 22.2333V23.2966C14.5007 23.6965 14.2512 24.0543 13.8755 24.1917C13.5662 24.3097 13.2636 24.4363 12.964 24.5726C12.5994 24.7411 12.1685 24.6639 11.8852 24.3793L11.1263 23.6214C9.99268 22.495 8.16229 22.495 7.02863 23.6214L4.29683 26.3619C3.1697 27.4957 3.1697 29.3268 4.29683 30.4606L5.05373 31.2184C5.33914 31.5013 5.41648 31.9328 5.24707 32.2972C5.11077 32.5969 4.98413 32.8995 4.86523 33.2098C4.72688 33.5876 4.36571 33.8374 3.96333 33.8333H2.9C1.29835 33.8333 0 35.1316 0 36.7332V40.5999C0 42.2016 1.29835 43.4999 2.9 43.4999H3.96333C4.36329 43.4992 4.72108 43.7487 4.85847 44.1244C4.9764 44.4337 5.10303 44.7363 5.23933 45.0359C5.40874 45.4004 5.33141 45.8319 5.046 46.1148L4.28813 46.8736C3.16173 48.0072 3.16173 49.8376 4.28813 50.9713L7.01993 53.7031C8.15371 54.8302 9.98482 54.8302 11.1186 53.7031L11.8765 52.9462C12.1599 52.6619 12.5907 52.5846 12.9553 52.7528C13.2549 52.8891 13.5575 53.0158 13.8678 53.1395C14.2473 53.2744 14.5007 53.6338 14.5 54.0366V55.0999C14.5 56.7016 15.7984 57.9999 17.4 57.9999H21.2667C22.8683 57.9999 24.1667 56.7016 24.1667 55.0999V54.0366C24.1659 53.6366 24.4155 53.2788 24.7911 53.1414C25.1005 53.0235 25.403 52.8969 25.7027 52.7606C26.0673 52.592 26.4981 52.6692 26.7815 52.9539L27.5403 53.7118C28.6756 54.8364 30.5055 54.8342 31.638 53.7069L34.3698 50.9752C35.497 49.8414 35.497 48.0103 34.3698 46.8765L33.6129 46.1186C33.3275 45.8357 33.2502 45.4042 33.4196 45.0398C33.5559 44.7401 33.6825 44.4376 33.8063 44.1273C33.9427 43.7497 34.3018 43.4985 34.7033 43.4999H35.7667C37.3683 43.4999 38.6667 42.2016 38.6667 40.5999V36.7332C38.6667 35.1316 37.3683 33.8333 35.7667 33.8333ZM36.7333 40.5999C36.7333 41.1338 36.3005 41.5666 35.7667 41.5666H34.7033C33.5016 41.5711 32.4262 42.3138 31.9967 43.4361C31.8942 43.7068 31.7834 43.9732 31.6641 44.2356C31.1671 45.3327 31.3977 46.6227 32.2441 47.4797L33.0001 48.2366C33.3778 48.6138 33.3782 49.226 33.0008 49.6037C33.0005 49.6039 33.0003 49.6042 33.0001 49.6044L30.2683 52.3362C29.8908 52.7136 29.2789 52.7136 28.9014 52.3362L28.1435 51.5793C27.2869 50.7322 25.9964 50.5015 24.8994 50.9993C24.6374 51.1182 24.3706 51.2294 24.1019 51.3319C22.9804 51.7613 22.2382 52.8357 22.2333 54.0366V55.0999C22.2333 55.6338 21.8005 56.0666 21.2667 56.0666H17.4C16.8662 56.0666 16.4333 55.6338 16.4333 55.0999V54.0366C16.4289 52.8349 15.6861 51.7595 14.5638 51.3299C14.2931 51.2274 14.0267 51.1166 13.7644 50.9974C12.6672 50.5006 11.3773 50.7313 10.5202 51.5774L9.76333 52.3333C9.38609 52.711 8.77395 52.7114 8.39622 52.334C8.39598 52.3338 8.39574 52.3336 8.3955 52.3333L5.6637 49.6044C5.28634 49.2269 5.28634 48.615 5.6637 48.2376L6.4206 47.4797C7.26704 46.6227 7.49759 45.3327 7.0006 44.2356C6.8817 43.9736 6.77053 43.7068 6.66807 43.4381C6.23959 42.3154 5.1649 41.5719 3.96333 41.5666H2.9C2.36616 41.5666 1.93333 41.1338 1.93333 40.5999V36.7332C1.93333 36.1994 2.36616 35.7666 2.9 35.7666H3.96333C5.16502 35.7621 6.24044 35.0194 6.67 33.8971C6.77247 33.6264 6.88327 33.3599 7.00253 33.0976C7.49952 32.0004 7.26885 30.7104 6.42253 29.8535L5.66273 29.0966C5.28501 28.7193 5.28465 28.1072 5.66201 27.7295C5.66225 27.7292 5.66249 27.729 5.66273 27.7288L8.39453 24.997C8.77202 24.6196 9.38392 24.6196 9.7614 24.997L10.5193 25.7539C11.3759 26.601 12.6664 26.8317 13.7634 26.3339C14.0254 26.215 14.2922 26.1038 14.5609 26.0013C15.6839 25.5732 16.4279 24.4984 16.4333 23.2966V22.2333C16.4333 21.6994 16.8662 21.2666 17.4 21.2666H21.2667C21.8005 21.2666 22.2333 21.6994 22.2333 22.2333V23.2966C22.2378 24.4983 22.9806 25.5737 24.1029 26.0033C24.3735 26.1057 24.64 26.2165 24.9023 26.3358C25.9993 26.8336 27.2898 26.6029 28.1464 25.7558L28.9033 24.9999C29.2823 24.625 29.8922 24.625 30.2712 24.9999L33.003 27.7317C33.3803 28.1091 33.3803 28.721 33.003 29.0985L32.2461 29.8564C31.3998 30.7133 31.1691 32.0034 31.6661 33.1005C31.785 33.3625 31.8961 33.6293 31.9986 33.898C32.428 35.0195 33.5025 35.7618 34.7033 35.7666H35.7667C36.3005 35.7666 36.7333 36.1994 36.7333 36.7332V40.5999Z" fill="#BC2A40"/>
<path d="M28.0141 38.2799C28.0044 38.0479 27.988 37.8169 27.96 37.5868C27.929 37.3393 27.8923 37.0938 27.8411 36.8531C27.8072 36.6955 27.7628 36.5399 27.7202 36.3833C27.6661 36.1842 27.6052 35.9879 27.5375 35.7946C27.4902 35.6602 27.4409 35.5268 27.3906 35.3944C27.2661 35.0848 27.1238 34.7826 26.9643 34.4896C26.9517 34.4674 26.944 34.4432 26.9314 34.421C26.68 33.9734 26.3888 33.5491 26.0614 33.1537C26.0334 33.1189 26.0015 33.086 25.9725 33.0522C25.8391 32.8946 25.7018 32.7419 25.5578 32.5959C25.4824 32.5176 25.4031 32.4441 25.3239 32.3687C25.2272 32.2788 25.1305 32.1899 25.0339 32.1048C24.9165 32.003 24.797 31.9044 24.6752 31.809L24.5167 31.6911C23.0209 30.5707 21.2022 29.9656 19.3334 29.9666C19.2368 29.9666 19.1401 29.9811 19.0434 29.9849C18.8375 29.9907 18.6307 30.0023 18.4228 30.0236C18.3136 30.0352 18.2034 30.0478 18.0942 30.0632C17.779 30.1047 17.4663 30.1632 17.1575 30.2382C12.5028 31.441 9.70459 36.1895 10.9074 40.8441C11.7 43.9113 14.0964 46.3058 17.1642 47.0959C17.1797 47.0959 17.1961 47.1007 17.2126 47.1046C17.5464 47.1879 17.8846 47.2525 18.2256 47.2979C18.4509 47.326 18.6761 47.3318 18.9023 47.3424C19.0531 47.3501 19.1923 47.3724 19.3499 47.3724C19.6254 47.3724 19.9115 47.354 20.2034 47.325C20.2344 47.325 20.2653 47.3163 20.3001 47.3124C20.535 47.2863 20.7728 47.2515 21.0154 47.2032C21.1121 47.1848 21.202 47.1607 21.2948 47.1394C21.4649 47.0998 21.6341 47.0582 21.8081 47.007C21.9434 46.9664 22.0749 46.919 22.2073 46.8726C22.3398 46.8262 22.477 46.7759 22.6143 46.7237C22.7516 46.6715 22.8666 46.6116 22.9913 46.5536C23.1537 46.4792 23.3151 46.4057 23.4746 46.3187H23.4804C24.3826 45.8357 25.2158 45.234 25.958 44.5294C26.1585 44.3423 26.3328 44.129 26.4761 43.8953C27.2306 42.6857 27.7263 41.333 27.9319 39.9223C27.959 39.7357 27.9832 39.5491 27.9977 39.3587C28.0112 39.1837 28.0209 39.0097 28.0247 38.8357C28.0247 38.7806 28.0325 38.7284 28.0325 38.6733C28.0334 38.537 28.0199 38.4114 28.0141 38.2799ZM26.0875 38.9131C26.0875 38.9933 26.0808 39.0735 26.0759 39.1528C26.0585 39.3867 26.0286 39.6207 25.9889 39.8556C25.6276 41.8654 24.3798 43.6054 22.5921 44.5922C22.4722 44.6551 22.3543 44.714 22.2363 44.7682L22.1561 44.8068C21.5945 45.0618 21.0017 45.2412 20.3929 45.3404C20.3504 45.3472 20.3069 45.3549 20.2634 45.3607C20.1425 45.3781 20.0236 45.3926 19.9057 45.4033C19.7501 45.4168 19.5935 45.4245 19.434 45.4274C19.3663 45.4274 19.2996 45.4274 19.2319 45.4274C19.0032 45.4248 18.7748 45.4106 18.5475 45.3849L18.4315 45.3714C18.1657 45.3366 17.902 45.2869 17.6418 45.2225C14.0214 44.2958 11.8377 40.6097 12.7642 36.9893C13.3765 34.597 15.2433 32.7282 17.635 32.1135V32.1126C18.1903 31.9725 18.7607 31.901 19.3334 31.8999C19.6098 31.9015 19.8859 31.9202 20.1599 31.956C20.2334 31.9647 20.3059 31.9782 20.3784 31.9888C20.5872 32.0217 20.7941 32.0633 20.998 32.1155C21.0647 32.1329 21.1314 32.1483 21.1972 32.1667C21.7112 32.3151 22.206 32.5234 22.6713 32.7873C22.7458 32.8308 22.8183 32.8762 22.8917 32.9217C23.0445 33.0183 23.1924 33.115 23.3383 33.2252C23.4166 33.2822 23.4959 33.3383 23.5713 33.3992C23.761 33.5507 23.9426 33.712 24.1155 33.8825C24.1842 33.9521 24.247 34.0285 24.3137 34.101C24.4249 34.2218 24.5331 34.3456 24.6366 34.4761C24.7081 34.566 24.7767 34.6588 24.8444 34.7525C24.9411 34.8917 25.0377 35.0367 25.1247 35.1837C25.1731 35.2639 25.2214 35.3422 25.2707 35.4244C25.3954 35.6538 25.5064 35.8904 25.6032 36.1329C25.6419 36.2296 25.6748 36.3263 25.7096 36.4229C25.7724 36.6008 25.8265 36.7806 25.8739 36.9623C25.8981 37.059 25.9251 37.145 25.9454 37.2388C26.0019 37.5 26.0428 37.7644 26.0682 38.0305C26.074 38.1011 26.074 38.1726 26.0788 38.2432C26.0924 38.4655 26.0962 38.6888 26.0875 38.9131Z" fill="#BC2A40"/>
<path d="M55.0999 20.3H52.0597C51.6543 20.3041 51.2917 20.0488 51.1588 19.6659C50.859 18.768 50.4962 17.8922 50.0732 17.0452C49.8936 16.6795 49.9684 16.2398 50.2588 15.9539L52.4145 13.7953C53.546 12.663 53.546 10.828 52.4145 9.69567L48.3042 5.59217C47.1719 4.46068 45.3369 4.46068 44.2046 5.59217L42.0499 7.7459C41.7643 8.03614 41.3252 8.1113 40.9595 7.93247C40.1124 7.50725 39.2364 7.14258 38.3379 6.8411C37.9534 6.70951 37.6962 6.34653 37.6999 5.94017V2.9C37.6999 1.29835 36.4015 0 34.7999 0H28.9999C27.3982 0 26.0999 1.29835 26.0999 2.9V5.94017C26.104 6.34556 25.8488 6.70818 25.4657 6.8411C24.5677 7.14246 23.6919 7.50689 22.8451 7.9315C22.4793 8.11166 22.0394 8.03687 21.7537 7.7459L19.5952 5.59023C18.4615 4.46201 16.6292 4.46201 15.4955 5.59023L11.393 9.69277C10.2609 10.8252 10.2609 12.6609 11.393 13.7934L14.5627 16.9689C14.9461 17.3403 15.5581 17.3306 15.9296 16.9471C16.292 16.573 16.2928 15.979 15.9315 15.6039L12.7599 12.4294C12.3825 12.0519 12.3825 11.44 12.7599 11.0625L16.8624 6.96C17.2399 6.58264 17.8518 6.58264 18.2293 6.96L20.3888 9.11567C21.2626 9.99461 22.6014 10.2143 23.7103 9.66087C24.476 9.27746 25.2677 8.94831 26.0796 8.67583C27.2514 8.27914 28.0383 7.17738 28.0332 5.94017V2.9C28.0332 2.36616 28.466 1.93333 28.9999 1.93333H34.7999C35.3337 1.93333 35.7665 2.36616 35.7665 2.9V5.94017C35.7616 7.17714 36.5485 8.27853 37.7202 8.67487C38.5324 8.94747 39.3245 9.27686 40.0904 9.66087C41.1996 10.2114 42.5366 9.99147 43.4109 9.1147L45.5705 6.96C45.948 6.58264 46.5599 6.58264 46.9373 6.96L51.0399 11.0635C51.4166 11.4409 51.4166 12.052 51.0399 12.4294L48.8842 14.5889C48.0061 15.4632 47.7866 16.8014 48.339 17.9104C48.7224 18.6761 49.0516 19.4678 49.324 20.2797C49.7205 21.4518 50.8224 22.2386 52.0597 22.2333H55.0999C55.6337 22.2333 56.0665 22.6662 56.0665 23.2V29C56.0665 29.5338 55.6337 29.9667 55.0999 29.9667H52.0597C50.8227 29.9617 49.7213 30.7486 49.325 31.9203C49.0525 32.7325 48.723 33.5246 48.339 34.2906C47.7875 35.3996 48.0076 36.7371 48.8852 37.6111L51.0408 39.7706C51.4182 40.1481 51.4182 40.76 51.0408 41.1375L46.9364 45.24C46.559 45.6168 45.9478 45.6168 45.5705 45.24L42.394 42.0703C42.0226 41.6868 41.4105 41.6771 41.0271 42.0485C40.6436 42.42 40.6339 43.032 41.0054 43.4154C41.0131 43.4234 41.0211 43.4314 41.0291 43.4391L44.2046 46.6088C45.3369 47.7403 47.1719 47.7403 48.3042 46.6088L52.4067 42.5072C53.5388 41.3748 53.5388 39.5391 52.4067 38.4066L50.254 36.25C49.964 35.9643 49.8889 35.5254 50.0674 35.1596C50.4926 34.3126 50.8573 33.4365 51.1588 32.538C51.2904 32.1535 51.6533 31.8964 52.0597 31.9H55.0999C56.7015 31.9 57.9999 30.6016 57.9999 29V23.2C57.9999 21.5984 56.7015 20.3 55.0999 20.3Z" fill="#BC2A40"/>
<path d="M40.7857 17.2144C35.8753 12.3143 27.9249 12.3143 23.0145 17.2144C22.6436 17.5984 22.6543 18.2105 23.0383 18.5813C23.4129 18.9431 24.0068 18.9431 24.3813 18.5813C28.506 14.4009 35.2385 14.3559 39.4188 18.4805C43.5992 22.6052 43.6442 29.3376 39.5196 33.518C39.4862 33.5518 39.4527 33.5854 39.4188 33.6188C39.0348 33.9897 39.0242 34.6016 39.3951 34.9856C39.7661 35.3696 40.378 35.3803 40.762 35.0093C40.77 35.0016 40.778 34.9936 40.7857 34.9856C45.6858 30.0752 45.6858 22.1248 40.7857 17.2144Z" fill="#BC2A40"/>
</svg>
