<svg width="84" height="84" viewBox="0 0 84 84" fill="none" xmlns="http://www.w3.org/2000/svg">
<g clip-path="url(#clip0)">
<path d="M10.5527 59.0283C10.5527 60.0096 10.935 60.9323 11.6288 61.6263C12.3226 62.3201 13.2453 62.7023 14.2266 62.7023C15.2078 62.7023 16.1305 62.3201 16.8244 61.6263L25.9969 52.4537L30.1295 56.5863C31.5619 58.0185 33.8928 58.0185 35.3252 56.5863L47.235 44.6761L48.8748 46.3159C49.4948 46.9358 50.4189 47.1198 51.2288 46.7842C52.0387 46.4487 52.5622 45.6653 52.5622 44.7884V36.4092C52.5622 35.2183 51.5931 34.2491 50.4022 34.2491H42.023C41.1463 34.2491 40.3631 34.7725 40.0274 35.5825C39.6919 36.3925 39.8756 37.3166 40.4956 37.9368L42.0393 39.4803L32.7273 48.7925L28.5947 44.6599C27.1623 43.2276 24.8314 43.2276 23.399 44.6599L11.6288 56.4304C10.935 57.1244 10.5527 58.0471 10.5527 59.0283ZM13.3607 58.1626L25.131 46.3922C25.3697 46.1534 25.6834 46.0341 25.9969 46.0341C26.3104 46.0341 26.6241 46.1534 26.8628 46.3922L31.8613 51.3907C32.3396 51.8688 33.1149 51.8688 33.5932 51.3907L44.6372 40.3467C45.1155 39.8683 45.1155 39.0931 44.6372 38.6147L42.7211 36.6988H50.113V44.0906L48.1011 42.0785C47.8712 41.8488 47.5598 41.7199 47.235 41.7199C46.9101 41.7199 46.5987 41.8488 46.3689 42.0785L33.5932 54.8544C33.1156 55.3322 32.3388 55.3322 31.8613 54.8544L26.8628 49.8559C26.3846 49.3778 25.6092 49.3778 25.131 49.8559L15.0925 59.8944C13.646 61.0512 12.3879 59.0848 13.3607 58.1626Z" fill="#362F4C"/>
<path d="M80.8383 29.4506C82.5817 29.4506 84 28.0324 84 26.2889V19.4064C84 17.663 82.5817 16.2447 80.8383 16.2447H72.4938C71.8174 16.2447 71.2691 16.793 71.2691 17.4694C71.2691 18.1459 71.8174 18.6942 72.4938 18.6942H80.8383C81.2311 18.6942 81.5507 19.0138 81.5507 19.4065V26.2891C81.5507 26.6819 81.2311 27.0015 80.8383 27.0015H3.16165C2.76888 27.0015 2.44929 26.6819 2.44929 26.2891V19.4065C2.44929 19.0138 2.76888 18.6942 3.16165 18.6942H66.7585C67.4349 18.6942 67.9832 18.1459 67.9832 17.4694C67.9832 16.793 67.4349 16.2447 66.7585 16.2447H57.2147L47.321 8.87929C47.4149 8.47848 47.4662 8.0616 47.4662 7.63258C47.4662 4.61842 45.0142 2.1665 42.0002 2.1665C38.9862 2.1665 36.5341 4.61858 36.5341 7.63258C36.5341 8.0616 36.5853 8.47865 36.6793 8.87929L26.8767 16.1769C26.8478 16.1984 26.8209 16.2214 26.7947 16.2447H3.16165C1.41832 16.2447 0 17.663 0 19.4064V26.2889C0 28.0323 1.41832 29.4506 3.16165 29.4506H5.72791V32.6667C5.72791 33.3431 6.27621 33.8914 6.95264 33.8914C7.62907 33.8914 8.17737 33.3431 8.17737 32.6667V29.4506H75.8231V68.6281H8.1772V38.6132C8.1772 37.9367 7.62891 37.3884 6.95248 37.3884C6.27605 37.3884 5.72775 37.9367 5.72775 38.6132V68.6281H3.16165C1.41832 68.6279 0 70.0462 0 71.7894V78.672C0 80.4153 1.41832 81.8336 3.16165 81.8336H24.6611C25.3375 81.8336 25.8858 81.2853 25.8858 80.6089C25.8858 79.9325 25.3375 79.3842 24.6611 79.3842H3.16165C2.76888 79.3842 2.44929 79.0646 2.44929 78.6718V71.7892C2.44929 71.3965 2.76888 71.077 3.16165 71.077H80.8383C81.2311 71.077 81.5507 71.3965 81.5507 71.7892V78.6718C81.5507 79.0646 81.2311 79.3842 80.8383 79.3842H30.5115C29.8353 79.3842 29.2868 79.9325 29.2868 80.6089C29.2868 81.2853 29.8351 81.8336 30.5115 81.8336H80.8385C82.5818 81.8336 84.0002 80.4153 84.0002 78.672V71.7894C84.0002 70.0462 82.5818 68.6279 80.8385 68.6279H78.2723V29.4506H80.8383ZM42 4.61579C43.6634 4.61579 45.0168 5.96915 45.0168 7.63258C45.0168 9.296 43.6634 10.6494 42 10.6494C40.3366 10.6494 38.9832 9.296 38.9832 7.63258C38.9832 5.96915 40.3366 4.61579 42 4.61579ZM37.7851 11.1094C38.7885 12.3236 40.3054 13.0988 42 13.0988C43.6946 13.0988 45.2115 12.3236 46.2149 11.1094L53.1131 16.2449H30.8869L37.7851 11.1094Z" fill="#362F4C"/>
<path d="M64.1344 64.1782C67.7701 64.1782 70.7281 61.2201 70.7281 57.5845C70.7281 53.9489 67.7701 50.9908 64.1344 50.9908C60.4988 50.9908 57.5408 53.9489 57.5408 57.5845C57.5408 61.2201 60.4988 64.1782 64.1344 64.1782ZM64.1344 53.4401C66.4197 53.4401 68.2788 55.2993 68.2788 57.5845C68.2788 59.8697 66.4197 61.7289 64.1344 61.7289C61.8492 61.7289 59.9901 59.8697 59.9901 57.5845C59.9901 55.2993 61.8492 53.4401 64.1344 53.4401Z" fill="#362F4C"/>
<path d="M64.1344 47.5114C67.7701 47.5114 70.7281 44.5534 70.7281 40.9178C70.7281 37.2821 67.7701 34.3241 64.1344 34.3241C60.4988 34.3241 57.5408 37.2821 57.5408 40.9178C57.5408 44.5534 60.4988 47.5114 64.1344 47.5114ZM64.1344 36.7736C66.4197 36.7736 68.2788 38.6327 68.2788 40.9179C68.2788 43.2032 66.4197 45.0623 64.1344 45.0623C61.8492 45.0623 59.9901 43.2032 59.9901 40.9179C59.9901 38.6325 61.8492 36.7736 64.1344 36.7736Z" fill="#362F4C"/>
<path d="M21.15 62.3032C20.4736 62.3032 19.9253 62.8515 19.9253 63.5279C19.9253 64.2044 20.4736 64.7527 21.15 64.7527H32.723C33.3994 64.7527 33.9477 64.2044 33.9477 63.5279C33.9477 62.8515 33.3994 62.3032 32.723 62.3032H21.15Z" fill="#362F4C"/>
<path d="M21.15 36.7736H32.723C33.3994 36.7736 33.9477 36.2253 33.9477 35.5488C33.9477 34.8724 33.3994 34.3241 32.723 34.3241H21.15C20.4736 34.3241 19.9253 34.8724 19.9253 35.5488C19.9253 36.2253 20.4736 36.7736 21.15 36.7736Z" fill="#362F4C"/>
<path d="M21.15 41.5599H32.723C33.3994 41.5599 33.9477 41.0116 33.9477 40.3352C33.9477 39.6588 33.3994 39.1105 32.723 39.1105H21.15C20.4736 39.1105 19.9253 39.6588 19.9253 40.3352C19.9253 41.0118 20.4736 41.5599 21.15 41.5599Z" fill="#362F4C"/>
<path d="M38.8739 62.3032C38.1975 62.3032 37.6492 62.8515 37.6492 63.5279C37.6492 64.2044 38.1975 64.7527 38.8739 64.7527H42.7113C43.3877 64.7527 43.936 64.2044 43.936 63.5279C43.936 62.8515 43.3877 62.3032 42.7113 62.3032H38.8739Z" fill="#362F4C"/>
</g>
<defs>
<clipPath id="clip0">
<rect width="84" height="84" fill="white"/>
</clipPath>
</defs>
</svg>
