<svg width="47" height="48" viewBox="0 0 47 48" fill="none" xmlns="http://www.w3.org/2000/svg">
<path d="M44.7969 3.6521H2.20312C0.988469 3.6521 0 4.63241 0 5.83705V43.7125C0 44.1152 0.328266 44.4408 0.734375 44.4408H46.2656C46.6717 44.4408 47 44.1152 47 43.7125V5.83705C47 4.63241 46.0115 3.6521 44.7969 3.6521ZM1.46875 8.022H45.5312V42.9841H1.46875V8.022ZM2.20312 5.10873H2.95219C2.54681 5.10873 2.22222 5.43429 2.22222 5.83705C2.22222 6.23981 2.55416 6.56537 2.96027 6.56537C3.36564 6.56537 3.69464 6.23981 3.69464 5.83705C3.69464 5.43429 3.36564 5.10873 2.96027 5.10873H5.15458C4.7492 5.10873 4.42461 5.43429 4.42461 5.83705C4.42461 6.23981 4.75655 6.56537 5.16266 6.56537C5.56803 6.56537 5.89703 6.23981 5.89703 5.83705C5.89703 5.43429 5.56803 5.10873 5.16266 5.10873H7.35991C6.95453 5.10873 6.62994 5.43429 6.62994 5.83705C6.62994 6.23981 6.96187 6.56537 7.36798 6.56537C7.77336 6.56537 8.10236 6.23981 8.10236 5.83705C8.10236 5.43429 7.77336 5.10873 7.36798 5.10873H44.7969C45.2023 5.10873 45.5312 5.43502 45.5312 5.83705V6.56537H7.36725H5.16192H2.95953H1.46875V5.83705C1.46875 5.43502 1.79775 5.10873 2.20312 5.10873Z" fill="#CE1625"/>
<path d="M23.5 31.328C29.574 31.328 34.5156 26.4272 34.5156 20.4025C34.5156 14.3779 29.574 9.47778 23.5 9.47778C17.426 9.47778 12.4844 14.3786 12.4844 20.4025C12.4844 26.4265 17.426 31.328 23.5 31.328ZM23.5 10.9344C28.764 10.9344 33.0469 15.182 33.0469 20.4025C33.0469 25.6239 28.764 29.8714 23.5 29.8714C18.236 29.8714 13.9531 25.6239 13.9531 20.4025C13.9531 15.182 18.236 10.9344 23.5 10.9344Z" fill="#CE1625"/>
<path d="M29.7459 37.8879H17.2512C16.2385 37.8879 15.4153 38.7044 15.4153 39.7087C15.4153 40.7131 16.2385 41.5295 17.2512 41.5295H29.7459C30.7586 41.5295 31.5818 40.7131 31.5818 39.7087C31.5818 38.7044 30.7586 37.8879 29.7459 37.8879ZM17.2512 40.0729C17.0493 40.0729 16.884 39.909 16.884 39.7087C16.884 39.5084 17.0493 39.3446 17.2512 39.3446H29.7459C29.9478 39.3446 30.1131 39.5084 30.1131 39.7087C30.1131 39.909 29.9478 40.0729 29.7459 40.0729H17.2512Z" fill="#CE1625"/>
<path d="M40.3943 32.792H6.60278C6.19667 32.792 5.86841 33.1176 5.86841 33.5203C5.86841 33.9231 6.19667 34.2486 6.60278 34.2486H40.3943C40.8004 34.2486 41.1287 33.9231 41.1287 33.5203C41.1287 33.1176 40.8004 32.792 40.3943 32.792Z" fill="#CE1625"/>
<path d="M33.7835 34.9778H13.2136C12.8075 34.9778 12.4792 35.3033 12.4792 35.7061C12.4792 36.1089 12.8075 36.4344 13.2136 36.4344H33.7835C34.1896 36.4344 34.5178 36.1089 34.5178 35.7061C34.5178 35.3033 34.1896 34.9778 33.7835 34.9778Z" fill="#CE1625"/>
<path d="M21.5113 24.559C21.6545 24.701 21.8425 24.7724 22.0305 24.7724C22.2185 24.7724 22.4065 24.701 22.5497 24.559L29.1583 18.0049C29.4454 17.7201 29.4454 17.2598 29.1583 16.9751C28.8712 16.6903 28.407 16.6903 28.1199 16.9751L22.0305 23.0143L19.6144 20.6181C19.3272 20.3333 18.8631 20.3333 18.576 20.6181C18.2888 20.9029 18.2888 21.3632 18.576 21.6479L21.5113 24.559Z" fill="#CE1625"/>
</svg>
