<svg width="73" height="73" viewBox="0 0 73 73" fill="none" xmlns="http://www.w3.org/2000/svg">
<path d="M8.50985 68.5879C8.5407 68.8268 8.65909 69.0458 8.8421 69.2023C9.0251 69.3589 9.25971 69.442 9.50048 69.4356H22.3325C22.4864 69.4424 22.6396 69.4121 22.7792 69.3471C22.9188 69.282 23.0407 69.1843 23.1345 69.0621C23.2282 68.94 23.2911 68.797 23.3178 68.6453C23.3445 68.4936 23.3342 68.3377 23.2878 68.1909L21.6461 62.8137L26.7606 59.5834C27.4176 59.2227 28.187 59.1246 28.9135 59.3088C28.934 59.3141 28.9548 59.3195 28.9758 59.3231L39.6562 61.2907C42.6011 61.8176 45.6374 61.389 48.3214 60.0675C48.3637 60.0467 48.4045 60.0229 48.4434 59.9962L66.9154 47.3132C67.1251 47.1692 67.2719 46.9506 67.3258 46.702C67.3797 46.4535 67.3367 46.1937 67.2056 45.9758C66.5069 44.8119 65.3861 43.9624 64.0767 43.6043C62.7673 43.2462 61.3702 43.407 60.1765 44.0532L60.0045 44.1461C58.66 42.628 56.4258 42.061 54.7117 42.93L54.6895 42.9417L54.0656 43.2778C53.148 42.5375 52.0281 42.0919 50.8528 41.9995C49.6775 41.9072 48.5018 42.1723 47.4799 42.7602L43.525 44.9121H38.2497C37.1266 44.9103 36.0184 44.6559 35.007 44.1679L34.2746 43.813C32.1553 42.7818 29.792 42.3571 27.4463 42.5861C25.1006 42.8151 22.864 43.6888 20.9842 45.1105C20.9622 45.127 20.9414 45.1441 20.9206 45.1622L19.1517 46.7371C18.556 47.2669 17.8597 47.6713 17.1043 47.9261L16.1582 44.7932C16.0973 44.5853 15.9721 44.4021 15.8006 44.2698C15.6291 44.1374 15.4201 44.0628 15.2036 44.0567H6.64892C6.50574 44.0622 6.36529 44.0977 6.23661 44.1607C6.10792 44.2237 5.99384 44.3129 5.90167 44.4227C5.80797 44.5284 5.73782 44.6528 5.69586 44.7877C5.6539 44.9226 5.6411 45.0649 5.65829 45.2051L8.50985 68.5879ZM55.6245 44.7061C56.4342 44.3022 57.4352 44.5739 58.1544 45.145L51.407 48.7851L51.1982 48.8953C51.0033 48.4008 50.7463 47.933 50.4334 47.5032L55.6245 44.7061ZM48.4451 44.5065C48.4531 44.5022 48.4611 44.4978 48.4688 44.4934C49.0115 44.1794 49.6227 44.0029 50.2493 43.9791C50.8758 43.9553 51.4987 44.085 52.0636 44.3569L48.9412 46.0394C48.4074 45.6657 47.8185 45.3778 47.1959 45.1859L48.4451 44.5065ZM20.479 48.2278L22.2165 46.681C23.8026 45.4905 25.6864 44.7606 27.6605 44.5716C29.6347 44.3825 31.6227 44.7416 33.406 45.6093L34.1386 45.9648C35.4209 46.5834 36.8259 46.9058 38.2497 46.9082H45.354C46.3071 46.9092 47.2328 47.2275 47.985 47.8129C48.7371 48.3983 49.2729 49.2175 49.5079 50.1412L44.6212 49.9195C42.7369 49.8343 40.8488 49.9214 38.9804 50.1797C38.7214 50.2197 38.4886 50.3599 38.3321 50.57C38.1757 50.7802 38.1081 51.0434 38.144 51.3029C38.18 51.5625 38.3165 51.7975 38.5242 51.9572C38.7319 52.1169 38.9941 52.1886 39.2541 52.1567C41.002 51.9152 42.7682 51.8336 44.5309 51.9129L50.5905 52.187C50.6048 52.187 50.6206 52.188 50.6356 52.188C50.9003 52.188 51.1541 52.0829 51.3413 51.8957C51.5285 51.7085 51.6336 51.4547 51.6336 51.19C51.6336 51.101 51.6306 51.0126 51.627 50.9245L52.3455 50.5457L61.124 45.8098C61.7236 45.485 62.4096 45.3554 63.0863 45.4389C63.7631 45.5224 64.397 45.8149 64.8996 46.2756L47.3731 58.3092C45.0893 59.4175 42.5132 59.7739 40.0143 59.3272L29.3666 57.3665C28.1468 57.0671 26.8589 57.2424 25.7635 57.8569C25.748 57.8658 25.7324 57.8749 25.7175 57.8845L21.0409 60.8408L17.686 49.8368C18.7173 49.4972 19.6679 48.9497 20.479 48.2279V48.2278ZM14.4645 46.0528L20.9849 67.4395H10.3842L7.776 46.0528H14.4645Z" fill="#D31A2C"/>
<path d="M15.2441 67.1145C15.7799 67.1145 16.3037 66.9556 16.7492 66.658C17.1947 66.3603 17.5419 65.9372 17.7469 65.4422C17.952 64.9472 18.0056 64.4025 17.9011 63.877C17.7965 63.3515 17.5385 62.8688 17.1597 62.49C16.7808 62.1111 16.2981 61.8531 15.7726 61.7486C15.2471 61.6441 14.7025 61.6977 14.2075 61.9027C13.7125 62.1078 13.2894 62.455 12.9917 62.9005C12.694 63.346 12.5352 63.8697 12.5352 64.4055C12.536 65.1237 12.8217 65.8123 13.3295 66.3201C13.8374 66.828 14.5259 67.1137 15.2441 67.1145ZM15.2441 63.6926C15.3851 63.6926 15.523 63.7344 15.6402 63.8128C15.7574 63.8911 15.8488 64.0024 15.9028 64.1327C15.9567 64.263 15.9708 64.4063 15.9433 64.5446C15.9158 64.6829 15.8479 64.8099 15.7482 64.9096C15.6485 65.0093 15.5215 65.0772 15.3832 65.1047C15.2449 65.1322 15.1016 65.1181 14.9713 65.0641C14.8411 65.0102 14.7297 64.9188 14.6514 64.8016C14.5731 64.6843 14.5313 64.5465 14.5313 64.4055C14.5315 64.2165 14.6067 64.0353 14.7403 63.9017C14.8739 63.768 15.0551 63.6929 15.2441 63.6926Z" fill="#D31A2C"/>
<path d="M20.7206 23.503L23.4287 23.7641C23.7362 24.8792 24.1867 25.9499 24.769 26.9494L23.049 29.0262C22.8903 29.2177 22.8088 29.4615 22.8204 29.7099C22.8321 29.9583 22.936 30.1934 23.1119 30.3692L26.3596 33.6168C26.5353 33.7926 26.7703 33.8964 27.0186 33.9081C27.2668 33.9198 27.5105 33.8384 27.7019 33.6798L29.7836 31.9553C30.7823 32.536 31.8507 32.9876 32.9631 33.2993L33.2241 36.017C33.2477 36.265 33.3625 36.4954 33.5463 36.6637C33.73 36.8319 33.9696 36.926 34.2188 36.9278H38.8232C39.0722 36.9257 39.3116 36.8314 39.4951 36.6631C39.6786 36.4947 39.7932 36.2643 39.8167 36.0164L40.0777 33.3038C41.1929 32.9956 42.2635 32.5445 43.2629 31.9616L45.3398 33.6804C45.5313 33.8388 45.775 33.9201 46.0233 33.9083C46.2715 33.8966 46.5064 33.7926 46.6821 33.6168L49.9293 30.3692C50.1051 30.1934 50.209 29.9584 50.2207 29.7101C50.2324 29.4618 50.151 29.2181 49.9925 29.0266L48.2673 26.9441C48.8481 25.9451 49.2998 24.8764 49.6115 23.7637L52.28 23.5032C52.5267 23.4791 52.7557 23.364 52.9222 23.1804C53.0888 22.9968 53.1811 22.7577 53.1811 22.5098V17.9053C53.1811 17.6571 53.0887 17.4179 52.9219 17.2342C52.7551 17.0506 52.5258 16.9356 52.2788 16.9118L49.5707 16.6509C49.2632 15.5357 48.8127 14.465 48.2305 13.4655L49.9504 11.3886C50.1082 11.198 50.1896 10.9557 50.1788 10.7085C50.168 10.4613 50.0657 10.227 49.8919 10.0509L46.6861 6.80313C46.5107 6.62565 46.2752 6.5203 46.0261 6.50781C45.7769 6.49533 45.5321 6.57663 45.3398 6.73569L43.2582 8.46088C42.2595 7.88022 41.1911 7.42863 40.0787 7.11694L39.8177 4.4379C39.7926 4.19363 39.6762 3.96786 39.4917 3.80587C39.3071 3.64388 39.0682 3.55764 38.8227 3.56446H34.2188C33.9737 3.55799 33.7352 3.64429 33.551 3.8061C33.3668 3.96791 33.2504 4.1933 33.2253 4.43718L32.9641 7.13034C31.8493 7.43525 30.7786 7.8832 29.7789 8.46302L27.7018 6.73939C27.5106 6.58063 27.267 6.4989 27.0188 6.51022C26.7705 6.52153 26.5354 6.62506 26.3594 6.80056L23.1119 10.0472C22.9363 10.2229 22.8325 10.4578 22.8209 10.7059C22.8092 10.9541 22.8905 11.1976 23.0489 11.389L24.7741 13.4707C24.1934 14.4694 23.7418 15.5377 23.4301 16.6501L20.7212 16.9112C20.474 16.9349 20.2445 17.0499 20.0776 17.2337C19.9106 17.4175 19.8182 17.657 19.8184 17.9053V22.5095C19.8183 22.7577 19.9108 22.9969 20.0776 23.1806C20.2444 23.3642 20.4736 23.4792 20.7206 23.503ZM21.8145 18.8118L24.3238 18.5694C24.5345 18.5491 24.7332 18.4623 24.8913 18.3216C25.0494 18.181 25.1587 17.9937 25.2034 17.7869C25.5099 16.4115 26.0626 15.1029 26.8349 13.9242C26.9499 13.746 27.0051 13.5357 26.9926 13.324C26.98 13.1123 26.9003 12.91 26.7651 12.7466L25.1658 10.8153L27.1285 8.85254L29.0596 10.4518C29.2249 10.5888 29.43 10.6688 29.6444 10.68C29.8588 10.6911 30.0711 10.6328 30.2498 10.5137C31.4215 9.73849 32.7273 9.18817 34.1004 8.8909C34.3051 8.85262 34.4919 8.74915 34.6329 8.59594C34.774 8.44273 34.8617 8.248 34.8829 8.04085L35.1253 5.55999H37.9169L38.1593 8.04085C38.1801 8.24975 38.2673 8.44649 38.4081 8.60216C38.549 8.75783 38.736 8.86423 38.9418 8.90573C40.3172 9.20919 41.6263 9.75924 42.8057 10.5293C42.9843 10.6438 43.1948 10.6983 43.4066 10.6851C43.6183 10.6718 43.8204 10.5914 43.9834 10.4556L45.91 8.85868L47.8398 10.812L46.235 12.7465C46.0981 12.9118 46.0182 13.1169 46.0071 13.3313C45.996 13.5456 46.0543 13.7579 46.1734 13.9365C46.9485 15.1081 47.4987 16.4139 47.796 17.7869C47.8408 17.9937 47.9501 18.181 48.1082 18.3216C48.2663 18.4623 48.465 18.5491 48.6756 18.5694L51.185 18.8118V21.6042L48.7151 21.8453C48.5047 21.8658 48.3062 21.9526 48.1483 22.0932C47.9904 22.2338 47.8812 22.4209 47.8365 22.6276C47.5304 24.0034 46.9779 25.3124 46.2056 26.4915C46.0905 26.6697 46.0353 26.88 46.0479 27.0917C46.0604 27.3035 46.1401 27.5058 46.2754 27.6692L47.8755 29.5992L45.9127 31.562L43.9815 29.9627C43.8162 29.8257 43.6111 29.7457 43.3966 29.7346C43.1822 29.7234 42.9699 29.7817 42.7913 29.9008C41.6196 30.6762 40.3138 31.2266 38.9407 31.524C38.7332 31.5708 38.5458 31.6818 38.4053 31.8415C38.2647 32.0011 38.1782 32.201 38.1582 32.4127L37.9164 34.9317H35.1247L34.8823 32.4127C34.862 32.2016 34.7754 32.0023 34.6348 31.8435C34.4942 31.6847 34.307 31.5745 34.0998 31.5287C32.7242 31.2217 31.4154 30.6685 30.2367 29.8957C30.0585 29.7805 29.8483 29.7251 29.6366 29.7375C29.4248 29.7498 29.2225 29.8294 29.059 29.9645L27.1279 31.5633L25.1658 29.5992L26.7651 27.668C26.902 27.5026 26.982 27.2975 26.9931 27.083C27.0042 26.8686 26.9458 26.6563 26.8266 26.4776C26.0515 25.3059 25.5013 24.0002 25.204 22.6272C25.1592 22.4203 25.0499 22.2331 24.8918 22.0924C24.7337 21.9518 24.535 21.865 24.3244 21.8447L21.815 21.6023L21.8145 18.8118Z" fill="#D31A2C"/>
<path d="M36.5208 30.1696C38.4912 30.1696 40.4174 29.5853 42.0557 28.4905C43.6941 27.3958 44.971 25.8399 45.7251 24.0194C46.4791 22.199 46.6764 20.1958 46.292 18.2632C45.9075 16.3307 44.9587 14.5555 43.5654 13.1622C42.172 11.7689 40.3969 10.8201 38.4643 10.4357C36.5317 10.0513 34.5285 10.2486 32.7081 11.0027C30.8877 11.7567 29.3317 13.0337 28.237 14.6721C27.1424 16.3104 26.5581 18.2366 26.5581 20.2071C26.5611 22.8484 27.6117 25.3807 29.4794 27.2484C31.3471 29.1161 33.8794 30.1666 36.5208 30.1696ZM36.5208 12.2405C38.0964 12.2405 39.6366 12.7077 40.9467 13.5831C42.2568 14.4585 43.2779 15.7027 43.8809 17.1584C44.4839 18.6141 44.6416 20.2159 44.3342 21.7613C44.0268 23.3066 43.2681 24.7261 42.154 25.8403C41.0398 26.9544 39.6203 27.7131 38.075 28.0205C36.5296 28.3279 34.9278 28.1702 33.4721 27.5672C32.0164 26.9642 30.7722 25.9431 29.8968 24.633C29.0214 23.3229 28.5542 21.7827 28.5542 20.2071C28.5567 18.095 29.3969 16.0702 30.8904 14.5768C32.3839 13.0834 34.4087 12.2433 36.5208 12.2409V12.2405Z" fill="#D31A2C"/>
<path d="M34.7401 23.2536C34.9266 23.4356 35.1768 23.5375 35.4373 23.5375C35.6979 23.5375 35.9481 23.4356 36.1345 23.2536L40.9118 18.5895C41.0067 18.4982 41.0826 18.389 41.1351 18.2683C41.1877 18.1475 41.2158 18.0175 41.2179 17.8859C41.2199 17.7542 41.1959 17.6234 41.1472 17.5011C41.0985 17.3787 41.0261 17.2672 40.9341 17.173C40.8421 17.0787 40.7324 17.0036 40.6113 16.952C40.4901 16.9004 40.36 16.8732 40.2283 16.8721C40.0966 16.871 39.966 16.896 39.844 16.9456C39.722 16.9952 39.611 17.0684 39.5175 17.1611L35.4373 21.1443L33.4827 19.2361C33.3892 19.1434 33.2782 19.0701 33.1562 19.0205C33.0342 18.9709 32.9036 18.9459 32.7719 18.947C32.6403 18.9481 32.5101 18.9753 32.3889 19.0269C32.2678 19.0786 32.1581 19.1537 32.0661 19.2479C31.9741 19.3421 31.9017 19.4536 31.853 19.576C31.8043 19.6984 31.7803 19.8291 31.7824 19.9608C31.7844 20.0925 31.8125 20.2224 31.8651 20.3432C31.9176 20.464 31.9935 20.5731 32.0884 20.6644L34.7401 23.2536Z" fill="#D31A2C"/>
</svg>
