<svg width="38" height="39" viewBox="0 0 38 39" fill="none" xmlns="http://www.w3.org/2000/svg">
<g clip-path="url(#clip0)">
<path d="M19.0067 0.469971C11.4044 0.468872 4.53348 4.96307 1.54121 11.8941L1.30439 11.972L1.39621 12.2452C-2.54357 21.882 2.13967 32.8616 11.8566 36.7689C14.1261 37.6815 16.5521 38.15 19.0011 38.1486C29.4923 38.1502 37.9984 29.7168 38 19.3121C38.0016 8.90748 29.498 0.471462 19.0067 0.469971ZM33.907 28.8078L32.9315 27.841V25.5891C32.9326 25.4919 32.911 25.3958 32.8682 25.3084L30.3987 20.4171V18.0533C30.3987 17.8434 30.2931 17.6474 30.117 17.5309L28.2174 16.2749C28.0685 16.1763 27.8844 16.1448 27.7108 16.1882L25.3844 16.7647L21.4769 15.1018L20.9393 11.3666L22.4293 9.88964H25.6276L26.704 11.4941C26.8012 11.6384 26.9544 11.7364 27.127 11.7648L30.9262 12.3928C31.028 12.4097 31.1323 12.4015 31.2301 12.3689L34.7292 11.2122C37.664 16.7976 37.3501 23.5155 33.907 28.8078ZM31.2953 6.65806L30.2658 7.33879L27.3955 6.76921L25.5332 6.15442C25.4192 6.11604 25.2966 6.11117 25.1799 6.14061L22.8256 6.724L21.7935 6.38301L22.5584 4.86581H24.6999C24.7981 4.86589 24.895 4.84336 24.983 4.79988L27.1738 3.71347C28.6826 4.49452 30.0706 5.4861 31.2953 6.65806ZM12.0657 3.1282L13.5853 4.13296C13.6601 4.18226 13.7444 4.21523 13.8329 4.22967L16.9014 4.73708L16.6019 5.62567L15.0031 6.15505C14.8599 6.20231 14.7384 6.2987 14.6605 6.42697L12.842 9.43247L9.921 11.1707L5.61523 11.7805C5.30314 11.8242 5.07107 12.089 5.07068 12.4015V14.2855C5.07068 14.452 5.13748 14.6117 5.2562 14.7295L6.33708 15.8014V16.8803L3.70296 15.1383L2.74746 12.2954C4.56538 8.17588 7.89737 4.89784 12.0657 3.1282ZM10.2629 23.7177L7.40086 23.1494L6.33708 21.045V19.5693L8.69639 17.2294L9.56957 18.962C9.67682 19.1749 9.8963 19.3094 10.1363 19.3093H14.2103L15.9256 22.1446C16.0401 22.3336 16.246 22.4491 16.4683 22.4492H18.2286L17.7854 24.6515L15.3881 27.029C15.2691 27.1467 15.2021 27.3064 15.2019 27.473V29.043L12.9224 30.7385C12.763 30.8571 12.6691 31.0432 12.6691 31.2409V33.5091L11.8814 33.2504L10.7695 30.4923V24.3331C10.7696 24.0347 10.5578 23.7774 10.2629 23.7177ZM8.35952 33.3714C2.3893 28.9293 -0.135506 21.2541 2.04461 14.175L2.5708 15.7399C2.61512 15.8723 2.70266 15.9864 2.81964 16.0639L5.97615 18.1507L5.2562 18.8653C5.13748 18.9831 5.07068 19.1427 5.07068 19.3093V21.1932C5.0706 21.2906 5.09331 21.3867 5.13716 21.4739L6.40356 23.9858C6.49126 24.1593 6.65487 24.2829 6.84681 24.3206L9.50625 24.8474V30.6129C9.50617 30.6926 9.52145 30.7718 9.55121 30.8459L10.8176 33.9858C10.8869 34.1573 11.0289 34.2899 11.2058 34.3481L13.1054 34.9761C13.1688 34.9974 13.2353 35.0084 13.3023 35.0087C13.652 35.0087 13.9355 34.7276 13.9355 34.3808V31.5549L16.215 29.8593C16.3744 29.7407 16.4683 29.5546 16.4683 29.3569V27.733L18.8156 25.4051C18.9038 25.3174 18.964 25.2057 18.9884 25.0842L19.6216 21.9443C19.6902 21.6042 19.4678 21.2734 19.1248 21.2054C19.0841 21.1973 19.0427 21.1932 19.0011 21.1932H16.8267L15.1114 18.3579C14.9969 18.169 14.791 18.0534 14.5687 18.0533H10.5276L9.43977 15.8887C9.34866 15.708 9.17548 15.5818 8.97436 15.5496C8.77332 15.5151 8.56808 15.5809 8.42538 15.7254L7.60348 16.5374V15.5414C7.60348 15.3749 7.53668 15.2152 7.41795 15.0975L6.33708 14.0255V12.946L10.2262 12.3953C10.3097 12.3833 10.39 12.3548 10.4624 12.3117L13.6284 10.4278C13.7172 10.3749 13.7916 10.3011 13.8449 10.213L15.6242 7.27222L17.3016 6.71709C17.491 6.65547 17.6396 6.50813 17.7018 6.32021L18.335 4.43628C18.4447 4.10698 18.2645 3.75178 17.9324 3.64298C17.9018 3.63294 17.8704 3.62524 17.8386 3.61991L14.1736 3.01391L13.5296 2.58814C17.5143 1.30188 21.83 1.46108 25.7073 3.03714L24.5505 3.60986H22.1671C21.9259 3.60852 21.705 3.74323 21.5972 3.95713L20.3308 6.46904C20.1748 6.77942 20.302 7.15652 20.615 7.31124C20.6417 7.32443 20.6692 7.33573 20.6975 7.34507L22.5971 7.97305C22.711 8.01143 22.8337 8.0163 22.9504 7.98686L25.3046 7.40347L27.0295 7.97305C27.0542 7.98184 27.0796 7.98859 27.1054 7.99314L30.2715 8.62112C30.4361 8.6544 30.6074 8.62096 30.747 8.52818L32.1882 7.57491C32.8974 8.35839 33.5348 9.20302 34.0928 10.0988L30.9775 11.1286L27.6044 10.571L26.49 8.91313C26.3732 8.73942 26.1769 8.6347 25.9663 8.63368H22.1671C21.9992 8.63368 21.8382 8.69993 21.7194 8.81768L19.8198 10.7016C19.6788 10.8414 19.6124 11.039 19.6406 11.2348L20.2738 15.6306C20.3057 15.848 20.4498 16.033 20.6538 16.1185L25.0862 18.0025C25.2131 18.057 25.3548 18.0683 25.4889 18.0345L27.75 17.4737L29.1323 18.3893V20.5653C29.1312 20.6624 29.1529 20.7585 29.1957 20.846L31.6651 25.7373V28.101C31.6651 28.2676 31.7319 28.4272 31.8507 28.545L33.1753 29.8593C27.3006 37.6253 16.1901 39.1977 8.35952 33.3714Z" fill="#CE1625"/>
</g>
<defs>
<clipPath id="clip0">
<rect width="38" height="37.6865" fill="white" transform="translate(0 0.465332)"/>
</clipPath>
</defs>
</svg>
